<mxfile modified="2021-10-08T18:57:06.762Z" host="app.diagrams.net" agent="5.0 (Windows NT 6.3; Win64; x64) AppleWebKit/537.36 (KHTML, like Gecko) Chrome/93.0.4577.63 Safari/537.36" etag="xqdkwFcwNCxWF1DPTn4L" version="15.4.3" type="github">
  <diagram id="WI9T0HZ2pTsCkuznbFz-" name="Page-1">
    <mxGraphModel dx="1509" dy="603" grid="1" gridSize="10" guides="1" tooltips="1" connect="1" arrows="1" fold="1" page="1" pageScale="1" pageWidth="1169" pageHeight="827" math="0" shadow="0">
      <root>
        <mxCell id="0" />
        <mxCell id="1" parent="0" />
        <mxCell id="pGjpfpKULk_TTckn_0MS-35" style="edgeStyle=orthogonalEdgeStyle;rounded=0;orthogonalLoop=1;jettySize=auto;html=1;exitX=0;exitY=0.5;exitDx=0;exitDy=0;entryX=0.5;entryY=0;entryDx=0;entryDy=0;fontSize=14;fontColor=none;" edge="1" parent="1" source="pGjpfpKULk_TTckn_0MS-5" target="pGjpfpKULk_TTckn_0MS-33">
          <mxGeometry relative="1" as="geometry" />
        </mxCell>
        <mxCell id="pGjpfpKULk_TTckn_0MS-5" value="" style="shape=image;verticalLabelPosition=bottom;labelBackgroundColor=#ffffff;verticalAlign=top;aspect=fixed;imageAspect=0;image=data:image/svg+xml,PHN2ZyB4bWxuczpjYz0iaHR0cDovL2NyZWF0aXZlY29tbW9ucy5vcmcvbnMjIiB4bWxuczpkYz0iaHR0cDovL3B1cmwub3JnL2RjL2VsZW1lbnRzLzEuMS8iIHhtbG5zOmlua3NjYXBlPSJodHRwOi8vd3d3Lmlua3NjYXBlLm9yZy9uYW1lc3BhY2VzL2lua3NjYXBlIiB4bWxuczpyZGY9Imh0dHA6Ly93d3cudzMub3JnLzE5OTkvMDIvMjItcmRmLXN5bnRheC1ucyMiIHhtbG5zOnNvZGlwb2RpPSJodHRwOi8vc29kaXBvZGkuc291cmNlZm9yZ2UubmV0L0RURC9zb2RpcG9kaS0wLmR0ZCIgeG1sbnM6c3ZnPSJodHRwOi8vd3d3LnczLm9yZy8yMDAwL3N2ZyIgeG1sbnM9Imh0dHA6Ly93d3cudzMub3JnLzIwMDAvc3ZnIiB4bWxuczp4bGluaz0iaHR0cDovL3d3dy53My5vcmcvMTk5OS94bGluayIgdmVyc2lvbj0iMS4xIiBpZD0ic3ZnMTEzNDIyIiBpbmtzY2FwZTp2ZXJzaW9uPSIwLjkyLjMgKDI0MDU1NDYsIDIwMTgtMDMtMTEpIiBzb2RpcG9kaTpkb2NuYW1lPSJ3ZWIuc3ZnIiB4PSIwcHgiIHk9IjBweCIgdmlld0JveD0iMCAwIDM2IDM2IiBzdHlsZT0iZW5hYmxlLWJhY2tncm91bmQ6bmV3IDAgMCAzNiAzNjsiIHhtbDpzcGFjZT0icHJlc2VydmUiPiYjeGE7PHNvZGlwb2RpOm5hbWVkdmlldyBib3JkZXJjb2xvcj0iIzY2NjY2NiIgYm9yZGVyb3BhY2l0eT0iMSIgZml0LW1hcmdpbi1ib3R0b209IjAiIGZpdC1tYXJnaW4tbGVmdD0iMCIgZml0LW1hcmdpbi1yaWdodD0iMCIgZml0LW1hcmdpbi10b3A9IjAiIGdyaWR0b2xlcmFuY2U9IjEwIiBndWlkZXRvbGVyYW5jZT0iMTAiIGlkPSJuYW1lZHZpZXcxMTM0MjQiIGlua3NjYXBlOmN1cnJlbnQtbGF5ZXI9InN2ZzExMzQyMiIgaW5rc2NhcGU6Y3g9IjIzLjYwNDk5IiBpbmtzY2FwZTpjeT0iMjMuOTk5OTc1IiBpbmtzY2FwZTpwYWdlb3BhY2l0eT0iMCIgaW5rc2NhcGU6cGFnZXNoYWRvdz0iMiIgaW5rc2NhcGU6d2luZG93LWhlaWdodD0iMTAxNyIgaW5rc2NhcGU6d2luZG93LW1heGltaXplZD0iMSIgaW5rc2NhcGU6d2luZG93LXdpZHRoPSIxOTIwIiBpbmtzY2FwZTp3aW5kb3cteD0iLTgiIGlua3NjYXBlOndpbmRvdy15PSItOCIgaW5rc2NhcGU6em9vbT0iMTcuMzQwMDExIiBvYmplY3R0b2xlcmFuY2U9IjEwIiBwYWdlY29sb3I9IiNmZmZmZmYiIHNob3dncmlkPSJmYWxzZSI+JiN4YTsJPC9zb2RpcG9kaTpuYW1lZHZpZXc+JiN4YTs8ZyBpZD0iZzExMzQyMCIgdHJhbnNmb3JtPSJ0cmFuc2xhdGUoLTEuMzQyNDksLTAuNzQ3OTIpIj4mI3hhOwk8dGl0bGUgaWQ9InRpdGxlMTEzMzczIj5QYWdlLTE8L3RpdGxlPiYjeGE7CTxnIGlkPSJncm91cDUyNDAtMSIgdHJhbnNmb3JtPSJ0cmFuc2xhdGUoMS41LC0wLjc1KSI+JiN4YTsJCTx0aXRsZSBpZD0idGl0bGUxMTMzNzUiPldlYjwvdGl0bGU+JiN4YTsJCTxnIGlkPSJzaGFwZTUyNDEtMiIgdHJhbnNmb3JtPSJ0cmFuc2xhdGUoNS4zNzk3NCwtNS41MzcyNCkiPiYjeGE7CQkJPHRpdGxlIGlkPSJ0aXRsZTExMzM3NyI+cGF0aDk2MTA8L3RpdGxlPiYjeGE7CQkJPHBhdGggaWQ9InBhdGgxMTMzNzkiIGlua3NjYXBlOmNvbm5lY3Rvci1jdXJ2YXR1cmU9IjAiIHN0eWxlPSJmaWxsOiNGRkZGRkY7IiBkPSJNMzAuMDksMjUuMDRjMCw5LjczLTcuOSwxNy42Mi0xNy42MywxNy42MiAgICAgYy05LjczLDAtMTcuNjItNy45LTE3LjYyLTE3LjYzYzAtOS43Myw3Ljg5LTE3LjYyLDE3LjYyLTE3LjYyQzIyLjE5LDcuNDIsMzAuMDgsMTUuMzEsMzAuMDksMjUuMDR6Ii8+JiN4YTsJCTwvZz4mI3hhOwkJPGcgaWQ9InNoYXBlNTI0Mi00IiB0cmFuc2Zvcm09InRyYW5zbGF0ZSgwLjIxNzQ5MiwtMC4zNzUpIj4mI3hhOwkJCTx0aXRsZSBpZD0idGl0bGUxMTMzODIiPnBhdGg5NjEyPC90aXRsZT4mI3hhOwkJCTxwYXRoIGlkPSJwYXRoMTEzMzg0IiBpbmtzY2FwZTpjb25uZWN0b3ItY3VydmF0dXJlPSIwIiBzdHlsZT0iZmlsbDojRDRFMkY1OyIgZD0iTTM1LjI1LDE5Ljg3YzAsOS43My03Ljg5LDE3LjYzLTE3LjYzLDE3LjYzICAgICBTMCwyOS42LDAsMTkuODdsMCwwSDM1LjI1eiIvPiYjeGE7CQk8L2c+JiN4YTsJCTxnIGlkPSJzaGFwZTUyNDMtNiIgdHJhbnNmb3JtPSJ0cmFuc2xhdGUoMS4zNDI0OSwtNS4yNzIwOCkiPiYjeGE7CQkJPHRpdGxlIGlkPSJ0aXRsZTExMzM4NyI+cGF0aDk2MTQ8L3RpdGxlPiYjeGE7CQkJPHBhdGggaWQ9InBhdGgxMTMzODkiIGlua3NjYXBlOmNvbm5lY3Rvci1jdXJ2YXR1cmU9IjAiIHN0eWxlPSJmaWxsOiM0RDRFNEU7IiBkPSJNMTYuNSw4LjI3YzkuMTEsMCwxNi41LDcuMzksMTYuNSwxNi41ICAgICBzLTcuMzksMTYuNS0xNi41LDE2LjVTMCwzMy44OCwwLDI0Ljc3UzcuMzksOC4yNywxNi41LDguMjd6IE0xNi41LDYuNzdjLTkuOTQsMC0xOCw4LjA2LTE4LDE4czguMDYsMTgsMTgsMThzMTgtOC4wNiwxOC0xOCAgICAgUzI2LjQ0LDYuNzcsMTYuNSw2Ljc3eiIvPiYjeGE7CQk8L2c+JiN4YTsJCTxnIGlkPSJncm91cDUyNDQtOCI+JiN4YTsJCQk8dGl0bGUgaWQ9InRpdGxlMTEzMzkyIj5nOTYyMDwvdGl0bGU+JiN4YTsJCQk8ZyBpZD0ic2hhcGU1MjQ1LTkiIHRyYW5zZm9ybT0idHJhbnNsYXRlKDkuNTkyNDkpIj4mI3hhOwkJCQk8dGl0bGUgaWQ9InRpdGxlMTEzMzk0Ij5wYXRoOTYxNjwvdGl0bGU+JiN4YTsJCQkJPHBhdGggaWQ9InBhdGgxMTMzOTYiIGlua3NjYXBlOmNvbm5lY3Rvci1jdXJ2YXR1cmU9IjAiIHN0eWxlPSJmaWxsOiM0RDRFNEU7IiBkPSJNNy44NywzLjJjMywwLDYuMzgsNy4wMSw2LjM4LDE2LjQgICAgICBjMCw5LjM4LTMuMzgsMTYuNC02LjM4LDE2LjRTMS41LDI4Ljk5LDEuNSwxOS42QzEuNSwxMC4yMiw0Ljg3LDMuMiw3Ljg3LDMuMnogTTcuODcsMS43QzMuNTIsMS43LDAsOS43MSwwLDE5LjYgICAgICBjMCw5Ljg4LDMuNTIsMTcuOSw3Ljg3LDE3LjlzNy44OC04LjAxLDcuODgtMTcuOUMxNS43NSw5LjcyLDEyLjIyLDEuNyw3Ljg3LDEuN3oiLz4mI3hhOwkJCTwvZz4mI3hhOwkJCTxnIGlkPSJzaGFwZTUyNDYtMTEiIHRyYW5zZm9ybT0idHJhbnNsYXRlKDAsLTE4KSI+JiN4YTsJCQkJPHRpdGxlIGlkPSJ0aXRsZTExMzM5OSI+bGluZTk2MTg8L3RpdGxlPiYjeGE7CQkJCSYjeGE7CQkJCQk8cGF0aCBpZD0icGF0aDExMzQwMSIgaW5rc2NhcGU6Y29ubmVjdG9yLWN1cnZhdHVyZT0iMCIgc3R5bGU9ImZpbGw6bm9uZTtzdHJva2U6IzRENEU0RTtzdHJva2Utd2lkdGg6MS41O3N0cm9rZS1taXRlcmxpbWl0OjM7IiBkPSIgICAgICBNMCwzNy41aDM1LjA5Ii8+JiN4YTsJCQk8L2c+JiN4YTsJCTwvZz4mI3hhOwkJPGcgaWQ9InNoYXBlNTI0Ny0xNCIgdHJhbnNmb3JtPSJ0cmFuc2xhdGUoNC4zNDk5OSwtMjcpIj4mI3hhOwkJCTx0aXRsZSBpZD0idGl0bGUxMTM0MDUiPnBhdGg5NjIyPC90aXRsZT4mI3hhOwkJCTxwYXRoIGlkPSJwYXRoMTEzNDA3IiBpbmtzY2FwZTpjb25uZWN0b3ItY3VydmF0dXJlPSIwIiBzdHlsZT0iZmlsbDpub25lOyIgZD0iTTAsMzUuNDdjMy4yOSwxLjI4LDguMTIsMi4wMywxMy40OSwyLjAzICAgICBzMTAuMi0wLjc1LDEzLjUtMi4wM0gweiIvPiYjeGE7CQkJJiN4YTsJCQkJPHBhdGggaWQ9InBhdGgxMTM0MDkiIGlua3NjYXBlOmNvbm5lY3Rvci1jdXJ2YXR1cmU9IjAiIHN0eWxlPSJmaWxsOm5vbmU7c3Ryb2tlOiM0RDRFNEU7c3Ryb2tlLXdpZHRoOjEuNTtzdHJva2UtbWl0ZXJsaW1pdDozOyIgZD0iICAgICBNMCwzNS40N2MzLjI5LDEuMjgsOC4xMiwyLjAzLDEzLjQ5LDIuMDNzMTAuMi0wLjc1LDEzLjUtMi4wMyIvPiYjeGE7CQk8L2c+JiN4YTsJCTxnIGlkPSJzaGFwZTUyNDgtMTciIHRyYW5zZm9ybT0idHJhbnNsYXRlKDQuMzQ5OTksLTYuOTY3NSkiPiYjeGE7CQkJPHRpdGxlIGlkPSJ0aXRsZTExMzQxMiI+cGF0aDk2MjQ8L3RpdGxlPiYjeGE7CQkJPHBhdGggaWQ9InBhdGgxMTM0MTQiIGlua3NjYXBlOmNvbm5lY3Rvci1jdXJ2YXR1cmU9IjAiIHN0eWxlPSJmaWxsOm5vbmU7IiBkPSJNMCwzNy41YzMuMjktMS4yOCw4LjEyLTIuMDMsMTMuNDktMi4wMyAgICAgczEwLjIsMC43NSwxMy41LDIuMDNIMHoiLz4mI3hhOwkJCSYjeGE7CQkJCTxwYXRoIGlkPSJwYXRoMTEzNDE2IiBpbmtzY2FwZTpjb25uZWN0b3ItY3VydmF0dXJlPSIwIiBzdHlsZT0iZmlsbDpub25lO3N0cm9rZTojNEQ0RTRFO3N0cm9rZS13aWR0aDoxLjU7c3Ryb2tlLW1pdGVybGltaXQ6MzsiIGQ9IiAgICAgTTAsMzcuNWMzLjI5LTEuMjgsOC4xMi0yLjAzLDEzLjQ5LTIuMDNzMTAuMiwwLjc1LDEzLjUsMi4wMyIvPiYjeGE7CQk8L2c+JiN4YTsJPC9nPiYjeGE7PC9nPiYjeGE7PC9zdmc+;" vertex="1" parent="1">
          <mxGeometry x="323" y="42" width="36" height="36" as="geometry" />
        </mxCell>
        <mxCell id="pGjpfpKULk_TTckn_0MS-6" value="&lt;p style=&quot;margin-bottom: 0cm&quot;&gt;&lt;font color=&quot;#000080&quot;&gt;&lt;span lang=&quot;zxx&quot;&gt;&lt;u&gt;&lt;a class=&quot;western&quot; href=&quot;https://serviciosweb.soriana.com/RecibeCFD/wsEdocRecibo.asmx&quot;&gt;&lt;font size=&quot;2&quot;&gt;&lt;span lang=&quot;es-MX&quot;&gt;https://serviciosweb.soriana.com/RecibeCFD/wsEdocRecibo.asmx&lt;/span&gt;&lt;/font&gt;&lt;/a&gt;&lt;/u&gt;&lt;/span&gt;&lt;/font&gt;&lt;/p&gt;" style="text;html=1;resizable=0;autosize=1;align=center;verticalAlign=middle;points=[];fillColor=none;strokeColor=none;rounded=0;" vertex="1" parent="1">
          <mxGeometry x="141" y="79" width="400" height="30" as="geometry" />
        </mxCell>
        <mxCell id="pGjpfpKULk_TTckn_0MS-18" style="edgeStyle=orthogonalEdgeStyle;rounded=0;orthogonalLoop=1;jettySize=auto;html=1;exitX=0.5;exitY=1;exitDx=0;exitDy=0;entryX=1;entryY=0.5;entryDx=0;entryDy=0;fontSize=14;fontColor=none;" edge="1" parent="1" source="pGjpfpKULk_TTckn_0MS-7" target="pGjpfpKULk_TTckn_0MS-14">
          <mxGeometry relative="1" as="geometry" />
        </mxCell>
        <mxCell id="pGjpfpKULk_TTckn_0MS-7" value="" style="shape=image;verticalLabelPosition=bottom;labelBackgroundColor=#ffffff;verticalAlign=top;aspect=fixed;imageAspect=0;image=data:image/svg+xml,PHN2ZyB4bWxuczpjYz0iaHR0cDovL2NyZWF0aXZlY29tbW9ucy5vcmcvbnMjIiB4bWxuczpkYz0iaHR0cDovL3B1cmwub3JnL2RjL2VsZW1lbnRzLzEuMS8iIHhtbG5zOmlua3NjYXBlPSJodHRwOi8vd3d3Lmlua3NjYXBlLm9yZy9uYW1lc3BhY2VzL2lua3NjYXBlIiB4bWxuczpyZGY9Imh0dHA6Ly93d3cudzMub3JnLzE5OTkvMDIvMjItcmRmLXN5bnRheC1ucyMiIHhtbG5zOnNvZGlwb2RpPSJodHRwOi8vc29kaXBvZGkuc291cmNlZm9yZ2UubmV0L0RURC9zb2RpcG9kaS0wLmR0ZCIgeG1sbnM6c3ZnPSJodHRwOi8vd3d3LnczLm9yZy8yMDAwL3N2ZyIgeG1sbnM9Imh0dHA6Ly93d3cudzMub3JnLzIwMDAvc3ZnIiB4bWxuczp4bGluaz0iaHR0cDovL3d3dy53My5vcmcvMTk5OS94bGluayIgdmVyc2lvbj0iMS4xIiBpZD0ic3ZnMTEzNDIyIiBpbmtzY2FwZTp2ZXJzaW9uPSIwLjkyLjMgKDI0MDU1NDYsIDIwMTgtMDMtMTEpIiBzb2RpcG9kaTpkb2NuYW1lPSJ3ZWIuc3ZnIiB4PSIwcHgiIHk9IjBweCIgdmlld0JveD0iMCAwIDM2IDM2IiBzdHlsZT0iZW5hYmxlLWJhY2tncm91bmQ6bmV3IDAgMCAzNiAzNjsiIHhtbDpzcGFjZT0icHJlc2VydmUiPiYjeGE7PHNvZGlwb2RpOm5hbWVkdmlldyBib3JkZXJjb2xvcj0iIzY2NjY2NiIgYm9yZGVyb3BhY2l0eT0iMSIgZml0LW1hcmdpbi1ib3R0b209IjAiIGZpdC1tYXJnaW4tbGVmdD0iMCIgZml0LW1hcmdpbi1yaWdodD0iMCIgZml0LW1hcmdpbi10b3A9IjAiIGdyaWR0b2xlcmFuY2U9IjEwIiBndWlkZXRvbGVyYW5jZT0iMTAiIGlkPSJuYW1lZHZpZXcxMTM0MjQiIGlua3NjYXBlOmN1cnJlbnQtbGF5ZXI9InN2ZzExMzQyMiIgaW5rc2NhcGU6Y3g9IjIzLjYwNDk5IiBpbmtzY2FwZTpjeT0iMjMuOTk5OTc1IiBpbmtzY2FwZTpwYWdlb3BhY2l0eT0iMCIgaW5rc2NhcGU6cGFnZXNoYWRvdz0iMiIgaW5rc2NhcGU6d2luZG93LWhlaWdodD0iMTAxNyIgaW5rc2NhcGU6d2luZG93LW1heGltaXplZD0iMSIgaW5rc2NhcGU6d2luZG93LXdpZHRoPSIxOTIwIiBpbmtzY2FwZTp3aW5kb3cteD0iLTgiIGlua3NjYXBlOndpbmRvdy15PSItOCIgaW5rc2NhcGU6em9vbT0iMTcuMzQwMDExIiBvYmplY3R0b2xlcmFuY2U9IjEwIiBwYWdlY29sb3I9IiNmZmZmZmYiIHNob3dncmlkPSJmYWxzZSI+JiN4YTsJPC9zb2RpcG9kaTpuYW1lZHZpZXc+JiN4YTs8ZyBpZD0iZzExMzQyMCIgdHJhbnNmb3JtPSJ0cmFuc2xhdGUoLTEuMzQyNDksLTAuNzQ3OTIpIj4mI3hhOwk8dGl0bGUgaWQ9InRpdGxlMTEzMzczIj5QYWdlLTE8L3RpdGxlPiYjeGE7CTxnIGlkPSJncm91cDUyNDAtMSIgdHJhbnNmb3JtPSJ0cmFuc2xhdGUoMS41LC0wLjc1KSI+JiN4YTsJCTx0aXRsZSBpZD0idGl0bGUxMTMzNzUiPldlYjwvdGl0bGU+JiN4YTsJCTxnIGlkPSJzaGFwZTUyNDEtMiIgdHJhbnNmb3JtPSJ0cmFuc2xhdGUoNS4zNzk3NCwtNS41MzcyNCkiPiYjeGE7CQkJPHRpdGxlIGlkPSJ0aXRsZTExMzM3NyI+cGF0aDk2MTA8L3RpdGxlPiYjeGE7CQkJPHBhdGggaWQ9InBhdGgxMTMzNzkiIGlua3NjYXBlOmNvbm5lY3Rvci1jdXJ2YXR1cmU9IjAiIHN0eWxlPSJmaWxsOiNGRkZGRkY7IiBkPSJNMzAuMDksMjUuMDRjMCw5LjczLTcuOSwxNy42Mi0xNy42MywxNy42MiAgICAgYy05LjczLDAtMTcuNjItNy45LTE3LjYyLTE3LjYzYzAtOS43Myw3Ljg5LTE3LjYyLDE3LjYyLTE3LjYyQzIyLjE5LDcuNDIsMzAuMDgsMTUuMzEsMzAuMDksMjUuMDR6Ii8+JiN4YTsJCTwvZz4mI3hhOwkJPGcgaWQ9InNoYXBlNTI0Mi00IiB0cmFuc2Zvcm09InRyYW5zbGF0ZSgwLjIxNzQ5MiwtMC4zNzUpIj4mI3hhOwkJCTx0aXRsZSBpZD0idGl0bGUxMTMzODIiPnBhdGg5NjEyPC90aXRsZT4mI3hhOwkJCTxwYXRoIGlkPSJwYXRoMTEzMzg0IiBpbmtzY2FwZTpjb25uZWN0b3ItY3VydmF0dXJlPSIwIiBzdHlsZT0iZmlsbDojRDRFMkY1OyIgZD0iTTM1LjI1LDE5Ljg3YzAsOS43My03Ljg5LDE3LjYzLTE3LjYzLDE3LjYzICAgICBTMCwyOS42LDAsMTkuODdsMCwwSDM1LjI1eiIvPiYjeGE7CQk8L2c+JiN4YTsJCTxnIGlkPSJzaGFwZTUyNDMtNiIgdHJhbnNmb3JtPSJ0cmFuc2xhdGUoMS4zNDI0OSwtNS4yNzIwOCkiPiYjeGE7CQkJPHRpdGxlIGlkPSJ0aXRsZTExMzM4NyI+cGF0aDk2MTQ8L3RpdGxlPiYjeGE7CQkJPHBhdGggaWQ9InBhdGgxMTMzODkiIGlua3NjYXBlOmNvbm5lY3Rvci1jdXJ2YXR1cmU9IjAiIHN0eWxlPSJmaWxsOiM0RDRFNEU7IiBkPSJNMTYuNSw4LjI3YzkuMTEsMCwxNi41LDcuMzksMTYuNSwxNi41ICAgICBzLTcuMzksMTYuNS0xNi41LDE2LjVTMCwzMy44OCwwLDI0Ljc3UzcuMzksOC4yNywxNi41LDguMjd6IE0xNi41LDYuNzdjLTkuOTQsMC0xOCw4LjA2LTE4LDE4czguMDYsMTgsMTgsMThzMTgtOC4wNiwxOC0xOCAgICAgUzI2LjQ0LDYuNzcsMTYuNSw2Ljc3eiIvPiYjeGE7CQk8L2c+JiN4YTsJCTxnIGlkPSJncm91cDUyNDQtOCI+JiN4YTsJCQk8dGl0bGUgaWQ9InRpdGxlMTEzMzkyIj5nOTYyMDwvdGl0bGU+JiN4YTsJCQk8ZyBpZD0ic2hhcGU1MjQ1LTkiIHRyYW5zZm9ybT0idHJhbnNsYXRlKDkuNTkyNDkpIj4mI3hhOwkJCQk8dGl0bGUgaWQ9InRpdGxlMTEzMzk0Ij5wYXRoOTYxNjwvdGl0bGU+JiN4YTsJCQkJPHBhdGggaWQ9InBhdGgxMTMzOTYiIGlua3NjYXBlOmNvbm5lY3Rvci1jdXJ2YXR1cmU9IjAiIHN0eWxlPSJmaWxsOiM0RDRFNEU7IiBkPSJNNy44NywzLjJjMywwLDYuMzgsNy4wMSw2LjM4LDE2LjQgICAgICBjMCw5LjM4LTMuMzgsMTYuNC02LjM4LDE2LjRTMS41LDI4Ljk5LDEuNSwxOS42QzEuNSwxMC4yMiw0Ljg3LDMuMiw3Ljg3LDMuMnogTTcuODcsMS43QzMuNTIsMS43LDAsOS43MSwwLDE5LjYgICAgICBjMCw5Ljg4LDMuNTIsMTcuOSw3Ljg3LDE3LjlzNy44OC04LjAxLDcuODgtMTcuOUMxNS43NSw5LjcyLDEyLjIyLDEuNyw3Ljg3LDEuN3oiLz4mI3hhOwkJCTwvZz4mI3hhOwkJCTxnIGlkPSJzaGFwZTUyNDYtMTEiIHRyYW5zZm9ybT0idHJhbnNsYXRlKDAsLTE4KSI+JiN4YTsJCQkJPHRpdGxlIGlkPSJ0aXRsZTExMzM5OSI+bGluZTk2MTg8L3RpdGxlPiYjeGE7CQkJCSYjeGE7CQkJCQk8cGF0aCBpZD0icGF0aDExMzQwMSIgaW5rc2NhcGU6Y29ubmVjdG9yLWN1cnZhdHVyZT0iMCIgc3R5bGU9ImZpbGw6bm9uZTtzdHJva2U6IzRENEU0RTtzdHJva2Utd2lkdGg6MS41O3N0cm9rZS1taXRlcmxpbWl0OjM7IiBkPSIgICAgICBNMCwzNy41aDM1LjA5Ii8+JiN4YTsJCQk8L2c+JiN4YTsJCTwvZz4mI3hhOwkJPGcgaWQ9InNoYXBlNTI0Ny0xNCIgdHJhbnNmb3JtPSJ0cmFuc2xhdGUoNC4zNDk5OSwtMjcpIj4mI3hhOwkJCTx0aXRsZSBpZD0idGl0bGUxMTM0MDUiPnBhdGg5NjIyPC90aXRsZT4mI3hhOwkJCTxwYXRoIGlkPSJwYXRoMTEzNDA3IiBpbmtzY2FwZTpjb25uZWN0b3ItY3VydmF0dXJlPSIwIiBzdHlsZT0iZmlsbDpub25lOyIgZD0iTTAsMzUuNDdjMy4yOSwxLjI4LDguMTIsMi4wMywxMy40OSwyLjAzICAgICBzMTAuMi0wLjc1LDEzLjUtMi4wM0gweiIvPiYjeGE7CQkJJiN4YTsJCQkJPHBhdGggaWQ9InBhdGgxMTM0MDkiIGlua3NjYXBlOmNvbm5lY3Rvci1jdXJ2YXR1cmU9IjAiIHN0eWxlPSJmaWxsOm5vbmU7c3Ryb2tlOiM0RDRFNEU7c3Ryb2tlLXdpZHRoOjEuNTtzdHJva2UtbWl0ZXJsaW1pdDozOyIgZD0iICAgICBNMCwzNS40N2MzLjI5LDEuMjgsOC4xMiwyLjAzLDEzLjQ5LDIuMDNzMTAuMi0wLjc1LDEzLjUtMi4wMyIvPiYjeGE7CQk8L2c+JiN4YTsJCTxnIGlkPSJzaGFwZTUyNDgtMTciIHRyYW5zZm9ybT0idHJhbnNsYXRlKDQuMzQ5OTksLTYuOTY3NSkiPiYjeGE7CQkJPHRpdGxlIGlkPSJ0aXRsZTExMzQxMiI+cGF0aDk2MjQ8L3RpdGxlPiYjeGE7CQkJPHBhdGggaWQ9InBhdGgxMTM0MTQiIGlua3NjYXBlOmNvbm5lY3Rvci1jdXJ2YXR1cmU9IjAiIHN0eWxlPSJmaWxsOm5vbmU7IiBkPSJNMCwzNy41YzMuMjktMS4yOCw4LjEyLTIuMDMsMTMuNDktMi4wMyAgICAgczEwLjIsMC43NSwxMy41LDIuMDNIMHoiLz4mI3hhOwkJCSYjeGE7CQkJCTxwYXRoIGlkPSJwYXRoMTEzNDE2IiBpbmtzY2FwZTpjb25uZWN0b3ItY3VydmF0dXJlPSIwIiBzdHlsZT0iZmlsbDpub25lO3N0cm9rZTojNEQ0RTRFO3N0cm9rZS13aWR0aDoxLjU7c3Ryb2tlLW1pdGVybGltaXQ6MzsiIGQ9IiAgICAgTTAsMzcuNWMzLjI5LTEuMjgsOC4xMi0yLjAzLDEzLjQ5LTIuMDNzMTAuMiwwLjc1LDEzLjUsMi4wMyIvPiYjeGE7CQk8L2c+JiN4YTsJPC9nPiYjeGE7PC9nPiYjeGE7PC9zdmc+;" vertex="1" parent="1">
          <mxGeometry x="802" y="43" width="36" height="36" as="geometry" />
        </mxCell>
        <mxCell id="pGjpfpKULk_TTckn_0MS-8" value="&lt;p style=&quot;margin-bottom: 0cm&quot;&gt;&lt;font color=&quot;#000080&quot;&gt;&lt;span lang=&quot;zxx&quot;&gt;&lt;u&gt;&lt;a class=&quot;western&quot; href=&quot;https://serviciosweb.soriana.com/CFDIWebServices/RecibeCFD_Fachada/&quot;&gt;&lt;font size=&quot;2&quot;&gt;&lt;span lang=&quot;es-MX&quot;&gt;https://serviciosweb.soriana.com/CFDIWebServices/RecibeCFD_Fachada/&lt;/span&gt;&lt;/font&gt;&lt;/a&gt;&lt;/u&gt;&lt;/span&gt;&lt;/font&gt;&lt;/p&gt;" style="text;html=1;resizable=0;autosize=1;align=center;verticalAlign=middle;points=[];fillColor=none;strokeColor=none;rounded=0;" vertex="1" parent="1">
          <mxGeometry x="595" y="79" width="450" height="30" as="geometry" />
        </mxCell>
        <mxCell id="pGjpfpKULk_TTckn_0MS-9" value="" style="rounded=0;whiteSpace=wrap;html=1;labelBackgroundColor=default;noLabel=1;labelBorderColor=#FF0000;fillColor=none;strokeColor=#FF0000;" vertex="1" parent="1">
          <mxGeometry x="10" y="9" width="1150" height="110" as="geometry" />
        </mxCell>
        <mxCell id="pGjpfpKULk_TTckn_0MS-11" value="&lt;p style=&quot;margin-bottom: 0cm&quot;&gt;&lt;font style=&quot;font-size: 16px&quot;&gt;DMZ&lt;/font&gt;&lt;/p&gt;" style="text;html=1;resizable=0;autosize=1;align=center;verticalAlign=middle;points=[];fillColor=none;strokeColor=none;rounded=0;" vertex="1" parent="1">
          <mxGeometry x="555" y="10" width="50" height="30" as="geometry" />
        </mxCell>
        <mxCell id="pGjpfpKULk_TTckn_0MS-12" value="&lt;p style=&quot;margin-bottom: 0cm&quot;&gt;&lt;font style=&quot;font-size: 16px&quot;&gt;Produccion&lt;/font&gt;&lt;/p&gt;" style="text;html=1;resizable=0;autosize=1;align=center;verticalAlign=middle;points=[];fillColor=none;strokeColor=none;rounded=0;" vertex="1" parent="1">
          <mxGeometry x="11" y="7" width="100" height="30" as="geometry" />
        </mxCell>
        <mxCell id="pGjpfpKULk_TTckn_0MS-13" value="&lt;p style=&quot;margin-bottom: 0cm&quot;&gt;&lt;font style=&quot;font-size: 14px&quot;&gt;Balanceador Externo: CorpFactApp01, CorpFactApp02&lt;/font&gt;&lt;/p&gt;" style="text;html=1;resizable=0;autosize=1;align=center;verticalAlign=middle;points=[];fillColor=none;strokeColor=none;rounded=0;" vertex="1" parent="1">
          <mxGeometry x="804" width="360" height="30" as="geometry" />
        </mxCell>
        <mxCell id="pGjpfpKULk_TTckn_0MS-20" style="edgeStyle=orthogonalEdgeStyle;rounded=0;orthogonalLoop=1;jettySize=auto;html=1;exitX=0;exitY=0.5;exitDx=0;exitDy=0;entryX=1;entryY=0.5;entryDx=0;entryDy=0;fontSize=14;fontColor=none;" edge="1" parent="1" source="pGjpfpKULk_TTckn_0MS-14" target="pGjpfpKULk_TTckn_0MS-5">
          <mxGeometry relative="1" as="geometry" />
        </mxCell>
        <mxCell id="pGjpfpKULk_TTckn_0MS-25" style="edgeStyle=orthogonalEdgeStyle;rounded=0;orthogonalLoop=1;jettySize=auto;html=1;exitX=0.5;exitY=1;exitDx=0;exitDy=0;entryX=0;entryY=0.5;entryDx=0;entryDy=0;fontSize=14;fontColor=none;" edge="1" parent="1" source="pGjpfpKULk_TTckn_0MS-14" target="pGjpfpKULk_TTckn_0MS-23">
          <mxGeometry relative="1" as="geometry" />
        </mxCell>
        <mxCell id="pGjpfpKULk_TTckn_0MS-14" value="" style="shape=image;verticalLabelPosition=bottom;labelBackgroundColor=#ffffff;verticalAlign=top;aspect=fixed;imageAspect=0;image=data:image/svg+xml,PHN2ZyB4bWxuczpjYz0iaHR0cDovL2NyZWF0aXZlY29tbW9ucy5vcmcvbnMjIiB4bWxuczpkYz0iaHR0cDovL3B1cmwub3JnL2RjL2VsZW1lbnRzLzEuMS8iIHhtbG5zOmlua3NjYXBlPSJodHRwOi8vd3d3Lmlua3NjYXBlLm9yZy9uYW1lc3BhY2VzL2lua3NjYXBlIiB4bWxuczpyZGY9Imh0dHA6Ly93d3cudzMub3JnLzE5OTkvMDIvMjItcmRmLXN5bnRheC1ucyMiIHhtbG5zOnNvZGlwb2RpPSJodHRwOi8vc29kaXBvZGkuc291cmNlZm9yZ2UubmV0L0RURC9zb2RpcG9kaS0wLmR0ZCIgeG1sbnM6c3ZnPSJodHRwOi8vd3d3LnczLm9yZy8yMDAwL3N2ZyIgeG1sbnM9Imh0dHA6Ly93d3cudzMub3JnLzIwMDAvc3ZnIiB4bWxuczp4bGluaz0iaHR0cDovL3d3dy53My5vcmcvMTk5OS94bGluayIgdmVyc2lvbj0iMS4xIiBpZD0ic3ZnMTEzNDIyIiBpbmtzY2FwZTp2ZXJzaW9uPSIwLjkyLjMgKDI0MDU1NDYsIDIwMTgtMDMtMTEpIiBzb2RpcG9kaTpkb2NuYW1lPSJ3ZWIuc3ZnIiB4PSIwcHgiIHk9IjBweCIgdmlld0JveD0iMCAwIDM2IDM2IiBzdHlsZT0iZW5hYmxlLWJhY2tncm91bmQ6bmV3IDAgMCAzNiAzNjsiIHhtbDpzcGFjZT0icHJlc2VydmUiPiYjeGE7PHNvZGlwb2RpOm5hbWVkdmlldyBib3JkZXJjb2xvcj0iIzY2NjY2NiIgYm9yZGVyb3BhY2l0eT0iMSIgZml0LW1hcmdpbi1ib3R0b209IjAiIGZpdC1tYXJnaW4tbGVmdD0iMCIgZml0LW1hcmdpbi1yaWdodD0iMCIgZml0LW1hcmdpbi10b3A9IjAiIGdyaWR0b2xlcmFuY2U9IjEwIiBndWlkZXRvbGVyYW5jZT0iMTAiIGlkPSJuYW1lZHZpZXcxMTM0MjQiIGlua3NjYXBlOmN1cnJlbnQtbGF5ZXI9InN2ZzExMzQyMiIgaW5rc2NhcGU6Y3g9IjIzLjYwNDk5IiBpbmtzY2FwZTpjeT0iMjMuOTk5OTc1IiBpbmtzY2FwZTpwYWdlb3BhY2l0eT0iMCIgaW5rc2NhcGU6cGFnZXNoYWRvdz0iMiIgaW5rc2NhcGU6d2luZG93LWhlaWdodD0iMTAxNyIgaW5rc2NhcGU6d2luZG93LW1heGltaXplZD0iMSIgaW5rc2NhcGU6d2luZG93LXdpZHRoPSIxOTIwIiBpbmtzY2FwZTp3aW5kb3cteD0iLTgiIGlua3NjYXBlOndpbmRvdy15PSItOCIgaW5rc2NhcGU6em9vbT0iMTcuMzQwMDExIiBvYmplY3R0b2xlcmFuY2U9IjEwIiBwYWdlY29sb3I9IiNmZmZmZmYiIHNob3dncmlkPSJmYWxzZSI+JiN4YTsJPC9zb2RpcG9kaTpuYW1lZHZpZXc+JiN4YTs8ZyBpZD0iZzExMzQyMCIgdHJhbnNmb3JtPSJ0cmFuc2xhdGUoLTEuMzQyNDksLTAuNzQ3OTIpIj4mI3hhOwk8dGl0bGUgaWQ9InRpdGxlMTEzMzczIj5QYWdlLTE8L3RpdGxlPiYjeGE7CTxnIGlkPSJncm91cDUyNDAtMSIgdHJhbnNmb3JtPSJ0cmFuc2xhdGUoMS41LC0wLjc1KSI+JiN4YTsJCTx0aXRsZSBpZD0idGl0bGUxMTMzNzUiPldlYjwvdGl0bGU+JiN4YTsJCTxnIGlkPSJzaGFwZTUyNDEtMiIgdHJhbnNmb3JtPSJ0cmFuc2xhdGUoNS4zNzk3NCwtNS41MzcyNCkiPiYjeGE7CQkJPHRpdGxlIGlkPSJ0aXRsZTExMzM3NyI+cGF0aDk2MTA8L3RpdGxlPiYjeGE7CQkJPHBhdGggaWQ9InBhdGgxMTMzNzkiIGlua3NjYXBlOmNvbm5lY3Rvci1jdXJ2YXR1cmU9IjAiIHN0eWxlPSJmaWxsOiNGRkZGRkY7IiBkPSJNMzAuMDksMjUuMDRjMCw5LjczLTcuOSwxNy42Mi0xNy42MywxNy42MiAgICAgYy05LjczLDAtMTcuNjItNy45LTE3LjYyLTE3LjYzYzAtOS43Myw3Ljg5LTE3LjYyLDE3LjYyLTE3LjYyQzIyLjE5LDcuNDIsMzAuMDgsMTUuMzEsMzAuMDksMjUuMDR6Ii8+JiN4YTsJCTwvZz4mI3hhOwkJPGcgaWQ9InNoYXBlNTI0Mi00IiB0cmFuc2Zvcm09InRyYW5zbGF0ZSgwLjIxNzQ5MiwtMC4zNzUpIj4mI3hhOwkJCTx0aXRsZSBpZD0idGl0bGUxMTMzODIiPnBhdGg5NjEyPC90aXRsZT4mI3hhOwkJCTxwYXRoIGlkPSJwYXRoMTEzMzg0IiBpbmtzY2FwZTpjb25uZWN0b3ItY3VydmF0dXJlPSIwIiBzdHlsZT0iZmlsbDojRDRFMkY1OyIgZD0iTTM1LjI1LDE5Ljg3YzAsOS43My03Ljg5LDE3LjYzLTE3LjYzLDE3LjYzICAgICBTMCwyOS42LDAsMTkuODdsMCwwSDM1LjI1eiIvPiYjeGE7CQk8L2c+JiN4YTsJCTxnIGlkPSJzaGFwZTUyNDMtNiIgdHJhbnNmb3JtPSJ0cmFuc2xhdGUoMS4zNDI0OSwtNS4yNzIwOCkiPiYjeGE7CQkJPHRpdGxlIGlkPSJ0aXRsZTExMzM4NyI+cGF0aDk2MTQ8L3RpdGxlPiYjeGE7CQkJPHBhdGggaWQ9InBhdGgxMTMzODkiIGlua3NjYXBlOmNvbm5lY3Rvci1jdXJ2YXR1cmU9IjAiIHN0eWxlPSJmaWxsOiM0RDRFNEU7IiBkPSJNMTYuNSw4LjI3YzkuMTEsMCwxNi41LDcuMzksMTYuNSwxNi41ICAgICBzLTcuMzksMTYuNS0xNi41LDE2LjVTMCwzMy44OCwwLDI0Ljc3UzcuMzksOC4yNywxNi41LDguMjd6IE0xNi41LDYuNzdjLTkuOTQsMC0xOCw4LjA2LTE4LDE4czguMDYsMTgsMTgsMThzMTgtOC4wNiwxOC0xOCAgICAgUzI2LjQ0LDYuNzcsMTYuNSw2Ljc3eiIvPiYjeGE7CQk8L2c+JiN4YTsJCTxnIGlkPSJncm91cDUyNDQtOCI+JiN4YTsJCQk8dGl0bGUgaWQ9InRpdGxlMTEzMzkyIj5nOTYyMDwvdGl0bGU+JiN4YTsJCQk8ZyBpZD0ic2hhcGU1MjQ1LTkiIHRyYW5zZm9ybT0idHJhbnNsYXRlKDkuNTkyNDkpIj4mI3hhOwkJCQk8dGl0bGUgaWQ9InRpdGxlMTEzMzk0Ij5wYXRoOTYxNjwvdGl0bGU+JiN4YTsJCQkJPHBhdGggaWQ9InBhdGgxMTMzOTYiIGlua3NjYXBlOmNvbm5lY3Rvci1jdXJ2YXR1cmU9IjAiIHN0eWxlPSJmaWxsOiM0RDRFNEU7IiBkPSJNNy44NywzLjJjMywwLDYuMzgsNy4wMSw2LjM4LDE2LjQgICAgICBjMCw5LjM4LTMuMzgsMTYuNC02LjM4LDE2LjRTMS41LDI4Ljk5LDEuNSwxOS42QzEuNSwxMC4yMiw0Ljg3LDMuMiw3Ljg3LDMuMnogTTcuODcsMS43QzMuNTIsMS43LDAsOS43MSwwLDE5LjYgICAgICBjMCw5Ljg4LDMuNTIsMTcuOSw3Ljg3LDE3LjlzNy44OC04LjAxLDcuODgtMTcuOUMxNS43NSw5LjcyLDEyLjIyLDEuNyw3Ljg3LDEuN3oiLz4mI3hhOwkJCTwvZz4mI3hhOwkJCTxnIGlkPSJzaGFwZTUyNDYtMTEiIHRyYW5zZm9ybT0idHJhbnNsYXRlKDAsLTE4KSI+JiN4YTsJCQkJPHRpdGxlIGlkPSJ0aXRsZTExMzM5OSI+bGluZTk2MTg8L3RpdGxlPiYjeGE7CQkJCSYjeGE7CQkJCQk8cGF0aCBpZD0icGF0aDExMzQwMSIgaW5rc2NhcGU6Y29ubmVjdG9yLWN1cnZhdHVyZT0iMCIgc3R5bGU9ImZpbGw6bm9uZTtzdHJva2U6IzRENEU0RTtzdHJva2Utd2lkdGg6MS41O3N0cm9rZS1taXRlcmxpbWl0OjM7IiBkPSIgICAgICBNMCwzNy41aDM1LjA5Ii8+JiN4YTsJCQk8L2c+JiN4YTsJCTwvZz4mI3hhOwkJPGcgaWQ9InNoYXBlNTI0Ny0xNCIgdHJhbnNmb3JtPSJ0cmFuc2xhdGUoNC4zNDk5OSwtMjcpIj4mI3hhOwkJCTx0aXRsZSBpZD0idGl0bGUxMTM0MDUiPnBhdGg5NjIyPC90aXRsZT4mI3hhOwkJCTxwYXRoIGlkPSJwYXRoMTEzNDA3IiBpbmtzY2FwZTpjb25uZWN0b3ItY3VydmF0dXJlPSIwIiBzdHlsZT0iZmlsbDpub25lOyIgZD0iTTAsMzUuNDdjMy4yOSwxLjI4LDguMTIsMi4wMywxMy40OSwyLjAzICAgICBzMTAuMi0wLjc1LDEzLjUtMi4wM0gweiIvPiYjeGE7CQkJJiN4YTsJCQkJPHBhdGggaWQ9InBhdGgxMTM0MDkiIGlua3NjYXBlOmNvbm5lY3Rvci1jdXJ2YXR1cmU9IjAiIHN0eWxlPSJmaWxsOm5vbmU7c3Ryb2tlOiM0RDRFNEU7c3Ryb2tlLXdpZHRoOjEuNTtzdHJva2UtbWl0ZXJsaW1pdDozOyIgZD0iICAgICBNMCwzNS40N2MzLjI5LDEuMjgsOC4xMiwyLjAzLDEzLjQ5LDIuMDNzMTAuMi0wLjc1LDEzLjUtMi4wMyIvPiYjeGE7CQk8L2c+JiN4YTsJCTxnIGlkPSJzaGFwZTUyNDgtMTciIHRyYW5zZm9ybT0idHJhbnNsYXRlKDQuMzQ5OTksLTYuOTY3NSkiPiYjeGE7CQkJPHRpdGxlIGlkPSJ0aXRsZTExMzQxMiI+cGF0aDk2MjQ8L3RpdGxlPiYjeGE7CQkJPHBhdGggaWQ9InBhdGgxMTM0MTQiIGlua3NjYXBlOmNvbm5lY3Rvci1jdXJ2YXR1cmU9IjAiIHN0eWxlPSJmaWxsOm5vbmU7IiBkPSJNMCwzNy41YzMuMjktMS4yOCw4LjEyLTIuMDMsMTMuNDktMi4wMyAgICAgczEwLjIsMC43NSwxMy41LDIuMDNIMHoiLz4mI3hhOwkJCSYjeGE7CQkJCTxwYXRoIGlkPSJwYXRoMTEzNDE2IiBpbmtzY2FwZTpjb25uZWN0b3ItY3VydmF0dXJlPSIwIiBzdHlsZT0iZmlsbDpub25lO3N0cm9rZTojNEQ0RTRFO3N0cm9rZS13aWR0aDoxLjU7c3Ryb2tlLW1pdGVybGltaXQ6MzsiIGQ9IiAgICAgTTAsMzcuNWMzLjI5LTEuMjgsOC4xMi0yLjAzLDEzLjQ5LTIuMDNzMTAuMiwwLjc1LDEzLjUsMi4wMyIvPiYjeGE7CQk8L2c+JiN4YTsJPC9nPiYjeGE7PC9nPiYjeGE7PC9zdmc+;labelBorderColor=#FF0000;fontSize=14;fontColor=none;strokeColor=#FF0000;fillColor=none;" vertex="1" parent="1">
          <mxGeometry x="562" y="162" width="36" height="36" as="geometry" />
        </mxCell>
        <mxCell id="pGjpfpKULk_TTckn_0MS-15" value="&lt;p style=&quot;margin-bottom: 0cm&quot;&gt;&lt;font color=&quot;#000080&quot;&gt;&lt;span lang=&quot;zxx&quot;&gt;&lt;u&gt;&lt;a class=&quot;western&quot; href=&quot;http://corpcfdi01/cfdiwebservices/RecibeCFD_Orquestador/RecibeCFD_Orquestador.asmx&quot;&gt;&lt;font size=&quot;2&quot;&gt;&lt;span lang=&quot;es-MX&quot;&gt;http://corpcfdi01/cfdiwebservices/RecibeCFD_Orquestador/RecibeCFD_Orquestador.asmx&lt;/span&gt;&lt;/font&gt;&lt;/a&gt;&lt;/u&gt;&lt;/span&gt;&lt;/font&gt;&lt;/p&gt;&lt;p style=&quot;margin-bottom: 0cm&quot;&gt;&lt;u style=&quot;color: rgb(0 , 0 , 128)&quot;&gt;&lt;a class=&quot;western&quot; href=&quot;http://corpcfdi02/cfdiwebservices/RecibeCFD_Orquestador/RecibeCFD_Orquestador.asmx&quot;&gt;&lt;font size=&quot;2&quot;&gt;&lt;span lang=&quot;es-MX&quot;&gt;http://corpcfdi02/cfdiwebservices/RecibeCFD_Orquestador/RecibeCFD_Orquestador.asmx&lt;/span&gt;&lt;/font&gt;&lt;/a&gt;&lt;/u&gt;&lt;/p&gt;" style="text;html=1;resizable=0;autosize=1;align=center;verticalAlign=middle;points=[];fillColor=none;strokeColor=none;rounded=0;" vertex="1" parent="1">
          <mxGeometry x="310" y="185" width="540" height="60" as="geometry" />
        </mxCell>
        <mxCell id="pGjpfpKULk_TTckn_0MS-32" style="edgeStyle=orthogonalEdgeStyle;rounded=0;orthogonalLoop=1;jettySize=auto;html=1;exitX=0.5;exitY=1;exitDx=0;exitDy=0;entryX=0.5;entryY=0;entryDx=0;entryDy=0;fontSize=14;fontColor=none;" edge="1" parent="1" source="pGjpfpKULk_TTckn_0MS-23" target="pGjpfpKULk_TTckn_0MS-29">
          <mxGeometry relative="1" as="geometry" />
        </mxCell>
        <mxCell id="pGjpfpKULk_TTckn_0MS-23" value="" style="shape=image;verticalLabelPosition=bottom;labelBackgroundColor=#ffffff;verticalAlign=top;aspect=fixed;imageAspect=0;image=data:image/svg+xml,PHN2ZyB4bWxuczpjYz0iaHR0cDovL2NyZWF0aXZlY29tbW9ucy5vcmcvbnMjIiB4bWxuczpkYz0iaHR0cDovL3B1cmwub3JnL2RjL2VsZW1lbnRzLzEuMS8iIHhtbG5zOmlua3NjYXBlPSJodHRwOi8vd3d3Lmlua3NjYXBlLm9yZy9uYW1lc3BhY2VzL2lua3NjYXBlIiB4bWxuczpyZGY9Imh0dHA6Ly93d3cudzMub3JnLzE5OTkvMDIvMjItcmRmLXN5bnRheC1ucyMiIHhtbG5zOnNvZGlwb2RpPSJodHRwOi8vc29kaXBvZGkuc291cmNlZm9yZ2UubmV0L0RURC9zb2RpcG9kaS0wLmR0ZCIgeG1sbnM6c3ZnPSJodHRwOi8vd3d3LnczLm9yZy8yMDAwL3N2ZyIgeG1sbnM9Imh0dHA6Ly93d3cudzMub3JnLzIwMDAvc3ZnIiB4bWxuczp4bGluaz0iaHR0cDovL3d3dy53My5vcmcvMTk5OS94bGluayIgdmVyc2lvbj0iMS4xIiBpZD0ic3ZnMTEzNDIyIiBpbmtzY2FwZTp2ZXJzaW9uPSIwLjkyLjMgKDI0MDU1NDYsIDIwMTgtMDMtMTEpIiBzb2RpcG9kaTpkb2NuYW1lPSJ3ZWIuc3ZnIiB4PSIwcHgiIHk9IjBweCIgdmlld0JveD0iMCAwIDM2IDM2IiBzdHlsZT0iZW5hYmxlLWJhY2tncm91bmQ6bmV3IDAgMCAzNiAzNjsiIHhtbDpzcGFjZT0icHJlc2VydmUiPiYjeGE7PHNvZGlwb2RpOm5hbWVkdmlldyBib3JkZXJjb2xvcj0iIzY2NjY2NiIgYm9yZGVyb3BhY2l0eT0iMSIgZml0LW1hcmdpbi1ib3R0b209IjAiIGZpdC1tYXJnaW4tbGVmdD0iMCIgZml0LW1hcmdpbi1yaWdodD0iMCIgZml0LW1hcmdpbi10b3A9IjAiIGdyaWR0b2xlcmFuY2U9IjEwIiBndWlkZXRvbGVyYW5jZT0iMTAiIGlkPSJuYW1lZHZpZXcxMTM0MjQiIGlua3NjYXBlOmN1cnJlbnQtbGF5ZXI9InN2ZzExMzQyMiIgaW5rc2NhcGU6Y3g9IjIzLjYwNDk5IiBpbmtzY2FwZTpjeT0iMjMuOTk5OTc1IiBpbmtzY2FwZTpwYWdlb3BhY2l0eT0iMCIgaW5rc2NhcGU6cGFnZXNoYWRvdz0iMiIgaW5rc2NhcGU6d2luZG93LWhlaWdodD0iMTAxNyIgaW5rc2NhcGU6d2luZG93LW1heGltaXplZD0iMSIgaW5rc2NhcGU6d2luZG93LXdpZHRoPSIxOTIwIiBpbmtzY2FwZTp3aW5kb3cteD0iLTgiIGlua3NjYXBlOndpbmRvdy15PSItOCIgaW5rc2NhcGU6em9vbT0iMTcuMzQwMDExIiBvYmplY3R0b2xlcmFuY2U9IjEwIiBwYWdlY29sb3I9IiNmZmZmZmYiIHNob3dncmlkPSJmYWxzZSI+JiN4YTsJPC9zb2RpcG9kaTpuYW1lZHZpZXc+JiN4YTs8ZyBpZD0iZzExMzQyMCIgdHJhbnNmb3JtPSJ0cmFuc2xhdGUoLTEuMzQyNDksLTAuNzQ3OTIpIj4mI3hhOwk8dGl0bGUgaWQ9InRpdGxlMTEzMzczIj5QYWdlLTE8L3RpdGxlPiYjeGE7CTxnIGlkPSJncm91cDUyNDAtMSIgdHJhbnNmb3JtPSJ0cmFuc2xhdGUoMS41LC0wLjc1KSI+JiN4YTsJCTx0aXRsZSBpZD0idGl0bGUxMTMzNzUiPldlYjwvdGl0bGU+JiN4YTsJCTxnIGlkPSJzaGFwZTUyNDEtMiIgdHJhbnNmb3JtPSJ0cmFuc2xhdGUoNS4zNzk3NCwtNS41MzcyNCkiPiYjeGE7CQkJPHRpdGxlIGlkPSJ0aXRsZTExMzM3NyI+cGF0aDk2MTA8L3RpdGxlPiYjeGE7CQkJPHBhdGggaWQ9InBhdGgxMTMzNzkiIGlua3NjYXBlOmNvbm5lY3Rvci1jdXJ2YXR1cmU9IjAiIHN0eWxlPSJmaWxsOiNGRkZGRkY7IiBkPSJNMzAuMDksMjUuMDRjMCw5LjczLTcuOSwxNy42Mi0xNy42MywxNy42MiAgICAgYy05LjczLDAtMTcuNjItNy45LTE3LjYyLTE3LjYzYzAtOS43Myw3Ljg5LTE3LjYyLDE3LjYyLTE3LjYyQzIyLjE5LDcuNDIsMzAuMDgsMTUuMzEsMzAuMDksMjUuMDR6Ii8+JiN4YTsJCTwvZz4mI3hhOwkJPGcgaWQ9InNoYXBlNTI0Mi00IiB0cmFuc2Zvcm09InRyYW5zbGF0ZSgwLjIxNzQ5MiwtMC4zNzUpIj4mI3hhOwkJCTx0aXRsZSBpZD0idGl0bGUxMTMzODIiPnBhdGg5NjEyPC90aXRsZT4mI3hhOwkJCTxwYXRoIGlkPSJwYXRoMTEzMzg0IiBpbmtzY2FwZTpjb25uZWN0b3ItY3VydmF0dXJlPSIwIiBzdHlsZT0iZmlsbDojRDRFMkY1OyIgZD0iTTM1LjI1LDE5Ljg3YzAsOS43My03Ljg5LDE3LjYzLTE3LjYzLDE3LjYzICAgICBTMCwyOS42LDAsMTkuODdsMCwwSDM1LjI1eiIvPiYjeGE7CQk8L2c+JiN4YTsJCTxnIGlkPSJzaGFwZTUyNDMtNiIgdHJhbnNmb3JtPSJ0cmFuc2xhdGUoMS4zNDI0OSwtNS4yNzIwOCkiPiYjeGE7CQkJPHRpdGxlIGlkPSJ0aXRsZTExMzM4NyI+cGF0aDk2MTQ8L3RpdGxlPiYjeGE7CQkJPHBhdGggaWQ9InBhdGgxMTMzODkiIGlua3NjYXBlOmNvbm5lY3Rvci1jdXJ2YXR1cmU9IjAiIHN0eWxlPSJmaWxsOiM0RDRFNEU7IiBkPSJNMTYuNSw4LjI3YzkuMTEsMCwxNi41LDcuMzksMTYuNSwxNi41ICAgICBzLTcuMzksMTYuNS0xNi41LDE2LjVTMCwzMy44OCwwLDI0Ljc3UzcuMzksOC4yNywxNi41LDguMjd6IE0xNi41LDYuNzdjLTkuOTQsMC0xOCw4LjA2LTE4LDE4czguMDYsMTgsMTgsMThzMTgtOC4wNiwxOC0xOCAgICAgUzI2LjQ0LDYuNzcsMTYuNSw2Ljc3eiIvPiYjeGE7CQk8L2c+JiN4YTsJCTxnIGlkPSJncm91cDUyNDQtOCI+JiN4YTsJCQk8dGl0bGUgaWQ9InRpdGxlMTEzMzkyIj5nOTYyMDwvdGl0bGU+JiN4YTsJCQk8ZyBpZD0ic2hhcGU1MjQ1LTkiIHRyYW5zZm9ybT0idHJhbnNsYXRlKDkuNTkyNDkpIj4mI3hhOwkJCQk8dGl0bGUgaWQ9InRpdGxlMTEzMzk0Ij5wYXRoOTYxNjwvdGl0bGU+JiN4YTsJCQkJPHBhdGggaWQ9InBhdGgxMTMzOTYiIGlua3NjYXBlOmNvbm5lY3Rvci1jdXJ2YXR1cmU9IjAiIHN0eWxlPSJmaWxsOiM0RDRFNEU7IiBkPSJNNy44NywzLjJjMywwLDYuMzgsNy4wMSw2LjM4LDE2LjQgICAgICBjMCw5LjM4LTMuMzgsMTYuNC02LjM4LDE2LjRTMS41LDI4Ljk5LDEuNSwxOS42QzEuNSwxMC4yMiw0Ljg3LDMuMiw3Ljg3LDMuMnogTTcuODcsMS43QzMuNTIsMS43LDAsOS43MSwwLDE5LjYgICAgICBjMCw5Ljg4LDMuNTIsMTcuOSw3Ljg3LDE3LjlzNy44OC04LjAxLDcuODgtMTcuOUMxNS43NSw5LjcyLDEyLjIyLDEuNyw3Ljg3LDEuN3oiLz4mI3hhOwkJCTwvZz4mI3hhOwkJCTxnIGlkPSJzaGFwZTUyNDYtMTEiIHRyYW5zZm9ybT0idHJhbnNsYXRlKDAsLTE4KSI+JiN4YTsJCQkJPHRpdGxlIGlkPSJ0aXRsZTExMzM5OSI+bGluZTk2MTg8L3RpdGxlPiYjeGE7CQkJCSYjeGE7CQkJCQk8cGF0aCBpZD0icGF0aDExMzQwMSIgaW5rc2NhcGU6Y29ubmVjdG9yLWN1cnZhdHVyZT0iMCIgc3R5bGU9ImZpbGw6bm9uZTtzdHJva2U6IzRENEU0RTtzdHJva2Utd2lkdGg6MS41O3N0cm9rZS1taXRlcmxpbWl0OjM7IiBkPSIgICAgICBNMCwzNy41aDM1LjA5Ii8+JiN4YTsJCQk8L2c+JiN4YTsJCTwvZz4mI3hhOwkJPGcgaWQ9InNoYXBlNTI0Ny0xNCIgdHJhbnNmb3JtPSJ0cmFuc2xhdGUoNC4zNDk5OSwtMjcpIj4mI3hhOwkJCTx0aXRsZSBpZD0idGl0bGUxMTM0MDUiPnBhdGg5NjIyPC90aXRsZT4mI3hhOwkJCTxwYXRoIGlkPSJwYXRoMTEzNDA3IiBpbmtzY2FwZTpjb25uZWN0b3ItY3VydmF0dXJlPSIwIiBzdHlsZT0iZmlsbDpub25lOyIgZD0iTTAsMzUuNDdjMy4yOSwxLjI4LDguMTIsMi4wMywxMy40OSwyLjAzICAgICBzMTAuMi0wLjc1LDEzLjUtMi4wM0gweiIvPiYjeGE7CQkJJiN4YTsJCQkJPHBhdGggaWQ9InBhdGgxMTM0MDkiIGlua3NjYXBlOmNvbm5lY3Rvci1jdXJ2YXR1cmU9IjAiIHN0eWxlPSJmaWxsOm5vbmU7c3Ryb2tlOiM0RDRFNEU7c3Ryb2tlLXdpZHRoOjEuNTtzdHJva2UtbWl0ZXJsaW1pdDozOyIgZD0iICAgICBNMCwzNS40N2MzLjI5LDEuMjgsOC4xMiwyLjAzLDEzLjQ5LDIuMDNzMTAuMi0wLjc1LDEzLjUtMi4wMyIvPiYjeGE7CQk8L2c+JiN4YTsJCTxnIGlkPSJzaGFwZTUyNDgtMTciIHRyYW5zZm9ybT0idHJhbnNsYXRlKDQuMzQ5OTksLTYuOTY3NSkiPiYjeGE7CQkJPHRpdGxlIGlkPSJ0aXRsZTExMzQxMiI+cGF0aDk2MjQ8L3RpdGxlPiYjeGE7CQkJPHBhdGggaWQ9InBhdGgxMTM0MTQiIGlua3NjYXBlOmNvbm5lY3Rvci1jdXJ2YXR1cmU9IjAiIHN0eWxlPSJmaWxsOm5vbmU7IiBkPSJNMCwzNy41YzMuMjktMS4yOCw4LjEyLTIuMDMsMTMuNDktMi4wMyAgICAgczEwLjIsMC43NSwxMy41LDIuMDNIMHoiLz4mI3hhOwkJCSYjeGE7CQkJCTxwYXRoIGlkPSJwYXRoMTEzNDE2IiBpbmtzY2FwZTpjb25uZWN0b3ItY3VydmF0dXJlPSIwIiBzdHlsZT0iZmlsbDpub25lO3N0cm9rZTojNEQ0RTRFO3N0cm9rZS13aWR0aDoxLjU7c3Ryb2tlLW1pdGVybGltaXQ6MzsiIGQ9IiAgICAgTTAsMzcuNWMzLjI5LTEuMjgsOC4xMi0yLjAzLDEzLjQ5LTIuMDNzMTAuMiwwLjc1LDEzLjUsMi4wMyIvPiYjeGE7CQk8L2c+JiN4YTsJPC9nPiYjeGE7PC9nPiYjeGE7PC9zdmc+;labelBorderColor=#FF0000;fontSize=14;fontColor=none;strokeColor=#FF0000;fillColor=none;" vertex="1" parent="1">
          <mxGeometry x="882" y="322" width="36" height="36" as="geometry" />
        </mxCell>
        <mxCell id="pGjpfpKULk_TTckn_0MS-24" value="&lt;p style=&quot;margin-bottom: 0cm&quot;&gt;&lt;font color=&quot;#000080&quot;&gt;&lt;span lang=&quot;zxx&quot;&gt;&lt;u&gt;&lt;a class=&quot;western&quot; href=&quot;http://corpcfdi01/CFDIWebServices/RecibeCFD_ValidadorTDC/RecibeCFD_ValidadorTDC.asmx&quot;&gt;&lt;font size=&quot;2&quot;&gt;&lt;span lang=&quot;es-MX&quot;&gt;http://corpcfdi01/CFDIWebServices/RecibeCFD_ValidadorTDC/RecibeCFD_ValidadorTDC.asmx&lt;/span&gt;&lt;/font&gt;&lt;/a&gt;&lt;/u&gt;&lt;/span&gt;&lt;/font&gt;&lt;/p&gt;&lt;br/&gt;&lt;p style=&quot;margin-bottom: 0cm&quot;&gt;&lt;font color=&quot;#000080&quot;&gt;&lt;span lang=&quot;zxx&quot;&gt;&lt;u&gt;&lt;a class=&quot;western&quot; href=&quot;http://corpcfdi02/CFDIWebServices/RecibeCFD_ValidadorTDC/RecibeCFD_ValidadorTDC.asmx&quot;&gt;&lt;font size=&quot;2&quot;&gt;&lt;span lang=&quot;es-MX&quot;&gt;http://corpcfdi02/CFDIWebServices/RecibeCFD_ValidadorTDC/RecibeCFD_ValidadorTDC.asmx&lt;/span&gt;&lt;/font&gt;&lt;/a&gt;&lt;/u&gt;&lt;/span&gt;&lt;/font&gt;&lt;/p&gt;" style="text;html=1;resizable=0;autosize=1;align=center;verticalAlign=middle;points=[];fillColor=none;strokeColor=none;rounded=0;" vertex="1" parent="1">
          <mxGeometry x="599" y="349" width="570" height="70" as="geometry" />
        </mxCell>
        <mxCell id="pGjpfpKULk_TTckn_0MS-26" value="&lt;p style=&quot;margin-bottom: 0cm&quot;&gt;&lt;font style=&quot;font-size: 16px&quot;&gt;Facturas Ingreso (I)&lt;/font&gt;&lt;/p&gt;" style="text;html=1;resizable=0;autosize=1;align=center;verticalAlign=middle;points=[];fillColor=none;strokeColor=none;rounded=0;" vertex="1" parent="1">
          <mxGeometry x="255" y="9" width="160" height="30" as="geometry" />
        </mxCell>
        <mxCell id="pGjpfpKULk_TTckn_0MS-27" value="&lt;p style=&quot;margin-bottom: 0cm&quot;&gt;&lt;font style=&quot;font-size: 16px&quot;&gt;Complementos de Pago (P&lt;/font&gt;&lt;span style=&quot;font-size: 16px&quot;&gt;)&lt;/span&gt;&lt;/p&gt;&lt;p style=&quot;margin-bottom: 0cm&quot;&gt;&lt;span style=&quot;font-size: 16px&quot;&gt;Notas de Credito (E)&lt;/span&gt;&lt;/p&gt;" style="text;html=1;resizable=0;autosize=1;align=center;verticalAlign=middle;points=[];fillColor=none;strokeColor=none;rounded=0;" vertex="1" parent="1">
          <mxGeometry x="893" y="285" width="210" height="60" as="geometry" />
        </mxCell>
        <mxCell id="pGjpfpKULk_TTckn_0MS-29" value="" style="shape=image;verticalLabelPosition=bottom;labelBackgroundColor=#ffffff;verticalAlign=top;aspect=fixed;imageAspect=0;image=data:image/svg+xml,PHN2ZyB4bWxuczpjYz0iaHR0cDovL2NyZWF0aXZlY29tbW9ucy5vcmcvbnMjIiB4bWxuczpkYz0iaHR0cDovL3B1cmwub3JnL2RjL2VsZW1lbnRzLzEuMS8iIHhtbG5zOmlua3NjYXBlPSJodHRwOi8vd3d3Lmlua3NjYXBlLm9yZy9uYW1lc3BhY2VzL2lua3NjYXBlIiB4bWxuczpyZGY9Imh0dHA6Ly93d3cudzMub3JnLzE5OTkvMDIvMjItcmRmLXN5bnRheC1ucyMiIHhtbG5zOnNvZGlwb2RpPSJodHRwOi8vc29kaXBvZGkuc291cmNlZm9yZ2UubmV0L0RURC9zb2RpcG9kaS0wLmR0ZCIgeG1sbnM6c3ZnPSJodHRwOi8vd3d3LnczLm9yZy8yMDAwL3N2ZyIgeG1sbnM9Imh0dHA6Ly93d3cudzMub3JnLzIwMDAvc3ZnIiB4bWxuczp4bGluaz0iaHR0cDovL3d3dy53My5vcmcvMTk5OS94bGluayIgdmVyc2lvbj0iMS4xIiBpZD0ic3ZnMTA0Nzg1IiBpbmtzY2FwZTp2ZXJzaW9uPSIwLjkyLjMgKDI0MDU1NDYsIDIwMTgtMDMtMTEpIiBzb2RpcG9kaTpkb2NuYW1lPSJzcWxfMS5zdmciIHg9IjBweCIgeT0iMHB4IiB2aWV3Qm94PSIwIDAgNDEuNDkgNTUuMzIiIHN0eWxlPSJlbmFibGUtYmFja2dyb3VuZDpuZXcgMCAwIDQxLjQ5IDU1LjMyOyIgeG1sOnNwYWNlPSJwcmVzZXJ2ZSI+JiN4YTs8c29kaXBvZGk6bmFtZWR2aWV3IGJvcmRlcmNvbG9yPSIjNjY2NjY2IiBib3JkZXJvcGFjaXR5PSIxIiBmaXQtbWFyZ2luLWJvdHRvbT0iMCIgZml0LW1hcmdpbi1sZWZ0PSIwIiBmaXQtbWFyZ2luLXJpZ2h0PSIwIiBmaXQtbWFyZ2luLXRvcD0iMCIgZ3JpZHRvbGVyYW5jZT0iMTAiIGd1aWRldG9sZXJhbmNlPSIxMCIgaWQ9Im5hbWVkdmlldzEwNDc4NyIgaW5rc2NhcGU6Y3VycmVudC1sYXllcj0ic3ZnMTA0Nzg1IiBpbmtzY2FwZTpjeD0iMjcuNjU4MDc3IiBpbmtzY2FwZTpjeT0iLTUuMjgzNDUyIiBpbmtzY2FwZTpwYWdlb3BhY2l0eT0iMCIgaW5rc2NhcGU6cGFnZXNoYWRvdz0iMiIgaW5rc2NhcGU6d2luZG93LWhlaWdodD0iMTAxNyIgaW5rc2NhcGU6d2luZG93LW1heGltaXplZD0iMSIgaW5rc2NhcGU6d2luZG93LXdpZHRoPSIxOTIwIiBpbmtzY2FwZTp3aW5kb3cteD0iLTgiIGlua3NjYXBlOndpbmRvdy15PSItOCIgaW5rc2NhcGU6em9vbT0iNS4zNTM0MDYyIiBvYmplY3R0b2xlcmFuY2U9IjEwIiBwYWdlY29sb3I9IiNmZmZmZmYiIHNob3dncmlkPSJmYWxzZSI+JiN4YTsJPC9zb2RpcG9kaTpuYW1lZHZpZXc+JiN4YTs8ZyBpZD0iZzEwNDc4MyIgdHJhbnNmb3JtPSJ0cmFuc2xhdGUoLTQ4LjI1OTksLTEuNDQ5ODg4OSkiPiYjeGE7CTx0aXRsZSBpZD0idGl0bGUxMDQ3NjgiPlBhZ2UtMTwvdGl0bGU+JiN4YTsJPGcgaWQ9Imdyb3VwMzYxNi0xIiB0cmFuc2Zvcm09InRyYW5zbGF0ZSg0OC4yNTk5LC02NC42OTA2KSI+JiN4YTsJCTx0aXRsZSBpZD0idGl0bGUxMDQ3NzAiPlNRTCAjMTwvdGl0bGU+JiN4YTsJCTxnIGlkPSJzaGFwZTM2MTctMiIgdHJhbnNmb3JtPSJ0cmFuc2xhdGUoMTguODk5NywtMjIuODk2MSkiPiYjeGE7CQkJPHRpdGxlIGlkPSJ0aXRsZTEwNDc3MiI+U2hlZXQuMzYxNzwvdGl0bGU+JiN4YTsJCQk8cGF0aCBpZD0icGF0aDEwNDc3NCIgaW5rc2NhcGU6Y29ubmVjdG9yLWN1cnZhdHVyZT0iMCIgc3R5bGU9ImZpbGw6IzNGNTc2NTsiIGQ9Ik0zLjYxLDExNi41NmMtMC4xNS0wLjI3LTAuMzctMC40OS0wLjYyLTAuNjUgICAgIGMtMC4yMy0wLjE1LTAuNTMtMC4yNC0wLjg4LTAuMjRjLTAuMzYsMC0wLjcsMC4wOS0wLjk2LDAuMjRjLTAuMjcsMC4xNi0wLjQ4LDAuMzYtMC42NywwLjYzYy0wLjE2LDAuMjctMC4yOCwwLjU2LTAuMzYsMC45MyAgICAgQzAuMDMsMTE3LjgyLDAsMTE4LjE5LDAsMTE4LjU5YzAsMC41MSwwLjA1LDAuOTQsMC4xNywxLjMxYzAuMTEsMC4zNywwLjI2LDAuNjcsMC40NSwwLjljMC4xOCwwLjIzLDAuMzksMC40LDAuNjQsMC41ICAgICBjMC4yNSwwLjExLDAuNTIsMC4xNiwwLjgsMC4xNmMwLjI3LDAsMC41Mi0wLjA1LDAuNzUtMC4xNmMwLjI1LTAuMSwwLjQ3LTAuMjksMC42NS0wLjUyYzAuMi0wLjIxLDAuMzUtMC41MSwwLjQ2LTAuODggICAgIGMwLjEtMC4zNSwwLjE3LTAuNzYsMC4xNy0xLjI2YzAtMC40LTAuMDMtMC43OS0wLjEyLTEuMTNDMy44OSwxMTcuMTQsMy43OCwxMTYuODIsMy42MSwxMTYuNTZ6Ii8+JiN4YTsJCTwvZz4mI3hhOwkJPGcgaWQ9InNoYXBlMzYxOC00Ij4mI3hhOwkJCTx0aXRsZSBpZD0idGl0bGUxMDQ3NzciPlNoZWV0LjM2MTg8L3RpdGxlPiYjeGE7CQkJPHBhdGggaWQ9InBhdGgxMDQ3NzkiIGlua3NjYXBlOmNvbm5lY3Rvci1jdXJ2YXR1cmU9IjAiIHN0eWxlPSJmaWxsOiMzRjU3NjU7IiBkPSJNMjAuNzMsNjYuMTRDOS4yOCw2Ni4xNCwwLDcwLjA1LDAsNzQuMzR2MzguNzkgICAgIGMwLDQuMjksOS4yOCw4LjMzLDIwLjczLDguMzNjMTEuNDYsMCwyMC43Ni0zLjg2LDIwLjc2LTguMTVWNzQuNTZDNDEuNDksNzAuMjUsMzIuMTksNjYuMTQsMjAuNzMsNjYuMTR6IE0xNC41MSw5OC42NiAgICAgYy0wLjA1LDAuMjgtMC4xNSwwLjU1LTAuMywwLjgxYy0wLjE0LDAuMjctMC4zMywwLjUyLTAuNTcsMC43NWMtMC4yMywwLjIzLTAuNTMsMC40NS0wLjksMC42M2MtMC4zNSwwLjE5LTAuNzgsMC4zMi0xLjI2LDAuNDIgICAgIGMtMC41LDAuMTItMS4wNiwwLjE3LTEuNzEsMC4xN2MtMC4zNSwwLTAuNjgtMC4wMi0xLTAuMDdjLTAuMzItMC4wMy0wLjYtMC4wNy0wLjg4LTAuMTNjLTAuMjctMC4wNS0wLjUyLTAuMTItMC43My0wLjE5ICAgICBjLTAuMjQtMC4wNi0wLjQyLTAuMTUtMC41OS0wLjIxdi0zLjA1YzAuMTksMC4xNCwwLjQsMC4yOSwwLjY1LDAuNDJjMC4yNCwwLjEzLDAuNSwwLjI1LDAuNzcsMC4zNmMwLjI2LDAuMSwwLjU1LDAuMTksMC44NSwwLjI1ICAgICBjMC4yOCwwLjA5LDAuNTYsMC4xMiwwLjg0LDAuMTJjMC4yNCwwLDAuNDQtMC4wMywwLjU5LTAuMDhjMC4xNS0wLjA0LDAuMjYtMC4xLDAuMzUtMC4xOWMwLjA4LTAuMDYsMC4xNC0wLjE0LDAuMTgtMC4yMyAgICAgYzAuMDMtMC4xLDAuMDUtMC4xOCwwLjA1LTAuMjhjMC0wLjE3LTAuMDUtMC4zMi0wLjE0LTAuNDVjLTAuMDgtMC4xMi0wLjItMC4yMy0wLjM1LTAuMzNjLTAuMTYtMC4xLTAuMzQtMC4yLTAuNTQtMC4yOSAgICAgQzkuNiw5Nyw5LjM1LDk2LjkxLDkuMSw5Ni44MWMtMC40OC0wLjE4LTAuOS0wLjQtMS4yNS0wLjY1Yy0wLjMzLTAuMjUtMC42MS0wLjUtMC44My0wLjc4Yy0wLjIyLTAuMjgtMC4zNy0wLjYtMC40Ny0wLjkxICAgICBjLTAuMS0wLjMyLTAuMTUtMC42NS0wLjE1LTFjMC0wLjU1LDAuMTItMS4wMywwLjM0LTEuNDhjMC4yMS0wLjQzLDAuNTMtMC44LDAuOTEtMS4xMmMwLjQtMC4yOSwwLjg4LTAuNTQsMS40My0wLjY5ICAgICBjMC41NS0wLjE3LDEuMTctMC4yNSwxLjg1LTAuMjVjMC4zOCwwLDAuNzEsMC4wMSwxLjAzLDAuMDNjMC4zMSwwLjAzLDAuNiwwLjA2LDAuODUsMC4xMmMwLjI1LDAuMDMsMC40NiwwLjA4LDAuNjYsMC4xMyAgICAgYzAuMiwwLjA1LDAuMzgsMC4xLDAuNTMsMC4xNXYyLjgzYy0wLjE2LTAuMDktMC4zMy0wLjE5LTAuNTUtMC4yN2MtMC4yLTAuMS0wLjQxLTAuMTgtMC42NC0wLjI1Yy0wLjI0LTAuMDgtMC40OS0wLjEzLTAuNzUtMC4xOCAgICAgYy0wLjI3LTAuMDUtMC41NC0wLjA3LTAuODItMC4wN2MtMC4zNiwwLTAuNjYsMC4wNy0wLjksMC4yYy0wLjIzLDAuMTUtMC4zNSwwLjMzLTAuMzUsMC41OGMwLDAuMTIsMC4wNCwwLjI0LDAuMDksMC4zNCAgICAgczAuMTMsMC4xOCwwLjIzLDAuMjZjMC4xMiwwLjA5LDAuMjcsMC4xOSwwLjQ1LDAuMjdjMC4xOCwwLjEsMC40LDAuMiwwLjY2LDAuM2MwLjQ3LDAuMTgsMC44OSwwLjM4LDEuMjksMC42ICAgICBjMC4zOCwwLjIxLDAuNzEsMC40NiwwLjk5LDAuNzRjMC4yOSwwLjI3LDAuNSwwLjU5LDAuNjUsMC45NGMwLjE3LDAuMzUsMC4yNSwwLjc2LDAuMjUsMS4yMyAgICAgQzE0LjYxLDk4LjEzLDE0LjU3LDk4LjM5LDE0LjUxLDk4LjY2eiBNMjIuOTQsMTA0LjA2bC0yLjQ1LTIuNjJjLTAuNzEtMC4wNS0xLjM4LTAuMjItMS45OS0wLjQ5Yy0wLjY0LTAuMjgtMS4xOC0wLjY1LTEuNjUtMS4xMyAgICAgYy0wLjQ3LTAuNDgtMC44My0xLjA1LTEuMTEtMS43M2MtMC4yNy0wLjY2LTAuNC0xLjQzLTAuNC0yLjI2YzAtMC44OCwwLjEzLTEuNjgsMC40MS0yLjRjMC4yOC0wLjczLDAuNjctMS4zNCwxLjE4LTEuODYgICAgIGMwLjUtMC41MywxLjEtMC45MywxLjgtMS4yMWMwLjctMC4yOSwxLjQ4LTAuNDQsMi4zMS0wLjQ0YzAuOCwwLDEuNTMsMC4xNCwyLjIxLDAuNGMwLjY3LDAuMjcsMS4yNSwwLjY1LDEuNzMsMS4xNSAgICAgYzAuNDksMC40OSwwLjg3LDEuMDgsMS4xNSwxLjhjMC4yNywwLjcsMC40LDEuNSwwLjQsMi4zOGMwLDAuNjMtMC4wNywxLjIzLTAuMjMsMS43OGMtMC4xNSwwLjU1LTAuMzcsMS4wNS0wLjY1LDEuNDggICAgIGMtMC4yNywwLjQ1LTAuNiwwLjgzLTAuOTcsMS4xNmMtMC4zOCwwLjM0LTAuNzgsMC42LTEuMjMsMC44bDMuNzUsMy4yaC00LjI2VjEwNC4wNnogTTM1LjMsMTAxLjI0aC03LjE5VjkwLjExaDMuMzZ2OC41aDMuODMgICAgIFYxMDEuMjR6IE0yMC43MSw3OC4xNmMtOC4xNSwwLTE0Ljc3LTIuMDEtMTQuNzctNC41MmMwLTIuNTEsNi42Mi00LjUyLDE0Ljc3LTQuNTJjOC4xNywwLDE0Ljc5LDIuMDEsMTQuNzksNC41MiAgICAgQzM1LjUsNzYuMTUsMjguODgsNzguMTYsMjAuNzEsNzguMTZ6Ii8+JiN4YTsJCTwvZz4mI3hhOwk8L2c+JiN4YTs8L2c+JiN4YTs8L3N2Zz4=;labelBorderColor=#FF0000;fontSize=14;fontColor=none;strokeColor=#FF0000;fillColor=none;" vertex="1" parent="1">
          <mxGeometry x="886" y="442" width="28.33" height="38" as="geometry" />
        </mxCell>
        <mxCell id="pGjpfpKULk_TTckn_0MS-30" value="&lt;p style=&quot;margin-bottom: 0cm&quot;&gt;&lt;font color=&quot;#000000&quot;&gt;&lt;font size=&quot;2&quot;&gt;Srv: srvEcom&lt;/font&gt;&lt;/font&gt;&lt;/p&gt;&lt;p style=&quot;margin-bottom: 0cm&quot;&gt;&lt;span style=&quot;font-size: small&quot;&gt;DB:&lt;/span&gt;&lt;span style=&quot;font-size: small&quot;&gt;AdmRecCFDiProdDB&lt;/span&gt;&lt;/p&gt;" style="text;html=1;resizable=0;autosize=1;align=center;verticalAlign=middle;points=[];fillColor=none;strokeColor=none;rounded=0;" vertex="1" parent="1">
          <mxGeometry x="817.4" y="464" width="160" height="60" as="geometry" />
        </mxCell>
        <mxCell id="pGjpfpKULk_TTckn_0MS-33" value="" style="shape=image;verticalLabelPosition=bottom;labelBackgroundColor=#ffffff;verticalAlign=top;aspect=fixed;imageAspect=0;image=data:image/svg+xml,PHN2ZyB4bWxuczpjYz0iaHR0cDovL2NyZWF0aXZlY29tbW9ucy5vcmcvbnMjIiB4bWxuczpkYz0iaHR0cDovL3B1cmwub3JnL2RjL2VsZW1lbnRzLzEuMS8iIHhtbG5zOmlua3NjYXBlPSJodHRwOi8vd3d3Lmlua3NjYXBlLm9yZy9uYW1lc3BhY2VzL2lua3NjYXBlIiB4bWxuczpyZGY9Imh0dHA6Ly93d3cudzMub3JnLzE5OTkvMDIvMjItcmRmLXN5bnRheC1ucyMiIHhtbG5zOnNvZGlwb2RpPSJodHRwOi8vc29kaXBvZGkuc291cmNlZm9yZ2UubmV0L0RURC9zb2RpcG9kaS0wLmR0ZCIgeG1sbnM6c3ZnPSJodHRwOi8vd3d3LnczLm9yZy8yMDAwL3N2ZyIgeG1sbnM9Imh0dHA6Ly93d3cudzMub3JnLzIwMDAvc3ZnIiB4bWxuczp4bGluaz0iaHR0cDovL3d3dy53My5vcmcvMTk5OS94bGluayIgdmVyc2lvbj0iMS4xIiBpZD0ic3ZnMTA0Nzg1IiBpbmtzY2FwZTp2ZXJzaW9uPSIwLjkyLjMgKDI0MDU1NDYsIDIwMTgtMDMtMTEpIiBzb2RpcG9kaTpkb2NuYW1lPSJzcWxfMS5zdmciIHg9IjBweCIgeT0iMHB4IiB2aWV3Qm94PSIwIDAgNDEuNDkgNTUuMzIiIHN0eWxlPSJlbmFibGUtYmFja2dyb3VuZDpuZXcgMCAwIDQxLjQ5IDU1LjMyOyIgeG1sOnNwYWNlPSJwcmVzZXJ2ZSI+JiN4YTs8c29kaXBvZGk6bmFtZWR2aWV3IGJvcmRlcmNvbG9yPSIjNjY2NjY2IiBib3JkZXJvcGFjaXR5PSIxIiBmaXQtbWFyZ2luLWJvdHRvbT0iMCIgZml0LW1hcmdpbi1sZWZ0PSIwIiBmaXQtbWFyZ2luLXJpZ2h0PSIwIiBmaXQtbWFyZ2luLXRvcD0iMCIgZ3JpZHRvbGVyYW5jZT0iMTAiIGd1aWRldG9sZXJhbmNlPSIxMCIgaWQ9Im5hbWVkdmlldzEwNDc4NyIgaW5rc2NhcGU6Y3VycmVudC1sYXllcj0ic3ZnMTA0Nzg1IiBpbmtzY2FwZTpjeD0iMjcuNjU4MDc3IiBpbmtzY2FwZTpjeT0iLTUuMjgzNDUyIiBpbmtzY2FwZTpwYWdlb3BhY2l0eT0iMCIgaW5rc2NhcGU6cGFnZXNoYWRvdz0iMiIgaW5rc2NhcGU6d2luZG93LWhlaWdodD0iMTAxNyIgaW5rc2NhcGU6d2luZG93LW1heGltaXplZD0iMSIgaW5rc2NhcGU6d2luZG93LXdpZHRoPSIxOTIwIiBpbmtzY2FwZTp3aW5kb3cteD0iLTgiIGlua3NjYXBlOndpbmRvdy15PSItOCIgaW5rc2NhcGU6em9vbT0iNS4zNTM0MDYyIiBvYmplY3R0b2xlcmFuY2U9IjEwIiBwYWdlY29sb3I9IiNmZmZmZmYiIHNob3dncmlkPSJmYWxzZSI+JiN4YTsJPC9zb2RpcG9kaTpuYW1lZHZpZXc+JiN4YTs8ZyBpZD0iZzEwNDc4MyIgdHJhbnNmb3JtPSJ0cmFuc2xhdGUoLTQ4LjI1OTksLTEuNDQ5ODg4OSkiPiYjeGE7CTx0aXRsZSBpZD0idGl0bGUxMDQ3NjgiPlBhZ2UtMTwvdGl0bGU+JiN4YTsJPGcgaWQ9Imdyb3VwMzYxNi0xIiB0cmFuc2Zvcm09InRyYW5zbGF0ZSg0OC4yNTk5LC02NC42OTA2KSI+JiN4YTsJCTx0aXRsZSBpZD0idGl0bGUxMDQ3NzAiPlNRTCAjMTwvdGl0bGU+JiN4YTsJCTxnIGlkPSJzaGFwZTM2MTctMiIgdHJhbnNmb3JtPSJ0cmFuc2xhdGUoMTguODk5NywtMjIuODk2MSkiPiYjeGE7CQkJPHRpdGxlIGlkPSJ0aXRsZTEwNDc3MiI+U2hlZXQuMzYxNzwvdGl0bGU+JiN4YTsJCQk8cGF0aCBpZD0icGF0aDEwNDc3NCIgaW5rc2NhcGU6Y29ubmVjdG9yLWN1cnZhdHVyZT0iMCIgc3R5bGU9ImZpbGw6IzNGNTc2NTsiIGQ9Ik0zLjYxLDExNi41NmMtMC4xNS0wLjI3LTAuMzctMC40OS0wLjYyLTAuNjUgICAgIGMtMC4yMy0wLjE1LTAuNTMtMC4yNC0wLjg4LTAuMjRjLTAuMzYsMC0wLjcsMC4wOS0wLjk2LDAuMjRjLTAuMjcsMC4xNi0wLjQ4LDAuMzYtMC42NywwLjYzYy0wLjE2LDAuMjctMC4yOCwwLjU2LTAuMzYsMC45MyAgICAgQzAuMDMsMTE3LjgyLDAsMTE4LjE5LDAsMTE4LjU5YzAsMC41MSwwLjA1LDAuOTQsMC4xNywxLjMxYzAuMTEsMC4zNywwLjI2LDAuNjcsMC40NSwwLjljMC4xOCwwLjIzLDAuMzksMC40LDAuNjQsMC41ICAgICBjMC4yNSwwLjExLDAuNTIsMC4xNiwwLjgsMC4xNmMwLjI3LDAsMC41Mi0wLjA1LDAuNzUtMC4xNmMwLjI1LTAuMSwwLjQ3LTAuMjksMC42NS0wLjUyYzAuMi0wLjIxLDAuMzUtMC41MSwwLjQ2LTAuODggICAgIGMwLjEtMC4zNSwwLjE3LTAuNzYsMC4xNy0xLjI2YzAtMC40LTAuMDMtMC43OS0wLjEyLTEuMTNDMy44OSwxMTcuMTQsMy43OCwxMTYuODIsMy42MSwxMTYuNTZ6Ii8+JiN4YTsJCTwvZz4mI3hhOwkJPGcgaWQ9InNoYXBlMzYxOC00Ij4mI3hhOwkJCTx0aXRsZSBpZD0idGl0bGUxMDQ3NzciPlNoZWV0LjM2MTg8L3RpdGxlPiYjeGE7CQkJPHBhdGggaWQ9InBhdGgxMDQ3NzkiIGlua3NjYXBlOmNvbm5lY3Rvci1jdXJ2YXR1cmU9IjAiIHN0eWxlPSJmaWxsOiMzRjU3NjU7IiBkPSJNMjAuNzMsNjYuMTRDOS4yOCw2Ni4xNCwwLDcwLjA1LDAsNzQuMzR2MzguNzkgICAgIGMwLDQuMjksOS4yOCw4LjMzLDIwLjczLDguMzNjMTEuNDYsMCwyMC43Ni0zLjg2LDIwLjc2LTguMTVWNzQuNTZDNDEuNDksNzAuMjUsMzIuMTksNjYuMTQsMjAuNzMsNjYuMTR6IE0xNC41MSw5OC42NiAgICAgYy0wLjA1LDAuMjgtMC4xNSwwLjU1LTAuMywwLjgxYy0wLjE0LDAuMjctMC4zMywwLjUyLTAuNTcsMC43NWMtMC4yMywwLjIzLTAuNTMsMC40NS0wLjksMC42M2MtMC4zNSwwLjE5LTAuNzgsMC4zMi0xLjI2LDAuNDIgICAgIGMtMC41LDAuMTItMS4wNiwwLjE3LTEuNzEsMC4xN2MtMC4zNSwwLTAuNjgtMC4wMi0xLTAuMDdjLTAuMzItMC4wMy0wLjYtMC4wNy0wLjg4LTAuMTNjLTAuMjctMC4wNS0wLjUyLTAuMTItMC43My0wLjE5ICAgICBjLTAuMjQtMC4wNi0wLjQyLTAuMTUtMC41OS0wLjIxdi0zLjA1YzAuMTksMC4xNCwwLjQsMC4yOSwwLjY1LDAuNDJjMC4yNCwwLjEzLDAuNSwwLjI1LDAuNzcsMC4zNmMwLjI2LDAuMSwwLjU1LDAuMTksMC44NSwwLjI1ICAgICBjMC4yOCwwLjA5LDAuNTYsMC4xMiwwLjg0LDAuMTJjMC4yNCwwLDAuNDQtMC4wMywwLjU5LTAuMDhjMC4xNS0wLjA0LDAuMjYtMC4xLDAuMzUtMC4xOWMwLjA4LTAuMDYsMC4xNC0wLjE0LDAuMTgtMC4yMyAgICAgYzAuMDMtMC4xLDAuMDUtMC4xOCwwLjA1LTAuMjhjMC0wLjE3LTAuMDUtMC4zMi0wLjE0LTAuNDVjLTAuMDgtMC4xMi0wLjItMC4yMy0wLjM1LTAuMzNjLTAuMTYtMC4xLTAuMzQtMC4yLTAuNTQtMC4yOSAgICAgQzkuNiw5Nyw5LjM1LDk2LjkxLDkuMSw5Ni44MWMtMC40OC0wLjE4LTAuOS0wLjQtMS4yNS0wLjY1Yy0wLjMzLTAuMjUtMC42MS0wLjUtMC44My0wLjc4Yy0wLjIyLTAuMjgtMC4zNy0wLjYtMC40Ny0wLjkxICAgICBjLTAuMS0wLjMyLTAuMTUtMC42NS0wLjE1LTFjMC0wLjU1LDAuMTItMS4wMywwLjM0LTEuNDhjMC4yMS0wLjQzLDAuNTMtMC44LDAuOTEtMS4xMmMwLjQtMC4yOSwwLjg4LTAuNTQsMS40My0wLjY5ICAgICBjMC41NS0wLjE3LDEuMTctMC4yNSwxLjg1LTAuMjVjMC4zOCwwLDAuNzEsMC4wMSwxLjAzLDAuMDNjMC4zMSwwLjAzLDAuNiwwLjA2LDAuODUsMC4xMmMwLjI1LDAuMDMsMC40NiwwLjA4LDAuNjYsMC4xMyAgICAgYzAuMiwwLjA1LDAuMzgsMC4xLDAuNTMsMC4xNXYyLjgzYy0wLjE2LTAuMDktMC4zMy0wLjE5LTAuNTUtMC4yN2MtMC4yLTAuMS0wLjQxLTAuMTgtMC42NC0wLjI1Yy0wLjI0LTAuMDgtMC40OS0wLjEzLTAuNzUtMC4xOCAgICAgYy0wLjI3LTAuMDUtMC41NC0wLjA3LTAuODItMC4wN2MtMC4zNiwwLTAuNjYsMC4wNy0wLjksMC4yYy0wLjIzLDAuMTUtMC4zNSwwLjMzLTAuMzUsMC41OGMwLDAuMTIsMC4wNCwwLjI0LDAuMDksMC4zNCAgICAgczAuMTMsMC4xOCwwLjIzLDAuMjZjMC4xMiwwLjA5LDAuMjcsMC4xOSwwLjQ1LDAuMjdjMC4xOCwwLjEsMC40LDAuMiwwLjY2LDAuM2MwLjQ3LDAuMTgsMC44OSwwLjM4LDEuMjksMC42ICAgICBjMC4zOCwwLjIxLDAuNzEsMC40NiwwLjk5LDAuNzRjMC4yOSwwLjI3LDAuNSwwLjU5LDAuNjUsMC45NGMwLjE3LDAuMzUsMC4yNSwwLjc2LDAuMjUsMS4yMyAgICAgQzE0LjYxLDk4LjEzLDE0LjU3LDk4LjM5LDE0LjUxLDk4LjY2eiBNMjIuOTQsMTA0LjA2bC0yLjQ1LTIuNjJjLTAuNzEtMC4wNS0xLjM4LTAuMjItMS45OS0wLjQ5Yy0wLjY0LTAuMjgtMS4xOC0wLjY1LTEuNjUtMS4xMyAgICAgYy0wLjQ3LTAuNDgtMC44My0xLjA1LTEuMTEtMS43M2MtMC4yNy0wLjY2LTAuNC0xLjQzLTAuNC0yLjI2YzAtMC44OCwwLjEzLTEuNjgsMC40MS0yLjRjMC4yOC0wLjczLDAuNjctMS4zNCwxLjE4LTEuODYgICAgIGMwLjUtMC41MywxLjEtMC45MywxLjgtMS4yMWMwLjctMC4yOSwxLjQ4LTAuNDQsMi4zMS0wLjQ0YzAuOCwwLDEuNTMsMC4xNCwyLjIxLDAuNGMwLjY3LDAuMjcsMS4yNSwwLjY1LDEuNzMsMS4xNSAgICAgYzAuNDksMC40OSwwLjg3LDEuMDgsMS4xNSwxLjhjMC4yNywwLjcsMC40LDEuNSwwLjQsMi4zOGMwLDAuNjMtMC4wNywxLjIzLTAuMjMsMS43OGMtMC4xNSwwLjU1LTAuMzcsMS4wNS0wLjY1LDEuNDggICAgIGMtMC4yNywwLjQ1LTAuNiwwLjgzLTAuOTcsMS4xNmMtMC4zOCwwLjM0LTAuNzgsMC42LTEuMjMsMC44bDMuNzUsMy4yaC00LjI2VjEwNC4wNnogTTM1LjMsMTAxLjI0aC03LjE5VjkwLjExaDMuMzZ2OC41aDMuODMgICAgIFYxMDEuMjR6IE0yMC43MSw3OC4xNmMtOC4xNSwwLTE0Ljc3LTIuMDEtMTQuNzctNC41MmMwLTIuNTEsNi42Mi00LjUyLDE0Ljc3LTQuNTJjOC4xNywwLDE0Ljc5LDIuMDEsMTQuNzksNC41MiAgICAgQzM1LjUsNzYuMTUsMjguODgsNzguMTYsMjAuNzEsNzguMTZ6Ii8+JiN4YTsJCTwvZz4mI3hhOwk8L2c+JiN4YTs8L2c+JiN4YTs8L3N2Zz4=;labelBorderColor=#FF0000;fontSize=14;fontColor=none;strokeColor=#FF0000;fillColor=none;" vertex="1" parent="1">
          <mxGeometry x="201.67" y="1429" width="28.33" height="38" as="geometry" />
        </mxCell>
        <mxCell id="pGjpfpKULk_TTckn_0MS-34" value="&lt;p style=&quot;margin-bottom: 0cm&quot;&gt;&lt;font color=&quot;#000000&quot;&gt;&lt;font size=&quot;2&quot;&gt;Srv: srvEcom&lt;/font&gt;&lt;/font&gt;&lt;/p&gt;&lt;p style=&quot;margin-bottom: 0cm&quot;&gt;&lt;span style=&quot;font-size: small&quot;&gt;DB:&lt;/span&gt;&lt;span style=&quot;font-size: small&quot;&gt;AdmRecCFDiProdDB&lt;/span&gt;&lt;/p&gt;" style="text;html=1;resizable=0;autosize=1;align=center;verticalAlign=middle;points=[];fillColor=none;strokeColor=none;rounded=0;" vertex="1" parent="1">
          <mxGeometry x="130" y="1458" width="160" height="60" as="geometry" />
        </mxCell>
        <mxCell id="pGjpfpKULk_TTckn_0MS-38" value="&lt;p style=&quot;margin-bottom: 0cm&quot;&gt;&lt;font color=&quot;#0000ee&quot;&gt;&lt;u&gt;http://corpwebapp02/IF0482VerificaCFDI/IF0482VerificaCFDI.asmx&lt;/u&gt;&lt;/font&gt;&lt;br&gt;&lt;/p&gt;" style="text;html=1;resizable=0;autosize=1;align=center;verticalAlign=middle;points=[];fillColor=none;strokeColor=none;rounded=0;" vertex="1" parent="1">
          <mxGeometry x="316" y="630" width="370" height="30" as="geometry" />
        </mxCell>
        <mxCell id="pGjpfpKULk_TTckn_0MS-39" style="edgeStyle=orthogonalEdgeStyle;rounded=0;orthogonalLoop=1;jettySize=auto;html=1;fontSize=14;fontColor=none;entryX=-0.092;entryY=0.542;entryDx=0;entryDy=0;entryPerimeter=0;" edge="1" parent="1" target="pGjpfpKULk_TTckn_0MS-111">
          <mxGeometry relative="1" as="geometry">
            <mxPoint x="217" y="619" as="sourcePoint" />
            <mxPoint x="467" y="619" as="targetPoint" />
            <Array as="points">
              <mxPoint x="257" y="619" />
            </Array>
          </mxGeometry>
        </mxCell>
        <mxCell id="pGjpfpKULk_TTckn_0MS-40" value="" style="shape=image;verticalLabelPosition=bottom;labelBackgroundColor=#ffffff;verticalAlign=top;aspect=fixed;imageAspect=0;image=data:image/svg+xml,PHN2ZyB4bWxuczpjYz0iaHR0cDovL2NyZWF0aXZlY29tbW9ucy5vcmcvbnMjIiB4bWxuczpkYz0iaHR0cDovL3B1cmwub3JnL2RjL2VsZW1lbnRzLzEuMS8iIHhtbG5zOmlua3NjYXBlPSJodHRwOi8vd3d3Lmlua3NjYXBlLm9yZy9uYW1lc3BhY2VzL2lua3NjYXBlIiB4bWxuczpyZGY9Imh0dHA6Ly93d3cudzMub3JnLzE5OTkvMDIvMjItcmRmLXN5bnRheC1ucyMiIHhtbG5zOnNvZGlwb2RpPSJodHRwOi8vc29kaXBvZGkuc291cmNlZm9yZ2UubmV0L0RURC9zb2RpcG9kaS0wLmR0ZCIgeG1sbnM6c3ZnPSJodHRwOi8vd3d3LnczLm9yZy8yMDAwL3N2ZyIgeG1sbnM9Imh0dHA6Ly93d3cudzMub3JnLzIwMDAvc3ZnIiB4bWxuczp4bGluaz0iaHR0cDovL3d3dy53My5vcmcvMTk5OS94bGluayIgdmVyc2lvbj0iMS4xIiBpZD0ic3ZnMTEzNDIyIiBpbmtzY2FwZTp2ZXJzaW9uPSIwLjkyLjMgKDI0MDU1NDYsIDIwMTgtMDMtMTEpIiBzb2RpcG9kaTpkb2NuYW1lPSJ3ZWIuc3ZnIiB4PSIwcHgiIHk9IjBweCIgdmlld0JveD0iMCAwIDM2IDM2IiBzdHlsZT0iZW5hYmxlLWJhY2tncm91bmQ6bmV3IDAgMCAzNiAzNjsiIHhtbDpzcGFjZT0icHJlc2VydmUiPiYjeGE7PHNvZGlwb2RpOm5hbWVkdmlldyBib3JkZXJjb2xvcj0iIzY2NjY2NiIgYm9yZGVyb3BhY2l0eT0iMSIgZml0LW1hcmdpbi1ib3R0b209IjAiIGZpdC1tYXJnaW4tbGVmdD0iMCIgZml0LW1hcmdpbi1yaWdodD0iMCIgZml0LW1hcmdpbi10b3A9IjAiIGdyaWR0b2xlcmFuY2U9IjEwIiBndWlkZXRvbGVyYW5jZT0iMTAiIGlkPSJuYW1lZHZpZXcxMTM0MjQiIGlua3NjYXBlOmN1cnJlbnQtbGF5ZXI9InN2ZzExMzQyMiIgaW5rc2NhcGU6Y3g9IjIzLjYwNDk5IiBpbmtzY2FwZTpjeT0iMjMuOTk5OTc1IiBpbmtzY2FwZTpwYWdlb3BhY2l0eT0iMCIgaW5rc2NhcGU6cGFnZXNoYWRvdz0iMiIgaW5rc2NhcGU6d2luZG93LWhlaWdodD0iMTAxNyIgaW5rc2NhcGU6d2luZG93LW1heGltaXplZD0iMSIgaW5rc2NhcGU6d2luZG93LXdpZHRoPSIxOTIwIiBpbmtzY2FwZTp3aW5kb3cteD0iLTgiIGlua3NjYXBlOndpbmRvdy15PSItOCIgaW5rc2NhcGU6em9vbT0iMTcuMzQwMDExIiBvYmplY3R0b2xlcmFuY2U9IjEwIiBwYWdlY29sb3I9IiNmZmZmZmYiIHNob3dncmlkPSJmYWxzZSI+JiN4YTsJPC9zb2RpcG9kaTpuYW1lZHZpZXc+JiN4YTs8ZyBpZD0iZzExMzQyMCIgdHJhbnNmb3JtPSJ0cmFuc2xhdGUoLTEuMzQyNDksLTAuNzQ3OTIpIj4mI3hhOwk8dGl0bGUgaWQ9InRpdGxlMTEzMzczIj5QYWdlLTE8L3RpdGxlPiYjeGE7CTxnIGlkPSJncm91cDUyNDAtMSIgdHJhbnNmb3JtPSJ0cmFuc2xhdGUoMS41LC0wLjc1KSI+JiN4YTsJCTx0aXRsZSBpZD0idGl0bGUxMTMzNzUiPldlYjwvdGl0bGU+JiN4YTsJCTxnIGlkPSJzaGFwZTUyNDEtMiIgdHJhbnNmb3JtPSJ0cmFuc2xhdGUoNS4zNzk3NCwtNS41MzcyNCkiPiYjeGE7CQkJPHRpdGxlIGlkPSJ0aXRsZTExMzM3NyI+cGF0aDk2MTA8L3RpdGxlPiYjeGE7CQkJPHBhdGggaWQ9InBhdGgxMTMzNzkiIGlua3NjYXBlOmNvbm5lY3Rvci1jdXJ2YXR1cmU9IjAiIHN0eWxlPSJmaWxsOiNGRkZGRkY7IiBkPSJNMzAuMDksMjUuMDRjMCw5LjczLTcuOSwxNy42Mi0xNy42MywxNy42MiAgICAgYy05LjczLDAtMTcuNjItNy45LTE3LjYyLTE3LjYzYzAtOS43Myw3Ljg5LTE3LjYyLDE3LjYyLTE3LjYyQzIyLjE5LDcuNDIsMzAuMDgsMTUuMzEsMzAuMDksMjUuMDR6Ii8+JiN4YTsJCTwvZz4mI3hhOwkJPGcgaWQ9InNoYXBlNTI0Mi00IiB0cmFuc2Zvcm09InRyYW5zbGF0ZSgwLjIxNzQ5MiwtMC4zNzUpIj4mI3hhOwkJCTx0aXRsZSBpZD0idGl0bGUxMTMzODIiPnBhdGg5NjEyPC90aXRsZT4mI3hhOwkJCTxwYXRoIGlkPSJwYXRoMTEzMzg0IiBpbmtzY2FwZTpjb25uZWN0b3ItY3VydmF0dXJlPSIwIiBzdHlsZT0iZmlsbDojRDRFMkY1OyIgZD0iTTM1LjI1LDE5Ljg3YzAsOS43My03Ljg5LDE3LjYzLTE3LjYzLDE3LjYzICAgICBTMCwyOS42LDAsMTkuODdsMCwwSDM1LjI1eiIvPiYjeGE7CQk8L2c+JiN4YTsJCTxnIGlkPSJzaGFwZTUyNDMtNiIgdHJhbnNmb3JtPSJ0cmFuc2xhdGUoMS4zNDI0OSwtNS4yNzIwOCkiPiYjeGE7CQkJPHRpdGxlIGlkPSJ0aXRsZTExMzM4NyI+cGF0aDk2MTQ8L3RpdGxlPiYjeGE7CQkJPHBhdGggaWQ9InBhdGgxMTMzODkiIGlua3NjYXBlOmNvbm5lY3Rvci1jdXJ2YXR1cmU9IjAiIHN0eWxlPSJmaWxsOiM0RDRFNEU7IiBkPSJNMTYuNSw4LjI3YzkuMTEsMCwxNi41LDcuMzksMTYuNSwxNi41ICAgICBzLTcuMzksMTYuNS0xNi41LDE2LjVTMCwzMy44OCwwLDI0Ljc3UzcuMzksOC4yNywxNi41LDguMjd6IE0xNi41LDYuNzdjLTkuOTQsMC0xOCw4LjA2LTE4LDE4czguMDYsMTgsMTgsMThzMTgtOC4wNiwxOC0xOCAgICAgUzI2LjQ0LDYuNzcsMTYuNSw2Ljc3eiIvPiYjeGE7CQk8L2c+JiN4YTsJCTxnIGlkPSJncm91cDUyNDQtOCI+JiN4YTsJCQk8dGl0bGUgaWQ9InRpdGxlMTEzMzkyIj5nOTYyMDwvdGl0bGU+JiN4YTsJCQk8ZyBpZD0ic2hhcGU1MjQ1LTkiIHRyYW5zZm9ybT0idHJhbnNsYXRlKDkuNTkyNDkpIj4mI3hhOwkJCQk8dGl0bGUgaWQ9InRpdGxlMTEzMzk0Ij5wYXRoOTYxNjwvdGl0bGU+JiN4YTsJCQkJPHBhdGggaWQ9InBhdGgxMTMzOTYiIGlua3NjYXBlOmNvbm5lY3Rvci1jdXJ2YXR1cmU9IjAiIHN0eWxlPSJmaWxsOiM0RDRFNEU7IiBkPSJNNy44NywzLjJjMywwLDYuMzgsNy4wMSw2LjM4LDE2LjQgICAgICBjMCw5LjM4LTMuMzgsMTYuNC02LjM4LDE2LjRTMS41LDI4Ljk5LDEuNSwxOS42QzEuNSwxMC4yMiw0Ljg3LDMuMiw3Ljg3LDMuMnogTTcuODcsMS43QzMuNTIsMS43LDAsOS43MSwwLDE5LjYgICAgICBjMCw5Ljg4LDMuNTIsMTcuOSw3Ljg3LDE3LjlzNy44OC04LjAxLDcuODgtMTcuOUMxNS43NSw5LjcyLDEyLjIyLDEuNyw3Ljg3LDEuN3oiLz4mI3hhOwkJCTwvZz4mI3hhOwkJCTxnIGlkPSJzaGFwZTUyNDYtMTEiIHRyYW5zZm9ybT0idHJhbnNsYXRlKDAsLTE4KSI+JiN4YTsJCQkJPHRpdGxlIGlkPSJ0aXRsZTExMzM5OSI+bGluZTk2MTg8L3RpdGxlPiYjeGE7CQkJCSYjeGE7CQkJCQk8cGF0aCBpZD0icGF0aDExMzQwMSIgaW5rc2NhcGU6Y29ubmVjdG9yLWN1cnZhdHVyZT0iMCIgc3R5bGU9ImZpbGw6bm9uZTtzdHJva2U6IzRENEU0RTtzdHJva2Utd2lkdGg6MS41O3N0cm9rZS1taXRlcmxpbWl0OjM7IiBkPSIgICAgICBNMCwzNy41aDM1LjA5Ii8+JiN4YTsJCQk8L2c+JiN4YTsJCTwvZz4mI3hhOwkJPGcgaWQ9InNoYXBlNTI0Ny0xNCIgdHJhbnNmb3JtPSJ0cmFuc2xhdGUoNC4zNDk5OSwtMjcpIj4mI3hhOwkJCTx0aXRsZSBpZD0idGl0bGUxMTM0MDUiPnBhdGg5NjIyPC90aXRsZT4mI3hhOwkJCTxwYXRoIGlkPSJwYXRoMTEzNDA3IiBpbmtzY2FwZTpjb25uZWN0b3ItY3VydmF0dXJlPSIwIiBzdHlsZT0iZmlsbDpub25lOyIgZD0iTTAsMzUuNDdjMy4yOSwxLjI4LDguMTIsMi4wMywxMy40OSwyLjAzICAgICBzMTAuMi0wLjc1LDEzLjUtMi4wM0gweiIvPiYjeGE7CQkJJiN4YTsJCQkJPHBhdGggaWQ9InBhdGgxMTM0MDkiIGlua3NjYXBlOmNvbm5lY3Rvci1jdXJ2YXR1cmU9IjAiIHN0eWxlPSJmaWxsOm5vbmU7c3Ryb2tlOiM0RDRFNEU7c3Ryb2tlLXdpZHRoOjEuNTtzdHJva2UtbWl0ZXJsaW1pdDozOyIgZD0iICAgICBNMCwzNS40N2MzLjI5LDEuMjgsOC4xMiwyLjAzLDEzLjQ5LDIuMDNzMTAuMi0wLjc1LDEzLjUtMi4wMyIvPiYjeGE7CQk8L2c+JiN4YTsJCTxnIGlkPSJzaGFwZTUyNDgtMTciIHRyYW5zZm9ybT0idHJhbnNsYXRlKDQuMzQ5OTksLTYuOTY3NSkiPiYjeGE7CQkJPHRpdGxlIGlkPSJ0aXRsZTExMzQxMiI+cGF0aDk2MjQ8L3RpdGxlPiYjeGE7CQkJPHBhdGggaWQ9InBhdGgxMTM0MTQiIGlua3NjYXBlOmNvbm5lY3Rvci1jdXJ2YXR1cmU9IjAiIHN0eWxlPSJmaWxsOm5vbmU7IiBkPSJNMCwzNy41YzMuMjktMS4yOCw4LjEyLTIuMDMsMTMuNDktMi4wMyAgICAgczEwLjIsMC43NSwxMy41LDIuMDNIMHoiLz4mI3hhOwkJCSYjeGE7CQkJCTxwYXRoIGlkPSJwYXRoMTEzNDE2IiBpbmtzY2FwZTpjb25uZWN0b3ItY3VydmF0dXJlPSIwIiBzdHlsZT0iZmlsbDpub25lO3N0cm9rZTojNEQ0RTRFO3N0cm9rZS13aWR0aDoxLjU7c3Ryb2tlLW1pdGVybGltaXQ6MzsiIGQ9IiAgICAgTTAsMzcuNWMzLjI5LTEuMjgsOC4xMi0yLjAzLDEzLjQ5LTIuMDNzMTAuMiwwLjc1LDEzLjUsMi4wMyIvPiYjeGE7CQk8L2c+JiN4YTsJPC9nPiYjeGE7PC9nPiYjeGE7PC9zdmc+;labelBorderColor=#FF0000;fontSize=14;fontColor=none;strokeColor=#FF0000;fillColor=none;" vertex="1" parent="1">
          <mxGeometry x="495" y="769" width="36" height="36" as="geometry" />
        </mxCell>
        <mxCell id="pGjpfpKULk_TTckn_0MS-41" value="&lt;p style=&quot;margin-bottom: 0cm&quot;&gt;&lt;font color=&quot;#000080&quot;&gt;&lt;span lang=&quot;zxx&quot;&gt;&lt;u&gt;&lt;a class=&quot;western&quot; href=&quot;http://corpwebapp01/wsRemisionProv/wsRecibeRemisionProv.asmx&quot;&gt;&lt;font style=&quot;font-size: 9pt&quot;&gt;&lt;span lang=&quot;es-MX&quot;&gt;http://corpwebapp01/wsRemisionProv/wsRecibeRemisionProv.asmx&lt;/span&gt;&lt;/font&gt;&lt;/a&gt;&lt;/u&gt;&lt;/span&gt;&lt;/font&gt;&lt;/p&gt;" style="text;html=1;resizable=0;autosize=1;align=center;verticalAlign=middle;points=[];fillColor=none;strokeColor=none;rounded=0;" vertex="1" parent="1">
          <mxGeometry x="320" y="797" width="380" height="30" as="geometry" />
        </mxCell>
        <mxCell id="pGjpfpKULk_TTckn_0MS-42" style="edgeStyle=orthogonalEdgeStyle;rounded=0;orthogonalLoop=1;jettySize=auto;html=1;fontSize=14;fontColor=none;" edge="1" parent="1">
          <mxGeometry relative="1" as="geometry">
            <mxPoint x="230" y="785" as="sourcePoint" />
            <mxPoint x="480" y="785" as="targetPoint" />
            <Array as="points">
              <mxPoint x="270" y="785" />
              <mxPoint x="270" y="785" />
            </Array>
          </mxGeometry>
        </mxCell>
        <mxCell id="pGjpfpKULk_TTckn_0MS-43" value="&lt;span style=&quot;font-size: 16px&quot;&gt;IF0482&lt;/span&gt;" style="text;html=1;resizable=0;autosize=1;align=center;verticalAlign=middle;points=[];fillColor=none;strokeColor=none;rounded=0;" vertex="1" parent="1">
          <mxGeometry x="230" y="598" width="70" height="20" as="geometry" />
        </mxCell>
        <mxCell id="pGjpfpKULk_TTckn_0MS-44" value="&lt;p style=&quot;margin-bottom: 0cm&quot;&gt;&lt;font style=&quot;font-size: 16px&quot;&gt;Indirectos&lt;/font&gt;&lt;/p&gt;" style="text;html=1;resizable=0;autosize=1;align=center;verticalAlign=middle;points=[];fillColor=none;strokeColor=none;rounded=0;" vertex="1" parent="1">
          <mxGeometry x="238" y="756" width="80" height="30" as="geometry" />
        </mxCell>
        <mxCell id="pGjpfpKULk_TTckn_0MS-45" value="" style="shape=image;verticalLabelPosition=bottom;labelBackgroundColor=#ffffff;verticalAlign=top;aspect=fixed;imageAspect=0;image=data:image/svg+xml,PHN2ZyB4bWxuczpjYz0iaHR0cDovL2NyZWF0aXZlY29tbW9ucy5vcmcvbnMjIiB4bWxuczpkYz0iaHR0cDovL3B1cmwub3JnL2RjL2VsZW1lbnRzLzEuMS8iIHhtbG5zOmlua3NjYXBlPSJodHRwOi8vd3d3Lmlua3NjYXBlLm9yZy9uYW1lc3BhY2VzL2lua3NjYXBlIiB4bWxuczpyZGY9Imh0dHA6Ly93d3cudzMub3JnLzE5OTkvMDIvMjItcmRmLXN5bnRheC1ucyMiIHhtbG5zOnNvZGlwb2RpPSJodHRwOi8vc29kaXBvZGkuc291cmNlZm9yZ2UubmV0L0RURC9zb2RpcG9kaS0wLmR0ZCIgeG1sbnM6c3ZnPSJodHRwOi8vd3d3LnczLm9yZy8yMDAwL3N2ZyIgeG1sbnM9Imh0dHA6Ly93d3cudzMub3JnLzIwMDAvc3ZnIiB4bWxuczp4bGluaz0iaHR0cDovL3d3dy53My5vcmcvMTk5OS94bGluayIgdmVyc2lvbj0iMS4xIiBpZD0ic3ZnMTEzNDIyIiBpbmtzY2FwZTp2ZXJzaW9uPSIwLjkyLjMgKDI0MDU1NDYsIDIwMTgtMDMtMTEpIiBzb2RpcG9kaTpkb2NuYW1lPSJ3ZWIuc3ZnIiB4PSIwcHgiIHk9IjBweCIgdmlld0JveD0iMCAwIDM2IDM2IiBzdHlsZT0iZW5hYmxlLWJhY2tncm91bmQ6bmV3IDAgMCAzNiAzNjsiIHhtbDpzcGFjZT0icHJlc2VydmUiPiYjeGE7PHNvZGlwb2RpOm5hbWVkdmlldyBib3JkZXJjb2xvcj0iIzY2NjY2NiIgYm9yZGVyb3BhY2l0eT0iMSIgZml0LW1hcmdpbi1ib3R0b209IjAiIGZpdC1tYXJnaW4tbGVmdD0iMCIgZml0LW1hcmdpbi1yaWdodD0iMCIgZml0LW1hcmdpbi10b3A9IjAiIGdyaWR0b2xlcmFuY2U9IjEwIiBndWlkZXRvbGVyYW5jZT0iMTAiIGlkPSJuYW1lZHZpZXcxMTM0MjQiIGlua3NjYXBlOmN1cnJlbnQtbGF5ZXI9InN2ZzExMzQyMiIgaW5rc2NhcGU6Y3g9IjIzLjYwNDk5IiBpbmtzY2FwZTpjeT0iMjMuOTk5OTc1IiBpbmtzY2FwZTpwYWdlb3BhY2l0eT0iMCIgaW5rc2NhcGU6cGFnZXNoYWRvdz0iMiIgaW5rc2NhcGU6d2luZG93LWhlaWdodD0iMTAxNyIgaW5rc2NhcGU6d2luZG93LW1heGltaXplZD0iMSIgaW5rc2NhcGU6d2luZG93LXdpZHRoPSIxOTIwIiBpbmtzY2FwZTp3aW5kb3cteD0iLTgiIGlua3NjYXBlOndpbmRvdy15PSItOCIgaW5rc2NhcGU6em9vbT0iMTcuMzQwMDExIiBvYmplY3R0b2xlcmFuY2U9IjEwIiBwYWdlY29sb3I9IiNmZmZmZmYiIHNob3dncmlkPSJmYWxzZSI+JiN4YTsJPC9zb2RpcG9kaTpuYW1lZHZpZXc+JiN4YTs8ZyBpZD0iZzExMzQyMCIgdHJhbnNmb3JtPSJ0cmFuc2xhdGUoLTEuMzQyNDksLTAuNzQ3OTIpIj4mI3hhOwk8dGl0bGUgaWQ9InRpdGxlMTEzMzczIj5QYWdlLTE8L3RpdGxlPiYjeGE7CTxnIGlkPSJncm91cDUyNDAtMSIgdHJhbnNmb3JtPSJ0cmFuc2xhdGUoMS41LC0wLjc1KSI+JiN4YTsJCTx0aXRsZSBpZD0idGl0bGUxMTMzNzUiPldlYjwvdGl0bGU+JiN4YTsJCTxnIGlkPSJzaGFwZTUyNDEtMiIgdHJhbnNmb3JtPSJ0cmFuc2xhdGUoNS4zNzk3NCwtNS41MzcyNCkiPiYjeGE7CQkJPHRpdGxlIGlkPSJ0aXRsZTExMzM3NyI+cGF0aDk2MTA8L3RpdGxlPiYjeGE7CQkJPHBhdGggaWQ9InBhdGgxMTMzNzkiIGlua3NjYXBlOmNvbm5lY3Rvci1jdXJ2YXR1cmU9IjAiIHN0eWxlPSJmaWxsOiNGRkZGRkY7IiBkPSJNMzAuMDksMjUuMDRjMCw5LjczLTcuOSwxNy42Mi0xNy42MywxNy42MiAgICAgYy05LjczLDAtMTcuNjItNy45LTE3LjYyLTE3LjYzYzAtOS43Myw3Ljg5LTE3LjYyLDE3LjYyLTE3LjYyQzIyLjE5LDcuNDIsMzAuMDgsMTUuMzEsMzAuMDksMjUuMDR6Ii8+JiN4YTsJCTwvZz4mI3hhOwkJPGcgaWQ9InNoYXBlNTI0Mi00IiB0cmFuc2Zvcm09InRyYW5zbGF0ZSgwLjIxNzQ5MiwtMC4zNzUpIj4mI3hhOwkJCTx0aXRsZSBpZD0idGl0bGUxMTMzODIiPnBhdGg5NjEyPC90aXRsZT4mI3hhOwkJCTxwYXRoIGlkPSJwYXRoMTEzMzg0IiBpbmtzY2FwZTpjb25uZWN0b3ItY3VydmF0dXJlPSIwIiBzdHlsZT0iZmlsbDojRDRFMkY1OyIgZD0iTTM1LjI1LDE5Ljg3YzAsOS43My03Ljg5LDE3LjYzLTE3LjYzLDE3LjYzICAgICBTMCwyOS42LDAsMTkuODdsMCwwSDM1LjI1eiIvPiYjeGE7CQk8L2c+JiN4YTsJCTxnIGlkPSJzaGFwZTUyNDMtNiIgdHJhbnNmb3JtPSJ0cmFuc2xhdGUoMS4zNDI0OSwtNS4yNzIwOCkiPiYjeGE7CQkJPHRpdGxlIGlkPSJ0aXRsZTExMzM4NyI+cGF0aDk2MTQ8L3RpdGxlPiYjeGE7CQkJPHBhdGggaWQ9InBhdGgxMTMzODkiIGlua3NjYXBlOmNvbm5lY3Rvci1jdXJ2YXR1cmU9IjAiIHN0eWxlPSJmaWxsOiM0RDRFNEU7IiBkPSJNMTYuNSw4LjI3YzkuMTEsMCwxNi41LDcuMzksMTYuNSwxNi41ICAgICBzLTcuMzksMTYuNS0xNi41LDE2LjVTMCwzMy44OCwwLDI0Ljc3UzcuMzksOC4yNywxNi41LDguMjd6IE0xNi41LDYuNzdjLTkuOTQsMC0xOCw4LjA2LTE4LDE4czguMDYsMTgsMTgsMThzMTgtOC4wNiwxOC0xOCAgICAgUzI2LjQ0LDYuNzcsMTYuNSw2Ljc3eiIvPiYjeGE7CQk8L2c+JiN4YTsJCTxnIGlkPSJncm91cDUyNDQtOCI+JiN4YTsJCQk8dGl0bGUgaWQ9InRpdGxlMTEzMzkyIj5nOTYyMDwvdGl0bGU+JiN4YTsJCQk8ZyBpZD0ic2hhcGU1MjQ1LTkiIHRyYW5zZm9ybT0idHJhbnNsYXRlKDkuNTkyNDkpIj4mI3hhOwkJCQk8dGl0bGUgaWQ9InRpdGxlMTEzMzk0Ij5wYXRoOTYxNjwvdGl0bGU+JiN4YTsJCQkJPHBhdGggaWQ9InBhdGgxMTMzOTYiIGlua3NjYXBlOmNvbm5lY3Rvci1jdXJ2YXR1cmU9IjAiIHN0eWxlPSJmaWxsOiM0RDRFNEU7IiBkPSJNNy44NywzLjJjMywwLDYuMzgsNy4wMSw2LjM4LDE2LjQgICAgICBjMCw5LjM4LTMuMzgsMTYuNC02LjM4LDE2LjRTMS41LDI4Ljk5LDEuNSwxOS42QzEuNSwxMC4yMiw0Ljg3LDMuMiw3Ljg3LDMuMnogTTcuODcsMS43QzMuNTIsMS43LDAsOS43MSwwLDE5LjYgICAgICBjMCw5Ljg4LDMuNTIsMTcuOSw3Ljg3LDE3LjlzNy44OC04LjAxLDcuODgtMTcuOUMxNS43NSw5LjcyLDEyLjIyLDEuNyw3Ljg3LDEuN3oiLz4mI3hhOwkJCTwvZz4mI3hhOwkJCTxnIGlkPSJzaGFwZTUyNDYtMTEiIHRyYW5zZm9ybT0idHJhbnNsYXRlKDAsLTE4KSI+JiN4YTsJCQkJPHRpdGxlIGlkPSJ0aXRsZTExMzM5OSI+bGluZTk2MTg8L3RpdGxlPiYjeGE7CQkJCSYjeGE7CQkJCQk8cGF0aCBpZD0icGF0aDExMzQwMSIgaW5rc2NhcGU6Y29ubmVjdG9yLWN1cnZhdHVyZT0iMCIgc3R5bGU9ImZpbGw6bm9uZTtzdHJva2U6IzRENEU0RTtzdHJva2Utd2lkdGg6MS41O3N0cm9rZS1taXRlcmxpbWl0OjM7IiBkPSIgICAgICBNMCwzNy41aDM1LjA5Ii8+JiN4YTsJCQk8L2c+JiN4YTsJCTwvZz4mI3hhOwkJPGcgaWQ9InNoYXBlNTI0Ny0xNCIgdHJhbnNmb3JtPSJ0cmFuc2xhdGUoNC4zNDk5OSwtMjcpIj4mI3hhOwkJCTx0aXRsZSBpZD0idGl0bGUxMTM0MDUiPnBhdGg5NjIyPC90aXRsZT4mI3hhOwkJCTxwYXRoIGlkPSJwYXRoMTEzNDA3IiBpbmtzY2FwZTpjb25uZWN0b3ItY3VydmF0dXJlPSIwIiBzdHlsZT0iZmlsbDpub25lOyIgZD0iTTAsMzUuNDdjMy4yOSwxLjI4LDguMTIsMi4wMywxMy40OSwyLjAzICAgICBzMTAuMi0wLjc1LDEzLjUtMi4wM0gweiIvPiYjeGE7CQkJJiN4YTsJCQkJPHBhdGggaWQ9InBhdGgxMTM0MDkiIGlua3NjYXBlOmNvbm5lY3Rvci1jdXJ2YXR1cmU9IjAiIHN0eWxlPSJmaWxsOm5vbmU7c3Ryb2tlOiM0RDRFNEU7c3Ryb2tlLXdpZHRoOjEuNTtzdHJva2UtbWl0ZXJsaW1pdDozOyIgZD0iICAgICBNMCwzNS40N2MzLjI5LDEuMjgsOC4xMiwyLjAzLDEzLjQ5LDIuMDNzMTAuMi0wLjc1LDEzLjUtMi4wMyIvPiYjeGE7CQk8L2c+JiN4YTsJCTxnIGlkPSJzaGFwZTUyNDgtMTciIHRyYW5zZm9ybT0idHJhbnNsYXRlKDQuMzQ5OTksLTYuOTY3NSkiPiYjeGE7CQkJPHRpdGxlIGlkPSJ0aXRsZTExMzQxMiI+cGF0aDk2MjQ8L3RpdGxlPiYjeGE7CQkJPHBhdGggaWQ9InBhdGgxMTM0MTQiIGlua3NjYXBlOmNvbm5lY3Rvci1jdXJ2YXR1cmU9IjAiIHN0eWxlPSJmaWxsOm5vbmU7IiBkPSJNMCwzNy41YzMuMjktMS4yOCw4LjEyLTIuMDMsMTMuNDktMi4wMyAgICAgczEwLjIsMC43NSwxMy41LDIuMDNIMHoiLz4mI3hhOwkJCSYjeGE7CQkJCTxwYXRoIGlkPSJwYXRoMTEzNDE2IiBpbmtzY2FwZTpjb25uZWN0b3ItY3VydmF0dXJlPSIwIiBzdHlsZT0iZmlsbDpub25lO3N0cm9rZTojNEQ0RTRFO3N0cm9rZS13aWR0aDoxLjU7c3Ryb2tlLW1pdGVybGltaXQ6MzsiIGQ9IiAgICAgTTAsMzcuNWMzLjI5LTEuMjgsOC4xMi0yLjAzLDEzLjQ5LTIuMDNzMTAuMiwwLjc1LDEzLjUsMi4wMyIvPiYjeGE7CQk8L2c+JiN4YTsJPC9nPiYjeGE7PC9nPiYjeGE7PC9zdmc+;labelBorderColor=#FF0000;fontSize=14;fontColor=none;strokeColor=#FF0000;fillColor=none;" vertex="1" parent="1">
          <mxGeometry x="486" y="883" width="36" height="36" as="geometry" />
        </mxCell>
        <mxCell id="pGjpfpKULk_TTckn_0MS-46" value="&lt;p style=&quot;margin-bottom: 0cm&quot;&gt;&lt;font color=&quot;#0000ee&quot;&gt;&lt;u&gt;http://corpcate/NotificaCFDExtemporaneo_v04/Service.asmx&lt;/u&gt;&lt;/font&gt;&lt;br&gt;&lt;/p&gt;" style="text;html=1;resizable=0;autosize=1;align=center;verticalAlign=middle;points=[];fillColor=none;strokeColor=none;rounded=0;" vertex="1" parent="1">
          <mxGeometry x="331" y="912" width="340" height="30" as="geometry" />
        </mxCell>
        <mxCell id="pGjpfpKULk_TTckn_0MS-47" style="edgeStyle=orthogonalEdgeStyle;rounded=0;orthogonalLoop=1;jettySize=auto;html=1;fontSize=14;fontColor=none;" edge="1" parent="1">
          <mxGeometry relative="1" as="geometry">
            <mxPoint x="221" y="899" as="sourcePoint" />
            <mxPoint x="471.0000000000002" y="899" as="targetPoint" />
            <Array as="points">
              <mxPoint x="261" y="899" />
              <mxPoint x="261" y="899" />
            </Array>
          </mxGeometry>
        </mxCell>
        <mxCell id="pGjpfpKULk_TTckn_0MS-48" value="&lt;p style=&quot;margin-bottom: 0cm&quot;&gt;&lt;font style=&quot;font-size: 16px&quot;&gt;118 Indiana&lt;/font&gt;&lt;/p&gt;" style="text;html=1;resizable=0;autosize=1;align=center;verticalAlign=middle;points=[];fillColor=none;strokeColor=none;rounded=0;" vertex="1" parent="1">
          <mxGeometry x="219" y="870" width="100" height="30" as="geometry" />
        </mxCell>
        <mxCell id="pGjpfpKULk_TTckn_0MS-49" value="" style="shape=image;verticalLabelPosition=bottom;labelBackgroundColor=#ffffff;verticalAlign=top;aspect=fixed;imageAspect=0;image=data:image/svg+xml,PHN2ZyB4bWxuczpjYz0iaHR0cDovL2NyZWF0aXZlY29tbW9ucy5vcmcvbnMjIiB4bWxuczpkYz0iaHR0cDovL3B1cmwub3JnL2RjL2VsZW1lbnRzLzEuMS8iIHhtbG5zOmlua3NjYXBlPSJodHRwOi8vd3d3Lmlua3NjYXBlLm9yZy9uYW1lc3BhY2VzL2lua3NjYXBlIiB4bWxuczpyZGY9Imh0dHA6Ly93d3cudzMub3JnLzE5OTkvMDIvMjItcmRmLXN5bnRheC1ucyMiIHhtbG5zOnNvZGlwb2RpPSJodHRwOi8vc29kaXBvZGkuc291cmNlZm9yZ2UubmV0L0RURC9zb2RpcG9kaS0wLmR0ZCIgeG1sbnM6c3ZnPSJodHRwOi8vd3d3LnczLm9yZy8yMDAwL3N2ZyIgeG1sbnM9Imh0dHA6Ly93d3cudzMub3JnLzIwMDAvc3ZnIiB4bWxuczp4bGluaz0iaHR0cDovL3d3dy53My5vcmcvMTk5OS94bGluayIgdmVyc2lvbj0iMS4xIiBpZD0ic3ZnMTEzNDIyIiBpbmtzY2FwZTp2ZXJzaW9uPSIwLjkyLjMgKDI0MDU1NDYsIDIwMTgtMDMtMTEpIiBzb2RpcG9kaTpkb2NuYW1lPSJ3ZWIuc3ZnIiB4PSIwcHgiIHk9IjBweCIgdmlld0JveD0iMCAwIDM2IDM2IiBzdHlsZT0iZW5hYmxlLWJhY2tncm91bmQ6bmV3IDAgMCAzNiAzNjsiIHhtbDpzcGFjZT0icHJlc2VydmUiPiYjeGE7PHNvZGlwb2RpOm5hbWVkdmlldyBib3JkZXJjb2xvcj0iIzY2NjY2NiIgYm9yZGVyb3BhY2l0eT0iMSIgZml0LW1hcmdpbi1ib3R0b209IjAiIGZpdC1tYXJnaW4tbGVmdD0iMCIgZml0LW1hcmdpbi1yaWdodD0iMCIgZml0LW1hcmdpbi10b3A9IjAiIGdyaWR0b2xlcmFuY2U9IjEwIiBndWlkZXRvbGVyYW5jZT0iMTAiIGlkPSJuYW1lZHZpZXcxMTM0MjQiIGlua3NjYXBlOmN1cnJlbnQtbGF5ZXI9InN2ZzExMzQyMiIgaW5rc2NhcGU6Y3g9IjIzLjYwNDk5IiBpbmtzY2FwZTpjeT0iMjMuOTk5OTc1IiBpbmtzY2FwZTpwYWdlb3BhY2l0eT0iMCIgaW5rc2NhcGU6cGFnZXNoYWRvdz0iMiIgaW5rc2NhcGU6d2luZG93LWhlaWdodD0iMTAxNyIgaW5rc2NhcGU6d2luZG93LW1heGltaXplZD0iMSIgaW5rc2NhcGU6d2luZG93LXdpZHRoPSIxOTIwIiBpbmtzY2FwZTp3aW5kb3cteD0iLTgiIGlua3NjYXBlOndpbmRvdy15PSItOCIgaW5rc2NhcGU6em9vbT0iMTcuMzQwMDExIiBvYmplY3R0b2xlcmFuY2U9IjEwIiBwYWdlY29sb3I9IiNmZmZmZmYiIHNob3dncmlkPSJmYWxzZSI+JiN4YTsJPC9zb2RpcG9kaTpuYW1lZHZpZXc+JiN4YTs8ZyBpZD0iZzExMzQyMCIgdHJhbnNmb3JtPSJ0cmFuc2xhdGUoLTEuMzQyNDksLTAuNzQ3OTIpIj4mI3hhOwk8dGl0bGUgaWQ9InRpdGxlMTEzMzczIj5QYWdlLTE8L3RpdGxlPiYjeGE7CTxnIGlkPSJncm91cDUyNDAtMSIgdHJhbnNmb3JtPSJ0cmFuc2xhdGUoMS41LC0wLjc1KSI+JiN4YTsJCTx0aXRsZSBpZD0idGl0bGUxMTMzNzUiPldlYjwvdGl0bGU+JiN4YTsJCTxnIGlkPSJzaGFwZTUyNDEtMiIgdHJhbnNmb3JtPSJ0cmFuc2xhdGUoNS4zNzk3NCwtNS41MzcyNCkiPiYjeGE7CQkJPHRpdGxlIGlkPSJ0aXRsZTExMzM3NyI+cGF0aDk2MTA8L3RpdGxlPiYjeGE7CQkJPHBhdGggaWQ9InBhdGgxMTMzNzkiIGlua3NjYXBlOmNvbm5lY3Rvci1jdXJ2YXR1cmU9IjAiIHN0eWxlPSJmaWxsOiNGRkZGRkY7IiBkPSJNMzAuMDksMjUuMDRjMCw5LjczLTcuOSwxNy42Mi0xNy42MywxNy42MiAgICAgYy05LjczLDAtMTcuNjItNy45LTE3LjYyLTE3LjYzYzAtOS43Myw3Ljg5LTE3LjYyLDE3LjYyLTE3LjYyQzIyLjE5LDcuNDIsMzAuMDgsMTUuMzEsMzAuMDksMjUuMDR6Ii8+JiN4YTsJCTwvZz4mI3hhOwkJPGcgaWQ9InNoYXBlNTI0Mi00IiB0cmFuc2Zvcm09InRyYW5zbGF0ZSgwLjIxNzQ5MiwtMC4zNzUpIj4mI3hhOwkJCTx0aXRsZSBpZD0idGl0bGUxMTMzODIiPnBhdGg5NjEyPC90aXRsZT4mI3hhOwkJCTxwYXRoIGlkPSJwYXRoMTEzMzg0IiBpbmtzY2FwZTpjb25uZWN0b3ItY3VydmF0dXJlPSIwIiBzdHlsZT0iZmlsbDojRDRFMkY1OyIgZD0iTTM1LjI1LDE5Ljg3YzAsOS43My03Ljg5LDE3LjYzLTE3LjYzLDE3LjYzICAgICBTMCwyOS42LDAsMTkuODdsMCwwSDM1LjI1eiIvPiYjeGE7CQk8L2c+JiN4YTsJCTxnIGlkPSJzaGFwZTUyNDMtNiIgdHJhbnNmb3JtPSJ0cmFuc2xhdGUoMS4zNDI0OSwtNS4yNzIwOCkiPiYjeGE7CQkJPHRpdGxlIGlkPSJ0aXRsZTExMzM4NyI+cGF0aDk2MTQ8L3RpdGxlPiYjeGE7CQkJPHBhdGggaWQ9InBhdGgxMTMzODkiIGlua3NjYXBlOmNvbm5lY3Rvci1jdXJ2YXR1cmU9IjAiIHN0eWxlPSJmaWxsOiM0RDRFNEU7IiBkPSJNMTYuNSw4LjI3YzkuMTEsMCwxNi41LDcuMzksMTYuNSwxNi41ICAgICBzLTcuMzksMTYuNS0xNi41LDE2LjVTMCwzMy44OCwwLDI0Ljc3UzcuMzksOC4yNywxNi41LDguMjd6IE0xNi41LDYuNzdjLTkuOTQsMC0xOCw4LjA2LTE4LDE4czguMDYsMTgsMTgsMThzMTgtOC4wNiwxOC0xOCAgICAgUzI2LjQ0LDYuNzcsMTYuNSw2Ljc3eiIvPiYjeGE7CQk8L2c+JiN4YTsJCTxnIGlkPSJncm91cDUyNDQtOCI+JiN4YTsJCQk8dGl0bGUgaWQ9InRpdGxlMTEzMzkyIj5nOTYyMDwvdGl0bGU+JiN4YTsJCQk8ZyBpZD0ic2hhcGU1MjQ1LTkiIHRyYW5zZm9ybT0idHJhbnNsYXRlKDkuNTkyNDkpIj4mI3hhOwkJCQk8dGl0bGUgaWQ9InRpdGxlMTEzMzk0Ij5wYXRoOTYxNjwvdGl0bGU+JiN4YTsJCQkJPHBhdGggaWQ9InBhdGgxMTMzOTYiIGlua3NjYXBlOmNvbm5lY3Rvci1jdXJ2YXR1cmU9IjAiIHN0eWxlPSJmaWxsOiM0RDRFNEU7IiBkPSJNNy44NywzLjJjMywwLDYuMzgsNy4wMSw2LjM4LDE2LjQgICAgICBjMCw5LjM4LTMuMzgsMTYuNC02LjM4LDE2LjRTMS41LDI4Ljk5LDEuNSwxOS42QzEuNSwxMC4yMiw0Ljg3LDMuMiw3Ljg3LDMuMnogTTcuODcsMS43QzMuNTIsMS43LDAsOS43MSwwLDE5LjYgICAgICBjMCw5Ljg4LDMuNTIsMTcuOSw3Ljg3LDE3LjlzNy44OC04LjAxLDcuODgtMTcuOUMxNS43NSw5LjcyLDEyLjIyLDEuNyw3Ljg3LDEuN3oiLz4mI3hhOwkJCTwvZz4mI3hhOwkJCTxnIGlkPSJzaGFwZTUyNDYtMTEiIHRyYW5zZm9ybT0idHJhbnNsYXRlKDAsLTE4KSI+JiN4YTsJCQkJPHRpdGxlIGlkPSJ0aXRsZTExMzM5OSI+bGluZTk2MTg8L3RpdGxlPiYjeGE7CQkJCSYjeGE7CQkJCQk8cGF0aCBpZD0icGF0aDExMzQwMSIgaW5rc2NhcGU6Y29ubmVjdG9yLWN1cnZhdHVyZT0iMCIgc3R5bGU9ImZpbGw6bm9uZTtzdHJva2U6IzRENEU0RTtzdHJva2Utd2lkdGg6MS41O3N0cm9rZS1taXRlcmxpbWl0OjM7IiBkPSIgICAgICBNMCwzNy41aDM1LjA5Ii8+JiN4YTsJCQk8L2c+JiN4YTsJCTwvZz4mI3hhOwkJPGcgaWQ9InNoYXBlNTI0Ny0xNCIgdHJhbnNmb3JtPSJ0cmFuc2xhdGUoNC4zNDk5OSwtMjcpIj4mI3hhOwkJCTx0aXRsZSBpZD0idGl0bGUxMTM0MDUiPnBhdGg5NjIyPC90aXRsZT4mI3hhOwkJCTxwYXRoIGlkPSJwYXRoMTEzNDA3IiBpbmtzY2FwZTpjb25uZWN0b3ItY3VydmF0dXJlPSIwIiBzdHlsZT0iZmlsbDpub25lOyIgZD0iTTAsMzUuNDdjMy4yOSwxLjI4LDguMTIsMi4wMywxMy40OSwyLjAzICAgICBzMTAuMi0wLjc1LDEzLjUtMi4wM0gweiIvPiYjeGE7CQkJJiN4YTsJCQkJPHBhdGggaWQ9InBhdGgxMTM0MDkiIGlua3NjYXBlOmNvbm5lY3Rvci1jdXJ2YXR1cmU9IjAiIHN0eWxlPSJmaWxsOm5vbmU7c3Ryb2tlOiM0RDRFNEU7c3Ryb2tlLXdpZHRoOjEuNTtzdHJva2UtbWl0ZXJsaW1pdDozOyIgZD0iICAgICBNMCwzNS40N2MzLjI5LDEuMjgsOC4xMiwyLjAzLDEzLjQ5LDIuMDNzMTAuMi0wLjc1LDEzLjUtMi4wMyIvPiYjeGE7CQk8L2c+JiN4YTsJCTxnIGlkPSJzaGFwZTUyNDgtMTciIHRyYW5zZm9ybT0idHJhbnNsYXRlKDQuMzQ5OTksLTYuOTY3NSkiPiYjeGE7CQkJPHRpdGxlIGlkPSJ0aXRsZTExMzQxMiI+cGF0aDk2MjQ8L3RpdGxlPiYjeGE7CQkJPHBhdGggaWQ9InBhdGgxMTM0MTQiIGlua3NjYXBlOmNvbm5lY3Rvci1jdXJ2YXR1cmU9IjAiIHN0eWxlPSJmaWxsOm5vbmU7IiBkPSJNMCwzNy41YzMuMjktMS4yOCw4LjEyLTIuMDMsMTMuNDktMi4wMyAgICAgczEwLjIsMC43NSwxMy41LDIuMDNIMHoiLz4mI3hhOwkJCSYjeGE7CQkJCTxwYXRoIGlkPSJwYXRoMTEzNDE2IiBpbmtzY2FwZTpjb25uZWN0b3ItY3VydmF0dXJlPSIwIiBzdHlsZT0iZmlsbDpub25lO3N0cm9rZTojNEQ0RTRFO3N0cm9rZS13aWR0aDoxLjU7c3Ryb2tlLW1pdGVybGltaXQ6MzsiIGQ9IiAgICAgTTAsMzcuNWMzLjI5LTEuMjgsOC4xMi0yLjAzLDEzLjQ5LTIuMDNzMTAuMiwwLjc1LDEzLjUsMi4wMyIvPiYjeGE7CQk8L2c+JiN4YTsJPC9nPiYjeGE7PC9nPiYjeGE7PC9zdmc+;labelBorderColor=#FF0000;fontSize=14;fontColor=none;strokeColor=#FF0000;fillColor=none;" vertex="1" parent="1">
          <mxGeometry x="494" y="1008" width="36" height="36" as="geometry" />
        </mxCell>
        <mxCell id="pGjpfpKULk_TTckn_0MS-50" value="&lt;p style=&quot;margin-bottom: 0cm&quot;&gt;&lt;font color=&quot;#0000ee&quot;&gt;&lt;u&gt;http://corpcate/NotificaCFDExtemporaneo_v06/service.asmx&lt;/u&gt;&lt;/font&gt;&lt;br&gt;&lt;/p&gt;" style="text;html=1;resizable=0;autosize=1;align=center;verticalAlign=middle;points=[];fillColor=none;strokeColor=none;rounded=0;" vertex="1" parent="1">
          <mxGeometry x="339" y="1036" width="340" height="30" as="geometry" />
        </mxCell>
        <mxCell id="pGjpfpKULk_TTckn_0MS-51" style="edgeStyle=orthogonalEdgeStyle;rounded=0;orthogonalLoop=1;jettySize=auto;html=1;fontSize=14;fontColor=none;" edge="1" parent="1">
          <mxGeometry relative="1" as="geometry">
            <mxPoint x="219" y="1029" as="sourcePoint" />
            <mxPoint x="469.0000000000002" y="1029" as="targetPoint" />
            <Array as="points">
              <mxPoint x="259" y="1029" />
              <mxPoint x="259" y="1029" />
            </Array>
          </mxGeometry>
        </mxCell>
        <mxCell id="pGjpfpKULk_TTckn_0MS-52" value="&lt;p style=&quot;margin-bottom: 0cm&quot;&gt;&lt;font style=&quot;font-size: 16px&quot;&gt;118 Original&lt;/font&gt;&lt;/p&gt;" style="text;html=1;resizable=0;autosize=1;align=center;verticalAlign=middle;points=[];fillColor=none;strokeColor=none;rounded=0;" vertex="1" parent="1">
          <mxGeometry x="227" y="1000" width="100" height="30" as="geometry" />
        </mxCell>
        <mxCell id="pGjpfpKULk_TTckn_0MS-54" value="&lt;p style=&quot;margin-bottom: 0cm&quot;&gt;&lt;font color=&quot;#000080&quot;&gt;&lt;span lang=&quot;zxx&quot;&gt;&lt;u&gt;&lt;a class=&quot;western&quot; href=&quot;http://192.168.180.43/facturaproveedor/factura.asmx&quot;&gt;&lt;font style=&quot;font-size: 11pt&quot;&gt;&lt;span lang=&quot;es-MX&quot;&gt;http://192.168.180.43/facturaproveedor/factura.asmx&lt;/span&gt;&lt;/font&gt;&lt;/a&gt;&lt;/u&gt;&lt;/span&gt;&lt;/font&gt;&lt;/p&gt;" style="text;html=1;resizable=0;autosize=1;align=center;verticalAlign=middle;points=[];fillColor=none;strokeColor=none;rounded=0;" vertex="1" parent="1">
          <mxGeometry x="327" y="1167" width="360" height="30" as="geometry" />
        </mxCell>
        <mxCell id="pGjpfpKULk_TTckn_0MS-55" style="edgeStyle=orthogonalEdgeStyle;rounded=0;orthogonalLoop=1;jettySize=auto;html=1;fontSize=14;fontColor=none;" edge="1" parent="1">
          <mxGeometry relative="1" as="geometry">
            <mxPoint x="220.00000000000023" y="1158.9999999999998" as="sourcePoint" />
            <mxPoint x="470.0000000000002" y="1158.9999999999998" as="targetPoint" />
            <Array as="points">
              <mxPoint x="260" y="1159" />
              <mxPoint x="260" y="1159" />
            </Array>
          </mxGeometry>
        </mxCell>
        <mxCell id="pGjpfpKULk_TTckn_0MS-56" value="&lt;p style=&quot;margin-bottom: 0cm&quot;&gt;&lt;font style=&quot;font-size: 16px&quot;&gt;SuperCity&lt;/font&gt;&lt;/p&gt;" style="text;html=1;resizable=0;autosize=1;align=center;verticalAlign=middle;points=[];fillColor=none;strokeColor=none;rounded=0;" vertex="1" parent="1">
          <mxGeometry x="230" y="1130" width="90" height="30" as="geometry" />
        </mxCell>
        <mxCell id="pGjpfpKULk_TTckn_0MS-57" value="" style="shape=image;verticalLabelPosition=bottom;labelBackgroundColor=#ffffff;verticalAlign=top;aspect=fixed;imageAspect=0;image=data:image/svg+xml,PHN2ZyB4bWxuczpjYz0iaHR0cDovL2NyZWF0aXZlY29tbW9ucy5vcmcvbnMjIiB4bWxuczpkYz0iaHR0cDovL3B1cmwub3JnL2RjL2VsZW1lbnRzLzEuMS8iIHhtbG5zOmlua3NjYXBlPSJodHRwOi8vd3d3Lmlua3NjYXBlLm9yZy9uYW1lc3BhY2VzL2lua3NjYXBlIiB4bWxuczpyZGY9Imh0dHA6Ly93d3cudzMub3JnLzE5OTkvMDIvMjItcmRmLXN5bnRheC1ucyMiIHhtbG5zOnNvZGlwb2RpPSJodHRwOi8vc29kaXBvZGkuc291cmNlZm9yZ2UubmV0L0RURC9zb2RpcG9kaS0wLmR0ZCIgeG1sbnM6c3ZnPSJodHRwOi8vd3d3LnczLm9yZy8yMDAwL3N2ZyIgeG1sbnM9Imh0dHA6Ly93d3cudzMub3JnLzIwMDAvc3ZnIiB4bWxuczp4bGluaz0iaHR0cDovL3d3dy53My5vcmcvMTk5OS94bGluayIgdmVyc2lvbj0iMS4xIiBpZD0ic3ZnMTEzNDIyIiBpbmtzY2FwZTp2ZXJzaW9uPSIwLjkyLjMgKDI0MDU1NDYsIDIwMTgtMDMtMTEpIiBzb2RpcG9kaTpkb2NuYW1lPSJ3ZWIuc3ZnIiB4PSIwcHgiIHk9IjBweCIgdmlld0JveD0iMCAwIDM2IDM2IiBzdHlsZT0iZW5hYmxlLWJhY2tncm91bmQ6bmV3IDAgMCAzNiAzNjsiIHhtbDpzcGFjZT0icHJlc2VydmUiPiYjeGE7PHNvZGlwb2RpOm5hbWVkdmlldyBib3JkZXJjb2xvcj0iIzY2NjY2NiIgYm9yZGVyb3BhY2l0eT0iMSIgZml0LW1hcmdpbi1ib3R0b209IjAiIGZpdC1tYXJnaW4tbGVmdD0iMCIgZml0LW1hcmdpbi1yaWdodD0iMCIgZml0LW1hcmdpbi10b3A9IjAiIGdyaWR0b2xlcmFuY2U9IjEwIiBndWlkZXRvbGVyYW5jZT0iMTAiIGlkPSJuYW1lZHZpZXcxMTM0MjQiIGlua3NjYXBlOmN1cnJlbnQtbGF5ZXI9InN2ZzExMzQyMiIgaW5rc2NhcGU6Y3g9IjIzLjYwNDk5IiBpbmtzY2FwZTpjeT0iMjMuOTk5OTc1IiBpbmtzY2FwZTpwYWdlb3BhY2l0eT0iMCIgaW5rc2NhcGU6cGFnZXNoYWRvdz0iMiIgaW5rc2NhcGU6d2luZG93LWhlaWdodD0iMTAxNyIgaW5rc2NhcGU6d2luZG93LW1heGltaXplZD0iMSIgaW5rc2NhcGU6d2luZG93LXdpZHRoPSIxOTIwIiBpbmtzY2FwZTp3aW5kb3cteD0iLTgiIGlua3NjYXBlOndpbmRvdy15PSItOCIgaW5rc2NhcGU6em9vbT0iMTcuMzQwMDExIiBvYmplY3R0b2xlcmFuY2U9IjEwIiBwYWdlY29sb3I9IiNmZmZmZmYiIHNob3dncmlkPSJmYWxzZSI+JiN4YTsJPC9zb2RpcG9kaTpuYW1lZHZpZXc+JiN4YTs8ZyBpZD0iZzExMzQyMCIgdHJhbnNmb3JtPSJ0cmFuc2xhdGUoLTEuMzQyNDksLTAuNzQ3OTIpIj4mI3hhOwk8dGl0bGUgaWQ9InRpdGxlMTEzMzczIj5QYWdlLTE8L3RpdGxlPiYjeGE7CTxnIGlkPSJncm91cDUyNDAtMSIgdHJhbnNmb3JtPSJ0cmFuc2xhdGUoMS41LC0wLjc1KSI+JiN4YTsJCTx0aXRsZSBpZD0idGl0bGUxMTMzNzUiPldlYjwvdGl0bGU+JiN4YTsJCTxnIGlkPSJzaGFwZTUyNDEtMiIgdHJhbnNmb3JtPSJ0cmFuc2xhdGUoNS4zNzk3NCwtNS41MzcyNCkiPiYjeGE7CQkJPHRpdGxlIGlkPSJ0aXRsZTExMzM3NyI+cGF0aDk2MTA8L3RpdGxlPiYjeGE7CQkJPHBhdGggaWQ9InBhdGgxMTMzNzkiIGlua3NjYXBlOmNvbm5lY3Rvci1jdXJ2YXR1cmU9IjAiIHN0eWxlPSJmaWxsOiNGRkZGRkY7IiBkPSJNMzAuMDksMjUuMDRjMCw5LjczLTcuOSwxNy42Mi0xNy42MywxNy42MiAgICAgYy05LjczLDAtMTcuNjItNy45LTE3LjYyLTE3LjYzYzAtOS43Myw3Ljg5LTE3LjYyLDE3LjYyLTE3LjYyQzIyLjE5LDcuNDIsMzAuMDgsMTUuMzEsMzAuMDksMjUuMDR6Ii8+JiN4YTsJCTwvZz4mI3hhOwkJPGcgaWQ9InNoYXBlNTI0Mi00IiB0cmFuc2Zvcm09InRyYW5zbGF0ZSgwLjIxNzQ5MiwtMC4zNzUpIj4mI3hhOwkJCTx0aXRsZSBpZD0idGl0bGUxMTMzODIiPnBhdGg5NjEyPC90aXRsZT4mI3hhOwkJCTxwYXRoIGlkPSJwYXRoMTEzMzg0IiBpbmtzY2FwZTpjb25uZWN0b3ItY3VydmF0dXJlPSIwIiBzdHlsZT0iZmlsbDojRDRFMkY1OyIgZD0iTTM1LjI1LDE5Ljg3YzAsOS43My03Ljg5LDE3LjYzLTE3LjYzLDE3LjYzICAgICBTMCwyOS42LDAsMTkuODdsMCwwSDM1LjI1eiIvPiYjeGE7CQk8L2c+JiN4YTsJCTxnIGlkPSJzaGFwZTUyNDMtNiIgdHJhbnNmb3JtPSJ0cmFuc2xhdGUoMS4zNDI0OSwtNS4yNzIwOCkiPiYjeGE7CQkJPHRpdGxlIGlkPSJ0aXRsZTExMzM4NyI+cGF0aDk2MTQ8L3RpdGxlPiYjeGE7CQkJPHBhdGggaWQ9InBhdGgxMTMzODkiIGlua3NjYXBlOmNvbm5lY3Rvci1jdXJ2YXR1cmU9IjAiIHN0eWxlPSJmaWxsOiM0RDRFNEU7IiBkPSJNMTYuNSw4LjI3YzkuMTEsMCwxNi41LDcuMzksMTYuNSwxNi41ICAgICBzLTcuMzksMTYuNS0xNi41LDE2LjVTMCwzMy44OCwwLDI0Ljc3UzcuMzksOC4yNywxNi41LDguMjd6IE0xNi41LDYuNzdjLTkuOTQsMC0xOCw4LjA2LTE4LDE4czguMDYsMTgsMTgsMThzMTgtOC4wNiwxOC0xOCAgICAgUzI2LjQ0LDYuNzcsMTYuNSw2Ljc3eiIvPiYjeGE7CQk8L2c+JiN4YTsJCTxnIGlkPSJncm91cDUyNDQtOCI+JiN4YTsJCQk8dGl0bGUgaWQ9InRpdGxlMTEzMzkyIj5nOTYyMDwvdGl0bGU+JiN4YTsJCQk8ZyBpZD0ic2hhcGU1MjQ1LTkiIHRyYW5zZm9ybT0idHJhbnNsYXRlKDkuNTkyNDkpIj4mI3hhOwkJCQk8dGl0bGUgaWQ9InRpdGxlMTEzMzk0Ij5wYXRoOTYxNjwvdGl0bGU+JiN4YTsJCQkJPHBhdGggaWQ9InBhdGgxMTMzOTYiIGlua3NjYXBlOmNvbm5lY3Rvci1jdXJ2YXR1cmU9IjAiIHN0eWxlPSJmaWxsOiM0RDRFNEU7IiBkPSJNNy44NywzLjJjMywwLDYuMzgsNy4wMSw2LjM4LDE2LjQgICAgICBjMCw5LjM4LTMuMzgsMTYuNC02LjM4LDE2LjRTMS41LDI4Ljk5LDEuNSwxOS42QzEuNSwxMC4yMiw0Ljg3LDMuMiw3Ljg3LDMuMnogTTcuODcsMS43QzMuNTIsMS43LDAsOS43MSwwLDE5LjYgICAgICBjMCw5Ljg4LDMuNTIsMTcuOSw3Ljg3LDE3LjlzNy44OC04LjAxLDcuODgtMTcuOUMxNS43NSw5LjcyLDEyLjIyLDEuNyw3Ljg3LDEuN3oiLz4mI3hhOwkJCTwvZz4mI3hhOwkJCTxnIGlkPSJzaGFwZTUyNDYtMTEiIHRyYW5zZm9ybT0idHJhbnNsYXRlKDAsLTE4KSI+JiN4YTsJCQkJPHRpdGxlIGlkPSJ0aXRsZTExMzM5OSI+bGluZTk2MTg8L3RpdGxlPiYjeGE7CQkJCSYjeGE7CQkJCQk8cGF0aCBpZD0icGF0aDExMzQwMSIgaW5rc2NhcGU6Y29ubmVjdG9yLWN1cnZhdHVyZT0iMCIgc3R5bGU9ImZpbGw6bm9uZTtzdHJva2U6IzRENEU0RTtzdHJva2Utd2lkdGg6MS41O3N0cm9rZS1taXRlcmxpbWl0OjM7IiBkPSIgICAgICBNMCwzNy41aDM1LjA5Ii8+JiN4YTsJCQk8L2c+JiN4YTsJCTwvZz4mI3hhOwkJPGcgaWQ9InNoYXBlNTI0Ny0xNCIgdHJhbnNmb3JtPSJ0cmFuc2xhdGUoNC4zNDk5OSwtMjcpIj4mI3hhOwkJCTx0aXRsZSBpZD0idGl0bGUxMTM0MDUiPnBhdGg5NjIyPC90aXRsZT4mI3hhOwkJCTxwYXRoIGlkPSJwYXRoMTEzNDA3IiBpbmtzY2FwZTpjb25uZWN0b3ItY3VydmF0dXJlPSIwIiBzdHlsZT0iZmlsbDpub25lOyIgZD0iTTAsMzUuNDdjMy4yOSwxLjI4LDguMTIsMi4wMywxMy40OSwyLjAzICAgICBzMTAuMi0wLjc1LDEzLjUtMi4wM0gweiIvPiYjeGE7CQkJJiN4YTsJCQkJPHBhdGggaWQ9InBhdGgxMTM0MDkiIGlua3NjYXBlOmNvbm5lY3Rvci1jdXJ2YXR1cmU9IjAiIHN0eWxlPSJmaWxsOm5vbmU7c3Ryb2tlOiM0RDRFNEU7c3Ryb2tlLXdpZHRoOjEuNTtzdHJva2UtbWl0ZXJsaW1pdDozOyIgZD0iICAgICBNMCwzNS40N2MzLjI5LDEuMjgsOC4xMiwyLjAzLDEzLjQ5LDIuMDNzMTAuMi0wLjc1LDEzLjUtMi4wMyIvPiYjeGE7CQk8L2c+JiN4YTsJCTxnIGlkPSJzaGFwZTUyNDgtMTciIHRyYW5zZm9ybT0idHJhbnNsYXRlKDQuMzQ5OTksLTYuOTY3NSkiPiYjeGE7CQkJPHRpdGxlIGlkPSJ0aXRsZTExMzQxMiI+cGF0aDk2MjQ8L3RpdGxlPiYjeGE7CQkJPHBhdGggaWQ9InBhdGgxMTM0MTQiIGlua3NjYXBlOmNvbm5lY3Rvci1jdXJ2YXR1cmU9IjAiIHN0eWxlPSJmaWxsOm5vbmU7IiBkPSJNMCwzNy41YzMuMjktMS4yOCw4LjEyLTIuMDMsMTMuNDktMi4wMyAgICAgczEwLjIsMC43NSwxMy41LDIuMDNIMHoiLz4mI3hhOwkJCSYjeGE7CQkJCTxwYXRoIGlkPSJwYXRoMTEzNDE2IiBpbmtzY2FwZTpjb25uZWN0b3ItY3VydmF0dXJlPSIwIiBzdHlsZT0iZmlsbDpub25lO3N0cm9rZTojNEQ0RTRFO3N0cm9rZS13aWR0aDoxLjU7c3Ryb2tlLW1pdGVybGltaXQ6MzsiIGQ9IiAgICAgTTAsMzcuNWMzLjI5LTEuMjgsOC4xMi0yLjAzLDEzLjQ5LTIuMDNzMTAuMiwwLjc1LDEzLjUsMi4wMyIvPiYjeGE7CQk8L2c+JiN4YTsJPC9nPiYjeGE7PC9nPiYjeGE7PC9zdmc+;labelBorderColor=#FF0000;fontSize=14;fontColor=none;strokeColor=#FF0000;fillColor=none;" vertex="1" parent="1">
          <mxGeometry x="492" y="1138" width="36" height="36" as="geometry" />
        </mxCell>
        <mxCell id="pGjpfpKULk_TTckn_0MS-59" style="edgeStyle=orthogonalEdgeStyle;rounded=0;orthogonalLoop=1;jettySize=auto;html=1;fontSize=14;fontColor=none;" edge="1" parent="1">
          <mxGeometry relative="1" as="geometry">
            <mxPoint x="220.00000000000023" y="1320.9999999999998" as="sourcePoint" />
            <mxPoint x="470.0000000000002" y="1320.9999999999998" as="targetPoint" />
            <Array as="points">
              <mxPoint x="260" y="1321" />
              <mxPoint x="260" y="1321" />
            </Array>
          </mxGeometry>
        </mxCell>
        <mxCell id="pGjpfpKULk_TTckn_0MS-60" value="" style="shape=image;verticalLabelPosition=bottom;labelBackgroundColor=#ffffff;verticalAlign=top;aspect=fixed;imageAspect=0;image=data:image/svg+xml,PHN2ZyB4bWxuczpjYz0iaHR0cDovL2NyZWF0aXZlY29tbW9ucy5vcmcvbnMjIiB4bWxuczpkYz0iaHR0cDovL3B1cmwub3JnL2RjL2VsZW1lbnRzLzEuMS8iIHhtbG5zOmlua3NjYXBlPSJodHRwOi8vd3d3Lmlua3NjYXBlLm9yZy9uYW1lc3BhY2VzL2lua3NjYXBlIiB4bWxuczpyZGY9Imh0dHA6Ly93d3cudzMub3JnLzE5OTkvMDIvMjItcmRmLXN5bnRheC1ucyMiIHhtbG5zOnNvZGlwb2RpPSJodHRwOi8vc29kaXBvZGkuc291cmNlZm9yZ2UubmV0L0RURC9zb2RpcG9kaS0wLmR0ZCIgeG1sbnM6c3ZnPSJodHRwOi8vd3d3LnczLm9yZy8yMDAwL3N2ZyIgeG1sbnM9Imh0dHA6Ly93d3cudzMub3JnLzIwMDAvc3ZnIiB4bWxuczp4bGluaz0iaHR0cDovL3d3dy53My5vcmcvMTk5OS94bGluayIgdmVyc2lvbj0iMS4xIiBpZD0ic3ZnMTEzNDIyIiBpbmtzY2FwZTp2ZXJzaW9uPSIwLjkyLjMgKDI0MDU1NDYsIDIwMTgtMDMtMTEpIiBzb2RpcG9kaTpkb2NuYW1lPSJ3ZWIuc3ZnIiB4PSIwcHgiIHk9IjBweCIgdmlld0JveD0iMCAwIDM2IDM2IiBzdHlsZT0iZW5hYmxlLWJhY2tncm91bmQ6bmV3IDAgMCAzNiAzNjsiIHhtbDpzcGFjZT0icHJlc2VydmUiPiYjeGE7PHNvZGlwb2RpOm5hbWVkdmlldyBib3JkZXJjb2xvcj0iIzY2NjY2NiIgYm9yZGVyb3BhY2l0eT0iMSIgZml0LW1hcmdpbi1ib3R0b209IjAiIGZpdC1tYXJnaW4tbGVmdD0iMCIgZml0LW1hcmdpbi1yaWdodD0iMCIgZml0LW1hcmdpbi10b3A9IjAiIGdyaWR0b2xlcmFuY2U9IjEwIiBndWlkZXRvbGVyYW5jZT0iMTAiIGlkPSJuYW1lZHZpZXcxMTM0MjQiIGlua3NjYXBlOmN1cnJlbnQtbGF5ZXI9InN2ZzExMzQyMiIgaW5rc2NhcGU6Y3g9IjIzLjYwNDk5IiBpbmtzY2FwZTpjeT0iMjMuOTk5OTc1IiBpbmtzY2FwZTpwYWdlb3BhY2l0eT0iMCIgaW5rc2NhcGU6cGFnZXNoYWRvdz0iMiIgaW5rc2NhcGU6d2luZG93LWhlaWdodD0iMTAxNyIgaW5rc2NhcGU6d2luZG93LW1heGltaXplZD0iMSIgaW5rc2NhcGU6d2luZG93LXdpZHRoPSIxOTIwIiBpbmtzY2FwZTp3aW5kb3cteD0iLTgiIGlua3NjYXBlOndpbmRvdy15PSItOCIgaW5rc2NhcGU6em9vbT0iMTcuMzQwMDExIiBvYmplY3R0b2xlcmFuY2U9IjEwIiBwYWdlY29sb3I9IiNmZmZmZmYiIHNob3dncmlkPSJmYWxzZSI+JiN4YTsJPC9zb2RpcG9kaTpuYW1lZHZpZXc+JiN4YTs8ZyBpZD0iZzExMzQyMCIgdHJhbnNmb3JtPSJ0cmFuc2xhdGUoLTEuMzQyNDksLTAuNzQ3OTIpIj4mI3hhOwk8dGl0bGUgaWQ9InRpdGxlMTEzMzczIj5QYWdlLTE8L3RpdGxlPiYjeGE7CTxnIGlkPSJncm91cDUyNDAtMSIgdHJhbnNmb3JtPSJ0cmFuc2xhdGUoMS41LC0wLjc1KSI+JiN4YTsJCTx0aXRsZSBpZD0idGl0bGUxMTMzNzUiPldlYjwvdGl0bGU+JiN4YTsJCTxnIGlkPSJzaGFwZTUyNDEtMiIgdHJhbnNmb3JtPSJ0cmFuc2xhdGUoNS4zNzk3NCwtNS41MzcyNCkiPiYjeGE7CQkJPHRpdGxlIGlkPSJ0aXRsZTExMzM3NyI+cGF0aDk2MTA8L3RpdGxlPiYjeGE7CQkJPHBhdGggaWQ9InBhdGgxMTMzNzkiIGlua3NjYXBlOmNvbm5lY3Rvci1jdXJ2YXR1cmU9IjAiIHN0eWxlPSJmaWxsOiNGRkZGRkY7IiBkPSJNMzAuMDksMjUuMDRjMCw5LjczLTcuOSwxNy42Mi0xNy42MywxNy42MiAgICAgYy05LjczLDAtMTcuNjItNy45LTE3LjYyLTE3LjYzYzAtOS43Myw3Ljg5LTE3LjYyLDE3LjYyLTE3LjYyQzIyLjE5LDcuNDIsMzAuMDgsMTUuMzEsMzAuMDksMjUuMDR6Ii8+JiN4YTsJCTwvZz4mI3hhOwkJPGcgaWQ9InNoYXBlNTI0Mi00IiB0cmFuc2Zvcm09InRyYW5zbGF0ZSgwLjIxNzQ5MiwtMC4zNzUpIj4mI3hhOwkJCTx0aXRsZSBpZD0idGl0bGUxMTMzODIiPnBhdGg5NjEyPC90aXRsZT4mI3hhOwkJCTxwYXRoIGlkPSJwYXRoMTEzMzg0IiBpbmtzY2FwZTpjb25uZWN0b3ItY3VydmF0dXJlPSIwIiBzdHlsZT0iZmlsbDojRDRFMkY1OyIgZD0iTTM1LjI1LDE5Ljg3YzAsOS43My03Ljg5LDE3LjYzLTE3LjYzLDE3LjYzICAgICBTMCwyOS42LDAsMTkuODdsMCwwSDM1LjI1eiIvPiYjeGE7CQk8L2c+JiN4YTsJCTxnIGlkPSJzaGFwZTUyNDMtNiIgdHJhbnNmb3JtPSJ0cmFuc2xhdGUoMS4zNDI0OSwtNS4yNzIwOCkiPiYjeGE7CQkJPHRpdGxlIGlkPSJ0aXRsZTExMzM4NyI+cGF0aDk2MTQ8L3RpdGxlPiYjeGE7CQkJPHBhdGggaWQ9InBhdGgxMTMzODkiIGlua3NjYXBlOmNvbm5lY3Rvci1jdXJ2YXR1cmU9IjAiIHN0eWxlPSJmaWxsOiM0RDRFNEU7IiBkPSJNMTYuNSw4LjI3YzkuMTEsMCwxNi41LDcuMzksMTYuNSwxNi41ICAgICBzLTcuMzksMTYuNS0xNi41LDE2LjVTMCwzMy44OCwwLDI0Ljc3UzcuMzksOC4yNywxNi41LDguMjd6IE0xNi41LDYuNzdjLTkuOTQsMC0xOCw4LjA2LTE4LDE4czguMDYsMTgsMTgsMThzMTgtOC4wNiwxOC0xOCAgICAgUzI2LjQ0LDYuNzcsMTYuNSw2Ljc3eiIvPiYjeGE7CQk8L2c+JiN4YTsJCTxnIGlkPSJncm91cDUyNDQtOCI+JiN4YTsJCQk8dGl0bGUgaWQ9InRpdGxlMTEzMzkyIj5nOTYyMDwvdGl0bGU+JiN4YTsJCQk8ZyBpZD0ic2hhcGU1MjQ1LTkiIHRyYW5zZm9ybT0idHJhbnNsYXRlKDkuNTkyNDkpIj4mI3hhOwkJCQk8dGl0bGUgaWQ9InRpdGxlMTEzMzk0Ij5wYXRoOTYxNjwvdGl0bGU+JiN4YTsJCQkJPHBhdGggaWQ9InBhdGgxMTMzOTYiIGlua3NjYXBlOmNvbm5lY3Rvci1jdXJ2YXR1cmU9IjAiIHN0eWxlPSJmaWxsOiM0RDRFNEU7IiBkPSJNNy44NywzLjJjMywwLDYuMzgsNy4wMSw2LjM4LDE2LjQgICAgICBjMCw5LjM4LTMuMzgsMTYuNC02LjM4LDE2LjRTMS41LDI4Ljk5LDEuNSwxOS42QzEuNSwxMC4yMiw0Ljg3LDMuMiw3Ljg3LDMuMnogTTcuODcsMS43QzMuNTIsMS43LDAsOS43MSwwLDE5LjYgICAgICBjMCw5Ljg4LDMuNTIsMTcuOSw3Ljg3LDE3LjlzNy44OC04LjAxLDcuODgtMTcuOUMxNS43NSw5LjcyLDEyLjIyLDEuNyw3Ljg3LDEuN3oiLz4mI3hhOwkJCTwvZz4mI3hhOwkJCTxnIGlkPSJzaGFwZTUyNDYtMTEiIHRyYW5zZm9ybT0idHJhbnNsYXRlKDAsLTE4KSI+JiN4YTsJCQkJPHRpdGxlIGlkPSJ0aXRsZTExMzM5OSI+bGluZTk2MTg8L3RpdGxlPiYjeGE7CQkJCSYjeGE7CQkJCQk8cGF0aCBpZD0icGF0aDExMzQwMSIgaW5rc2NhcGU6Y29ubmVjdG9yLWN1cnZhdHVyZT0iMCIgc3R5bGU9ImZpbGw6bm9uZTtzdHJva2U6IzRENEU0RTtzdHJva2Utd2lkdGg6MS41O3N0cm9rZS1taXRlcmxpbWl0OjM7IiBkPSIgICAgICBNMCwzNy41aDM1LjA5Ii8+JiN4YTsJCQk8L2c+JiN4YTsJCTwvZz4mI3hhOwkJPGcgaWQ9InNoYXBlNTI0Ny0xNCIgdHJhbnNmb3JtPSJ0cmFuc2xhdGUoNC4zNDk5OSwtMjcpIj4mI3hhOwkJCTx0aXRsZSBpZD0idGl0bGUxMTM0MDUiPnBhdGg5NjIyPC90aXRsZT4mI3hhOwkJCTxwYXRoIGlkPSJwYXRoMTEzNDA3IiBpbmtzY2FwZTpjb25uZWN0b3ItY3VydmF0dXJlPSIwIiBzdHlsZT0iZmlsbDpub25lOyIgZD0iTTAsMzUuNDdjMy4yOSwxLjI4LDguMTIsMi4wMywxMy40OSwyLjAzICAgICBzMTAuMi0wLjc1LDEzLjUtMi4wM0gweiIvPiYjeGE7CQkJJiN4YTsJCQkJPHBhdGggaWQ9InBhdGgxMTM0MDkiIGlua3NjYXBlOmNvbm5lY3Rvci1jdXJ2YXR1cmU9IjAiIHN0eWxlPSJmaWxsOm5vbmU7c3Ryb2tlOiM0RDRFNEU7c3Ryb2tlLXdpZHRoOjEuNTtzdHJva2UtbWl0ZXJsaW1pdDozOyIgZD0iICAgICBNMCwzNS40N2MzLjI5LDEuMjgsOC4xMiwyLjAzLDEzLjQ5LDIuMDNzMTAuMi0wLjc1LDEzLjUtMi4wMyIvPiYjeGE7CQk8L2c+JiN4YTsJCTxnIGlkPSJzaGFwZTUyNDgtMTciIHRyYW5zZm9ybT0idHJhbnNsYXRlKDQuMzQ5OTksLTYuOTY3NSkiPiYjeGE7CQkJPHRpdGxlIGlkPSJ0aXRsZTExMzQxMiI+cGF0aDk2MjQ8L3RpdGxlPiYjeGE7CQkJPHBhdGggaWQ9InBhdGgxMTM0MTQiIGlua3NjYXBlOmNvbm5lY3Rvci1jdXJ2YXR1cmU9IjAiIHN0eWxlPSJmaWxsOm5vbmU7IiBkPSJNMCwzNy41YzMuMjktMS4yOCw4LjEyLTIuMDMsMTMuNDktMi4wMyAgICAgczEwLjIsMC43NSwxMy41LDIuMDNIMHoiLz4mI3hhOwkJCSYjeGE7CQkJCTxwYXRoIGlkPSJwYXRoMTEzNDE2IiBpbmtzY2FwZTpjb25uZWN0b3ItY3VydmF0dXJlPSIwIiBzdHlsZT0iZmlsbDpub25lO3N0cm9rZTojNEQ0RTRFO3N0cm9rZS13aWR0aDoxLjU7c3Ryb2tlLW1pdGVybGltaXQ6MzsiIGQ9IiAgICAgTTAsMzcuNWMzLjI5LTEuMjgsOC4xMi0yLjAzLDEzLjQ5LTIuMDNzMTAuMiwwLjc1LDEzLjUsMi4wMyIvPiYjeGE7CQk8L2c+JiN4YTsJPC9nPiYjeGE7PC9nPiYjeGE7PC9zdmc+;labelBorderColor=#FF0000;fontSize=14;fontColor=none;strokeColor=#FF0000;fillColor=none;" vertex="1" parent="1">
          <mxGeometry x="482" y="1300" width="36" height="36" as="geometry" />
        </mxCell>
        <mxCell id="pGjpfpKULk_TTckn_0MS-61" value="&lt;p style=&quot;margin-bottom: 0cm&quot;&gt;&lt;font color=&quot;#000080&quot;&gt;&lt;span lang=&quot;zxx&quot;&gt;&lt;u&gt;&lt;a class=&quot;western&quot; href=&quot;http://192.168.180.43/facturaproveedor/factura.asmx&quot;&gt;&lt;font style=&quot;font-size: 11pt&quot;&gt;&lt;span lang=&quot;es-MX&quot;&gt;http://192.168.180.43/facturaproveedor/factura.asmx&lt;/span&gt;&lt;/font&gt;&lt;/a&gt;&lt;/u&gt;&lt;/span&gt;&lt;/font&gt;&lt;/p&gt;" style="text;html=1;resizable=0;autosize=1;align=center;verticalAlign=middle;points=[];fillColor=none;strokeColor=none;rounded=0;" vertex="1" parent="1">
          <mxGeometry x="317" y="1328" width="360" height="30" as="geometry" />
        </mxCell>
        <mxCell id="pGjpfpKULk_TTckn_0MS-62" value="&lt;p style=&quot;margin-bottom: 0cm&quot;&gt;&lt;font style=&quot;font-size: 16px&quot;&gt;Remision Electronica&lt;/font&gt;&lt;/p&gt;" style="text;html=1;resizable=0;autosize=1;align=center;verticalAlign=middle;points=[];fillColor=none;strokeColor=none;rounded=0;" vertex="1" parent="1">
          <mxGeometry x="219" y="1290" width="170" height="30" as="geometry" />
        </mxCell>
        <mxCell id="pGjpfpKULk_TTckn_0MS-115" style="edgeStyle=orthogonalEdgeStyle;rounded=0;orthogonalLoop=1;jettySize=auto;html=1;exitX=1;exitY=0.5;exitDx=0;exitDy=0;entryX=0;entryY=0.5;entryDx=0;entryDy=0;fontSize=14;fontColor=none;" edge="1" parent="1" source="pGjpfpKULk_TTckn_0MS-111" target="pGjpfpKULk_TTckn_0MS-113">
          <mxGeometry relative="1" as="geometry" />
        </mxCell>
        <mxCell id="pGjpfpKULk_TTckn_0MS-111" value="" style="shape=image;verticalLabelPosition=bottom;labelBackgroundColor=#ffffff;verticalAlign=top;aspect=fixed;imageAspect=0;image=data:image/svg+xml,PHN2ZyB4bWxuczpjYz0iaHR0cDovL2NyZWF0aXZlY29tbW9ucy5vcmcvbnMjIiB4bWxuczpkYz0iaHR0cDovL3B1cmwub3JnL2RjL2VsZW1lbnRzLzEuMS8iIHhtbG5zOmlua3NjYXBlPSJodHRwOi8vd3d3Lmlua3NjYXBlLm9yZy9uYW1lc3BhY2VzL2lua3NjYXBlIiB4bWxuczpyZGY9Imh0dHA6Ly93d3cudzMub3JnLzE5OTkvMDIvMjItcmRmLXN5bnRheC1ucyMiIHhtbG5zOnNvZGlwb2RpPSJodHRwOi8vc29kaXBvZGkuc291cmNlZm9yZ2UubmV0L0RURC9zb2RpcG9kaS0wLmR0ZCIgeG1sbnM6c3ZnPSJodHRwOi8vd3d3LnczLm9yZy8yMDAwL3N2ZyIgeG1sbnM9Imh0dHA6Ly93d3cudzMub3JnLzIwMDAvc3ZnIiB4bWxuczp4bGluaz0iaHR0cDovL3d3dy53My5vcmcvMTk5OS94bGluayIgdmVyc2lvbj0iMS4xIiBpZD0ic3ZnMTEzNDIyIiBpbmtzY2FwZTp2ZXJzaW9uPSIwLjkyLjMgKDI0MDU1NDYsIDIwMTgtMDMtMTEpIiBzb2RpcG9kaTpkb2NuYW1lPSJ3ZWIuc3ZnIiB4PSIwcHgiIHk9IjBweCIgdmlld0JveD0iMCAwIDM2IDM2IiBzdHlsZT0iZW5hYmxlLWJhY2tncm91bmQ6bmV3IDAgMCAzNiAzNjsiIHhtbDpzcGFjZT0icHJlc2VydmUiPiYjeGE7PHNvZGlwb2RpOm5hbWVkdmlldyBib3JkZXJjb2xvcj0iIzY2NjY2NiIgYm9yZGVyb3BhY2l0eT0iMSIgZml0LW1hcmdpbi1ib3R0b209IjAiIGZpdC1tYXJnaW4tbGVmdD0iMCIgZml0LW1hcmdpbi1yaWdodD0iMCIgZml0LW1hcmdpbi10b3A9IjAiIGdyaWR0b2xlcmFuY2U9IjEwIiBndWlkZXRvbGVyYW5jZT0iMTAiIGlkPSJuYW1lZHZpZXcxMTM0MjQiIGlua3NjYXBlOmN1cnJlbnQtbGF5ZXI9InN2ZzExMzQyMiIgaW5rc2NhcGU6Y3g9IjIzLjYwNDk5IiBpbmtzY2FwZTpjeT0iMjMuOTk5OTc1IiBpbmtzY2FwZTpwYWdlb3BhY2l0eT0iMCIgaW5rc2NhcGU6cGFnZXNoYWRvdz0iMiIgaW5rc2NhcGU6d2luZG93LWhlaWdodD0iMTAxNyIgaW5rc2NhcGU6d2luZG93LW1heGltaXplZD0iMSIgaW5rc2NhcGU6d2luZG93LXdpZHRoPSIxOTIwIiBpbmtzY2FwZTp3aW5kb3cteD0iLTgiIGlua3NjYXBlOndpbmRvdy15PSItOCIgaW5rc2NhcGU6em9vbT0iMTcuMzQwMDExIiBvYmplY3R0b2xlcmFuY2U9IjEwIiBwYWdlY29sb3I9IiNmZmZmZmYiIHNob3dncmlkPSJmYWxzZSI+JiN4YTsJPC9zb2RpcG9kaTpuYW1lZHZpZXc+JiN4YTs8ZyBpZD0iZzExMzQyMCIgdHJhbnNmb3JtPSJ0cmFuc2xhdGUoLTEuMzQyNDksLTAuNzQ3OTIpIj4mI3hhOwk8dGl0bGUgaWQ9InRpdGxlMTEzMzczIj5QYWdlLTE8L3RpdGxlPiYjeGE7CTxnIGlkPSJncm91cDUyNDAtMSIgdHJhbnNmb3JtPSJ0cmFuc2xhdGUoMS41LC0wLjc1KSI+JiN4YTsJCTx0aXRsZSBpZD0idGl0bGUxMTMzNzUiPldlYjwvdGl0bGU+JiN4YTsJCTxnIGlkPSJzaGFwZTUyNDEtMiIgdHJhbnNmb3JtPSJ0cmFuc2xhdGUoNS4zNzk3NCwtNS41MzcyNCkiPiYjeGE7CQkJPHRpdGxlIGlkPSJ0aXRsZTExMzM3NyI+cGF0aDk2MTA8L3RpdGxlPiYjeGE7CQkJPHBhdGggaWQ9InBhdGgxMTMzNzkiIGlua3NjYXBlOmNvbm5lY3Rvci1jdXJ2YXR1cmU9IjAiIHN0eWxlPSJmaWxsOiNGRkZGRkY7IiBkPSJNMzAuMDksMjUuMDRjMCw5LjczLTcuOSwxNy42Mi0xNy42MywxNy42MiAgICAgYy05LjczLDAtMTcuNjItNy45LTE3LjYyLTE3LjYzYzAtOS43Myw3Ljg5LTE3LjYyLDE3LjYyLTE3LjYyQzIyLjE5LDcuNDIsMzAuMDgsMTUuMzEsMzAuMDksMjUuMDR6Ii8+JiN4YTsJCTwvZz4mI3hhOwkJPGcgaWQ9InNoYXBlNTI0Mi00IiB0cmFuc2Zvcm09InRyYW5zbGF0ZSgwLjIxNzQ5MiwtMC4zNzUpIj4mI3hhOwkJCTx0aXRsZSBpZD0idGl0bGUxMTMzODIiPnBhdGg5NjEyPC90aXRsZT4mI3hhOwkJCTxwYXRoIGlkPSJwYXRoMTEzMzg0IiBpbmtzY2FwZTpjb25uZWN0b3ItY3VydmF0dXJlPSIwIiBzdHlsZT0iZmlsbDojRDRFMkY1OyIgZD0iTTM1LjI1LDE5Ljg3YzAsOS43My03Ljg5LDE3LjYzLTE3LjYzLDE3LjYzICAgICBTMCwyOS42LDAsMTkuODdsMCwwSDM1LjI1eiIvPiYjeGE7CQk8L2c+JiN4YTsJCTxnIGlkPSJzaGFwZTUyNDMtNiIgdHJhbnNmb3JtPSJ0cmFuc2xhdGUoMS4zNDI0OSwtNS4yNzIwOCkiPiYjeGE7CQkJPHRpdGxlIGlkPSJ0aXRsZTExMzM4NyI+cGF0aDk2MTQ8L3RpdGxlPiYjeGE7CQkJPHBhdGggaWQ9InBhdGgxMTMzODkiIGlua3NjYXBlOmNvbm5lY3Rvci1jdXJ2YXR1cmU9IjAiIHN0eWxlPSJmaWxsOiM0RDRFNEU7IiBkPSJNMTYuNSw4LjI3YzkuMTEsMCwxNi41LDcuMzksMTYuNSwxNi41ICAgICBzLTcuMzksMTYuNS0xNi41LDE2LjVTMCwzMy44OCwwLDI0Ljc3UzcuMzksOC4yNywxNi41LDguMjd6IE0xNi41LDYuNzdjLTkuOTQsMC0xOCw4LjA2LTE4LDE4czguMDYsMTgsMTgsMThzMTgtOC4wNiwxOC0xOCAgICAgUzI2LjQ0LDYuNzcsMTYuNSw2Ljc3eiIvPiYjeGE7CQk8L2c+JiN4YTsJCTxnIGlkPSJncm91cDUyNDQtOCI+JiN4YTsJCQk8dGl0bGUgaWQ9InRpdGxlMTEzMzkyIj5nOTYyMDwvdGl0bGU+JiN4YTsJCQk8ZyBpZD0ic2hhcGU1MjQ1LTkiIHRyYW5zZm9ybT0idHJhbnNsYXRlKDkuNTkyNDkpIj4mI3hhOwkJCQk8dGl0bGUgaWQ9InRpdGxlMTEzMzk0Ij5wYXRoOTYxNjwvdGl0bGU+JiN4YTsJCQkJPHBhdGggaWQ9InBhdGgxMTMzOTYiIGlua3NjYXBlOmNvbm5lY3Rvci1jdXJ2YXR1cmU9IjAiIHN0eWxlPSJmaWxsOiM0RDRFNEU7IiBkPSJNNy44NywzLjJjMywwLDYuMzgsNy4wMSw2LjM4LDE2LjQgICAgICBjMCw5LjM4LTMuMzgsMTYuNC02LjM4LDE2LjRTMS41LDI4Ljk5LDEuNSwxOS42QzEuNSwxMC4yMiw0Ljg3LDMuMiw3Ljg3LDMuMnogTTcuODcsMS43QzMuNTIsMS43LDAsOS43MSwwLDE5LjYgICAgICBjMCw5Ljg4LDMuNTIsMTcuOSw3Ljg3LDE3LjlzNy44OC04LjAxLDcuODgtMTcuOUMxNS43NSw5LjcyLDEyLjIyLDEuNyw3Ljg3LDEuN3oiLz4mI3hhOwkJCTwvZz4mI3hhOwkJCTxnIGlkPSJzaGFwZTUyNDYtMTEiIHRyYW5zZm9ybT0idHJhbnNsYXRlKDAsLTE4KSI+JiN4YTsJCQkJPHRpdGxlIGlkPSJ0aXRsZTExMzM5OSI+bGluZTk2MTg8L3RpdGxlPiYjeGE7CQkJCSYjeGE7CQkJCQk8cGF0aCBpZD0icGF0aDExMzQwMSIgaW5rc2NhcGU6Y29ubmVjdG9yLWN1cnZhdHVyZT0iMCIgc3R5bGU9ImZpbGw6bm9uZTtzdHJva2U6IzRENEU0RTtzdHJva2Utd2lkdGg6MS41O3N0cm9rZS1taXRlcmxpbWl0OjM7IiBkPSIgICAgICBNMCwzNy41aDM1LjA5Ii8+JiN4YTsJCQk8L2c+JiN4YTsJCTwvZz4mI3hhOwkJPGcgaWQ9InNoYXBlNTI0Ny0xNCIgdHJhbnNmb3JtPSJ0cmFuc2xhdGUoNC4zNDk5OSwtMjcpIj4mI3hhOwkJCTx0aXRsZSBpZD0idGl0bGUxMTM0MDUiPnBhdGg5NjIyPC90aXRsZT4mI3hhOwkJCTxwYXRoIGlkPSJwYXRoMTEzNDA3IiBpbmtzY2FwZTpjb25uZWN0b3ItY3VydmF0dXJlPSIwIiBzdHlsZT0iZmlsbDpub25lOyIgZD0iTTAsMzUuNDdjMy4yOSwxLjI4LDguMTIsMi4wMywxMy40OSwyLjAzICAgICBzMTAuMi0wLjc1LDEzLjUtMi4wM0gweiIvPiYjeGE7CQkJJiN4YTsJCQkJPHBhdGggaWQ9InBhdGgxMTM0MDkiIGlua3NjYXBlOmNvbm5lY3Rvci1jdXJ2YXR1cmU9IjAiIHN0eWxlPSJmaWxsOm5vbmU7c3Ryb2tlOiM0RDRFNEU7c3Ryb2tlLXdpZHRoOjEuNTtzdHJva2UtbWl0ZXJsaW1pdDozOyIgZD0iICAgICBNMCwzNS40N2MzLjI5LDEuMjgsOC4xMiwyLjAzLDEzLjQ5LDIuMDNzMTAuMi0wLjc1LDEzLjUtMi4wMyIvPiYjeGE7CQk8L2c+JiN4YTsJCTxnIGlkPSJzaGFwZTUyNDgtMTciIHRyYW5zZm9ybT0idHJhbnNsYXRlKDQuMzQ5OTksLTYuOTY3NSkiPiYjeGE7CQkJPHRpdGxlIGlkPSJ0aXRsZTExMzQxMiI+cGF0aDk2MjQ8L3RpdGxlPiYjeGE7CQkJPHBhdGggaWQ9InBhdGgxMTM0MTQiIGlua3NjYXBlOmNvbm5lY3Rvci1jdXJ2YXR1cmU9IjAiIHN0eWxlPSJmaWxsOm5vbmU7IiBkPSJNMCwzNy41YzMuMjktMS4yOCw4LjEyLTIuMDMsMTMuNDktMi4wMyAgICAgczEwLjIsMC43NSwxMy41LDIuMDNIMHoiLz4mI3hhOwkJCSYjeGE7CQkJCTxwYXRoIGlkPSJwYXRoMTEzNDE2IiBpbmtzY2FwZTpjb25uZWN0b3ItY3VydmF0dXJlPSIwIiBzdHlsZT0iZmlsbDpub25lO3N0cm9rZTojNEQ0RTRFO3N0cm9rZS13aWR0aDoxLjU7c3Ryb2tlLW1pdGVybGltaXQ6MzsiIGQ9IiAgICAgTTAsMzcuNWMzLjI5LTEuMjgsOC4xMi0yLjAzLDEzLjQ5LTIuMDNzMTAuMiwwLjc1LDEzLjUsMi4wMyIvPiYjeGE7CQk8L2c+JiN4YTsJPC9nPiYjeGE7PC9nPiYjeGE7PC9zdmc+;labelBorderColor=#FF0000;fontSize=14;fontColor=none;strokeColor=#FF0000;fillColor=none;" vertex="1" parent="1">
          <mxGeometry x="482" y="600" width="36" height="36" as="geometry" />
        </mxCell>
        <mxCell id="pGjpfpKULk_TTckn_0MS-113" value="" style="shape=image;verticalLabelPosition=bottom;labelBackgroundColor=#ffffff;verticalAlign=top;aspect=fixed;imageAspect=0;image=data:image/svg+xml,PHN2ZyB4bWxuczpjYz0iaHR0cDovL2NyZWF0aXZlY29tbW9ucy5vcmcvbnMjIiB4bWxuczpkYz0iaHR0cDovL3B1cmwub3JnL2RjL2VsZW1lbnRzLzEuMS8iIHhtbG5zOmlua3NjYXBlPSJodHRwOi8vd3d3Lmlua3NjYXBlLm9yZy9uYW1lc3BhY2VzL2lua3NjYXBlIiB4bWxuczpyZGY9Imh0dHA6Ly93d3cudzMub3JnLzE5OTkvMDIvMjItcmRmLXN5bnRheC1ucyMiIHhtbG5zOnNvZGlwb2RpPSJodHRwOi8vc29kaXBvZGkuc291cmNlZm9yZ2UubmV0L0RURC9zb2RpcG9kaS0wLmR0ZCIgeG1sbnM6c3ZnPSJodHRwOi8vd3d3LnczLm9yZy8yMDAwL3N2ZyIgeG1sbnM9Imh0dHA6Ly93d3cudzMub3JnLzIwMDAvc3ZnIiB4bWxuczp4bGluaz0iaHR0cDovL3d3dy53My5vcmcvMTk5OS94bGluayIgdmVyc2lvbj0iMS4xIiBpZD0ic3ZnMjUzOTI0IiBpbmtzY2FwZTp2ZXJzaW9uPSIwLjkyLjMgKDI0MDU1NDYsIDIwMTgtMDMtMTEpIiBzb2RpcG9kaTpkb2NuYW1lPSJzYXAuc3ZnIiB4PSIwcHgiIHk9IjBweCIgdmlld0JveD0iMCAwIDUwLjE4IDI0Ljg3IiBzdHlsZT0iZW5hYmxlLWJhY2tncm91bmQ6bmV3IDAgMCA1MC4xOCAyNC44NzsiIHhtbDpzcGFjZT0icHJlc2VydmUiPiYjeGE7PHNvZGlwb2RpOm5hbWVkdmlldyBib3JkZXJjb2xvcj0iIzY2NjY2NiIgYm9yZGVyb3BhY2l0eT0iMSIgZml0LW1hcmdpbi1ib3R0b209IjAiIGZpdC1tYXJnaW4tbGVmdD0iMCIgZml0LW1hcmdpbi1yaWdodD0iMCIgZml0LW1hcmdpbi10b3A9IjAiIGdyaWR0b2xlcmFuY2U9IjEwIiBndWlkZXRvbGVyYW5jZT0iMTAiIGlkPSJuYW1lZHZpZXcyNTM5MjYiIGlua3NjYXBlOmN1cnJlbnQtbGF5ZXI9InN2ZzI1MzkyNCIgaW5rc2NhcGU6Y3g9IjMzLjQ1NTg3IiBpbmtzY2FwZTpjeT0iMTYuNTc3OTY3IiBpbmtzY2FwZTpwYWdlb3BhY2l0eT0iMCIgaW5rc2NhcGU6cGFnZXNoYWRvdz0iMiIgaW5rc2NhcGU6d2luZG93LWhlaWdodD0iMTAxNyIgaW5rc2NhcGU6d2luZG93LW1heGltaXplZD0iMSIgaW5rc2NhcGU6d2luZG93LXdpZHRoPSIxOTIwIiBpbmtzY2FwZTp3aW5kb3cteD0iLTgiIGlua3NjYXBlOndpbmRvdy15PSItOCIgaW5rc2NhcGU6em9vbT0iMjQuNjU1OTQ0IiBvYmplY3R0b2xlcmFuY2U9IjEwIiBwYWdlY29sb3I9IiNmZmZmZmYiIHNob3dncmlkPSJmYWxzZSI+JiN4YTsJPC9zb2RpcG9kaTpuYW1lZHZpZXc+JiN4YTs8ZyBpZD0iZzI1MzkyMiIgdHJhbnNmb3JtPSJ0cmFuc2xhdGUoLTAuNzUwMDUxNzEsLTAuNzUyNjgxNykiPiYjeGE7CTx0aXRsZSBpZD0idGl0bGUyNTM5MDIiPlBhZ2UtMTwvdGl0bGU+JiN4YTsJPGcgaWQ9Imdyb3VwNTgwMS0xIiB0cmFuc2Zvcm09InRyYW5zbGF0ZSgwLjc1LC0wLjc1KSI+JiN4YTsJCTx0aXRsZSBpZD0idGl0bGUyNTM5MDQiPlNBUDwvdGl0bGU+JiN4YTsJCTxnIGlkPSJzaGFwZTU4MDItMiIgdHJhbnNmb3JtPSJ0cmFuc2xhdGUoMCwtMC4wMzczMTgzKSI+JiN4YTsJCQk8dGl0bGUgaWQ9InRpdGxlMjUzOTA2Ij5wYXRoMjUwMzA8L3RpdGxlPiYjeGE7CQkJPHBhdGggaWQ9InBhdGgyNTM5MDgiIGlua3NjYXBlOmNvbm5lY3Rvci1jdXJ2YXR1cmU9IjAiIHN0eWxlPSJmaWxsOiMwMTQxODU7IiBkPSJNMCwyNi4zN2gyNS4zNEw1MC4xOCwxLjU0SDBWMjYuMzd6Ii8+JiN4YTsJCTwvZz4mI3hhOwkJPGcgaWQ9InNoYXBlNTgwMy00IiB0cmFuc2Zvcm09InRyYW5zbGF0ZSgwLjY4NzQ1MSwtNC41ODUzKSI+JiN4YTsJCQk8dGl0bGUgaWQ9InRpdGxlMjUzOTExIj5wYXRoMjUwMzI8L3RpdGxlPiYjeGE7CQkJPHBhdGggaWQ9InBhdGgyNTM5MTMiIGlua3NjYXBlOmNvbm5lY3Rvci1jdXJ2YXR1cmU9IjAiIHN0eWxlPSJmaWxsOiNGRkZGRkY7IiBkPSJNMjkuMDcsMTAuNzVoLTQuOTFWMjIuNWwtNC4zMi0xMS43NWgtNC4yMyAgICAgbC0zLjczLDkuODNjLTAuMzktMi40OC0yLjk0LTMuMzMtNS4wMS0zLjk3Yy0xLjI3LTAuNDMtMi43NS0xLjA3LTIuNjUtMS43NmMwLTAuNTcsMC42OS0xLjEsMi4xNi0xLjAyICAgICBjMC45OSwwLjA1LDEuODcsMC4xMywzLjY0LDAuOThsMS43Ni0zYy0xLjY2LTAuODEtMy44My0xLjMyLTUuNTktMS4zMmMtMi4xNiwwLTMuOTMsMC42OC01LjAxLDEuODFDMC40OSwxMy4wOCwwLDE0LjA3LDAsMTUuMTggICAgIGMwLDEuNTEsMC41OSwyLjU5LDEuNjcsMy40NWMxLjA4LDAuNzIsMi4yNiwxLjE5LDMuNDQsMS41NGMxLjM3LDAuNDIsMi40NSwwLjc5LDIuNDUsMS41OGMwLDAuMjktMC4xLDAuNTYtMC4yOSwwLjc3ICAgICBjLTAuNCwwLjM1LTAuODksMC40OC0xLjY3LDAuNWMtMS4zOCwwLjAzLTIuMzYtMC4xOS00LjAzLTEuMTdMMCwyNC44OGMxLjY3LDAuOTQsMy42MywxLjQ5LDUuNiwxLjQ5aDAuMjkgICAgIGMxLjY3LTAuMDMsMy4xNS0wLjUzLDQuMjMtMS40M2MwLjA5LTAuMDUsMC4wOS0wLjEsMC4xOS0wLjE1bC0wLjQ5LDEuMzJoNC41MmwwLjY5LTIuMjljMC43OCwwLjI3LDEuNjcsMC40MiwyLjY1LDAuNDIgICAgIGMwLjk4LDAsMS43Ny0wLjE1LDIuNTUtMC40bDAuNzksMi4yN2g3LjI2di00Ljc0aDEuNjdjMy44MywwLDYuMDktMS45Nyw2LjA5LTUuMjZDMzYuMDQsMTIuNDQsMzMuODgsMTAuNzUsMjkuMDcsMTAuNzV6ICAgICAgTTE3LjY4LDIwLjgxYy0wLjU5LDAtMS4wOC0wLjEtMS41Ny0wLjI4bDEuNTctNC45NGwxLjU3LDQuOTZDMTguNzYsMjAuNzEsMTguMjcsMjAuODEsMTcuNjgsMjAuODF6IE0yOS4zNiwxNy45N2gtMS4wOHYtMy45OSAgICAgaDEuMDhjMS40OCwwLDIuNjYsMC40OSwyLjY2LDEuOThDMzIuMDIsMTcuNDksMzAuODQsMTcuOTcsMjkuMzYsMTcuOTd6Ii8+JiN4YTsJCTwvZz4mI3hhOwkJPGcgaWQ9InNoYXBlNTgwNC02IiB0cmFuc2Zvcm09InRyYW5zbGF0ZSgzMS4xMzE3KSI+JiN4YTsJCQk8dGl0bGUgaWQ9InRpdGxlMjUzOTE2Ij5wYXRoMjUwMzQ8L3RpdGxlPiYjeGE7CQkJPHBhdGggaWQ9InBhdGgyNTM5MTgiIGlua3NjYXBlOmNvbm5lY3Rvci1jdXJ2YXR1cmU9IjAiIHN0eWxlPSJmaWxsOiMwMTQxODU7IiBkPSJNMC4zOSwyNC43NWMwLTAuNzYsMC41OS0xLjM0LDEuMjgtMS4zNCAgICAgczEuMjgsMC41OCwxLjI4LDEuMzRjMCwwLjc5LTAuNTksMS4zNS0xLjI4LDEuMzVTMC4zOSwyNS41NCwwLjM5LDI0Ljc1eiBNMS42NywyNi4zN2MwLjg4LDAsMS42Ny0wLjY5LDEuNjctMS42MiAgICAgYzAtMC45Mi0wLjc5LTEuNi0xLjY3LTEuNlMwLDIzLjgzLDAsMjQuNzVDMCwyNS42OCwwLjc5LDI2LjM3LDEuNjcsMjYuMzd6IE0xLjM3LDI0Ljg4aDAuM2wwLjQ5LDAuOGgwLjNsLTAuNS0wLjgxICAgICBjMC4yLTAuMDQsMC41LTAuMTgsMC41LTAuNTFjMC0wLjM3LTAuMy0wLjUzLTAuNjktMC41M0gxLjA4djEuODVoMC4yOUwxLjM3LDI0Ljg4eiBNMS4zNywyNC42NHYtMC41OGgwLjQgICAgIGMwLjEsMCwwLjM5LDAuMDUsMC4zOSwwLjI4YzAsMC4yOC0wLjI5LDAuMy0wLjQ5LDAuM0gxLjM3eiIvPiYjeGE7CQk8L2c+JiN4YTsJPC9nPiYjeGE7PC9nPiYjeGE7PC9zdmc+;labelBorderColor=#FF0000;fontSize=14;fontColor=none;strokeColor=#FF0000;fillColor=none;" vertex="1" parent="1">
          <mxGeometry x="882.0000000000001" y="605" width="50" height="25" as="geometry" />
        </mxCell>
      </root>
    </mxGraphModel>
  </diagram>
</mxfile>
